<?xml version="1.0" encoding="utf-8"?>
<!-- Generator: Adobe Illustrator 26.2.1, SVG Export Plug-In . SVG Version: 6.00 Build 0)  -->
<svg version="1.1" id="レイヤー_3" xmlns="http://www.w3.org/2000/svg" xmlns:xlink="http://www.w3.org/1999/xlink" x="0px"
	 y="0px" viewBox="0 0 181.4 148.4" style="enable-background:new 0 0 181.4 148.4;" xml:space="preserve">
<style type="text/css">
	.st0{fill:#B4B4B5;}
	.st1{fill:#231815;}
</style>
<g>
	<polygon class="st0" points="148.9,107.4 174.4,107.4 174.4,18.8 80.7,18.5 80.7,123.8 148.9,123.8 	"/>
	<rect x="4.3" y="40.7" class="st0" width="43.9" height="16.4"/>
	<polygon class="st1" points="8.3,3.6 10.5,3.6 12.9,7.6 15.4,3.6 17.6,3.6 17.6,13 15.6,13 15.6,6.9 12.9,10.8 12.9,10.8 10.3,6.9 
		10.3,13 8.3,13 	"/>
	<polygon class="st1" points="31.2,5.5 28.3,5.5 28.3,3.6 36,3.6 36,5.5 33.2,5.5 33.2,13 31.2,13 	"/>
	<path class="st1" d="M37.5,9V3.6h2v5.3c0,1.5,0.8,2.3,2,2.3c1.3,0,2-0.8,2-2.2V3.6h2v5.3c0,2.8-1.6,4.2-4.1,4.2
		C39,13.1,37.5,11.7,37.5,9"/>
	<polygon class="st1" points="55.9,3.6 58.1,3.6 60,9.9 62.1,3.6 63.8,3.6 65.9,9.9 67.9,3.6 70,3.6 66.8,13 65,13 62.9,6.9 
		60.8,13 59.1,13 	"/>
	<polygon class="st1" points="83,5.5 80.1,5.5 80.1,3.6 87.8,3.6 87.8,5.5 85,5.5 85,13 83,13 	"/>
	<polygon class="st1" points="89.4,3.6 91.5,3.6 91.5,7.3 95.2,7.3 95.2,3.6 97.3,3.6 97.3,13 95.2,13 95.2,9.2 91.5,9.2 91.5,13 
		89.4,13 	"/>
	<polygon class="st1" points="110,3.6 117.1,3.6 117.1,5.5 112.1,5.5 112.1,7.5 116.5,7.5 116.5,9.3 112.1,9.3 112.1,13 110,13 	"/>
	<path class="st1" d="M129,11.6l1.2-1.5c0.8,0.7,1.7,1.1,2.8,1.1c0.8,0,1.3-0.3,1.3-0.9v0c0-0.5-0.3-0.8-1.9-1.2
		c-1.9-0.5-3.1-1-3.1-2.8v0c0-1.7,1.4-2.8,3.3-2.8c1.4,0,2.5,0.4,3.5,1.2L135,6.2c-0.8-0.6-1.6-0.9-2.4-0.9c-0.8,0-1.2,0.4-1.2,0.8
		v0c0,0.6,0.4,0.8,2,1.2c1.9,0.5,3,1.2,3,2.8v0c0,1.9-1.4,2.9-3.4,2.9C131.5,13.1,130.1,12.6,129,11.6"/>
	<path class="st1" d="M141.4,3.6h1.9l4,9.4h-2.1l-0.9-2.1h-3.9l-0.9,2.1h-2.1L141.4,3.6z M143.5,9.1l-1.2-3l-1.2,3H143.5z"/>
	<path class="st1" d="M156.2,11.6l1.2-1.5c0.8,0.7,1.7,1.1,2.8,1.1c0.8,0,1.3-0.3,1.3-0.9v0c0-0.5-0.3-0.8-1.9-1.2
		c-1.9-0.5-3.1-1-3.1-2.8v0c0-1.7,1.4-2.8,3.3-2.8c1.4,0,2.5,0.4,3.5,1.2l-1.1,1.5c-0.8-0.6-1.6-0.9-2.4-0.9c-0.8,0-1.2,0.4-1.2,0.8
		v0c0,0.6,0.4,0.8,2,1.2c1.9,0.5,3,1.2,3,2.8v0c0,1.9-1.4,2.9-3.4,2.9C158.7,13.1,157.3,12.6,156.2,11.6"/>
	<path class="st1" d="M165.2,9V3.6h2v5.3c0,1.5,0.8,2.3,2,2.3c1.3,0,2-0.8,2-2.2V3.6h2v5.3c0,2.8-1.6,4.2-4.1,4.2
		C166.7,13.1,165.2,11.7,165.2,9"/>
	<path class="st1" d="M109.8,29.4l3.1-2.5c1.2-1,1.6-1.5,1.6-2.2c0-0.8-0.5-1.2-1.3-1.2c-0.7,0-1.2,0.4-1.9,1.3l-1.4-1.2
		c0.9-1.3,1.8-1.9,3.5-1.9c1.9,0,3.2,1.1,3.2,2.9v0c0,1.6-0.8,2.3-2.4,3.6l-1.5,1.2h4.1V31h-6.9V29.4z"/>
	<polygon class="st1" points="89.2,23.7 87.6,24.1 87.1,22.4 89.8,21.6 91.2,21.6 91.2,31 89.2,31 	"/>
	<path class="st1" d="M134.4,29.5l1.4-1.3c0.6,0.7,1.3,1.1,2.2,1.1c0.8,0,1.3-0.4,1.3-1.1v0c0-0.8-0.7-1.2-1.8-1.2h-0.9l-0.3-1.3
		l2.2-2.2H135v-1.8h6.3v1.5l-2.4,2.3c1.3,0.2,2.5,0.9,2.5,2.6v0c0,1.8-1.3,3-3.4,3C136.4,31.1,135.2,30.5,134.4,29.5"/>
	<path class="st1" d="M165.7,29h-4.6l-0.3-1.5l5.1-5.9h1.7v5.7h1.3V29h-1.3v2h-2V29z M165.7,27.3v-2.9l-2.5,2.9H165.7z"/>
	<polygon class="st1" points="132.7,46.4 131.1,46.8 130.7,45.1 133.4,44.3 134.8,44.3 134.8,53.7 132.7,53.7 	"/>
	<path class="st1" d="M136.7,49L136.7,49c0-2.7,1.7-4.8,4.2-4.8c2.5,0,4.1,2.1,4.1,4.8v0c0,2.7-1.7,4.8-4.2,4.8
		C138.3,53.8,136.7,51.7,136.7,49 M142.9,49L142.9,49c0-1.7-0.8-3-2-3c-1.2,0-2,1.2-2,2.9v0c0,1.7,0.8,3,2,3S142.9,50.7,142.9,49"/>
	<polygon class="st1" points="161.7,46.4 160.1,46.8 159.7,45.1 162.4,44.3 163.8,44.3 163.8,53.7 161.7,53.7 	"/>
	<polygon class="st1" points="167.4,46.4 165.7,46.8 165.3,45.1 168,44.3 169.4,44.3 169.4,53.7 167.4,53.7 	"/>
	<polygon class="st1" points="133.5,68.7 131.9,69.1 131.4,67.4 134.1,66.6 135.5,66.6 135.5,76 133.5,76 	"/>
	<polygon class="st1" points="142,68.4 137.6,68.4 137.6,66.7 144.3,66.7 144.3,68.2 140.2,76 137.8,76 	"/>
	<polygon class="st1" points="160.4,68.7 158.7,69.1 158.3,67.4 161,66.6 162.4,66.6 162.4,76 160.4,76 	"/>
	<path class="st1" d="M164.2,73.4L164.2,73.4c0-1.2,0.5-1.8,1.5-2.3c-0.7-0.4-1.2-1-1.2-2v0c0-1.4,1.3-2.6,3.3-2.6
		c2,0,3.3,1.1,3.3,2.6v0c0,1-0.5,1.6-1.2,2c0.9,0.5,1.5,1.1,1.5,2.2v0c0,1.7-1.5,2.7-3.6,2.7C165.7,76.1,164.2,75.1,164.2,73.4
		 M169.4,73.3L169.4,73.3c0-0.7-0.7-1.2-1.6-1.2c-0.9,0-1.6,0.4-1.6,1.1v0c0,0.6,0.6,1.2,1.6,1.2C168.8,74.4,169.4,73.9,169.4,73.3
		 M169.1,69.3L169.1,69.3c0-0.6-0.5-1.1-1.3-1.1c-0.8,0-1.3,0.5-1.3,1.1v0c0,0.7,0.5,1.1,1.3,1.1C168.6,70.5,169.1,70,169.1,69.3"/>
	<path class="st1" d="M130,96.7l3.1-2.5c1.2-1,1.6-1.5,1.6-2.2c0-0.8-0.5-1.2-1.3-1.2c-0.7,0-1.2,0.4-1.9,1.3l-1.4-1.2
		c0.9-1.3,1.8-1.9,3.5-1.9c1.9,0,3.2,1.1,3.2,2.9v0c0,1.6-0.8,2.3-2.4,3.6l-1.5,1.2h4.1v1.8H130V96.7z"/>
	<path class="st1" d="M142.9,96.3h-4.6l-0.3-1.5l5.1-5.9h1.7v5.7h1.3v1.7h-1.3v2h-2V96.3z M142.9,94.6v-2.9l-2.5,2.9H142.9z"/>
	<path class="st1" d="M157.3,96.7l3.1-2.5c1.2-1,1.6-1.5,1.6-2.2c0-0.8-0.5-1.2-1.3-1.2c-0.7,0-1.2,0.4-1.9,1.3l-1.4-1.2
		c0.9-1.3,1.8-1.9,3.5-1.9c1.9,0,3.2,1.1,3.2,2.9v0c0,1.6-0.8,2.3-2.4,3.6l-1.5,1.2h4.1v1.8h-6.9V96.7z"/>
	<path class="st1" d="M165.5,97.1l1.2-1.5c0.7,0.6,1.4,1,2.2,1c1,0,1.6-0.5,1.6-1.3v0c0-0.8-0.7-1.3-1.6-1.3c-0.6,0-1.1,0.2-1.6,0.3
		l-1.2-0.8l0.3-4.6h5.7v1.8h-4l-0.1,1.6c0.4-0.1,0.7-0.2,1.2-0.2c1.8,0,3.3,0.9,3.3,3v0c0,2-1.4,3.2-3.5,3.2
		C167.5,98.5,166.4,97.9,165.5,97.1"/>
	<path class="st1" d="M131.7,119.2l1.4-1.3c0.6,0.7,1.3,1.1,2.2,1.1c0.8,0,1.3-0.4,1.3-1.1v0c0-0.8-0.7-1.2-1.8-1.2H134l-0.3-1.3
		l2.2-2.2h-3.7v-1.8h6.3v1.5l-2.4,2.3c1.3,0.2,2.5,0.9,2.5,2.6v0c0,1.8-1.3,3-3.4,3C133.6,120.8,132.5,120.1,131.7,119.2"/>
	<polygon class="st1" points="141.8,113.3 140.2,113.7 139.7,112 142.4,111.2 143.8,111.2 143.8,120.6 141.8,120.6 	"/>
	<path class="st1" d="M9.3,52.4l1.2-1.5c0.7,0.6,1.4,1,2.2,1c1,0,1.6-0.5,1.6-1.3v0c0-0.8-0.7-1.3-1.6-1.3c-0.6,0-1.1,0.2-1.6,0.3
		L10,48.9l0.3-4.6h5.7v1.8h-4l-0.1,1.6c0.4-0.1,0.7-0.2,1.2-0.2c1.8,0,3.3,0.9,3.3,3v0c0,2-1.4,3.2-3.5,3.2
		C11.3,53.8,10.2,53.3,9.3,52.4"/>
	<path class="st1" d="M85.4,51.1L85.4,51.1c0-1.2,0.5-1.8,1.5-2.3c-0.7-0.4-1.2-1-1.2-2v0c0-1.4,1.3-2.6,3.3-2.6
		c2,0,3.3,1.1,3.3,2.6v0c0,1-0.5,1.6-1.2,2c0.9,0.5,1.5,1.1,1.5,2.2v0c0,1.7-1.5,2.7-3.6,2.7C87,53.8,85.4,52.7,85.4,51.1 M90.6,51
		L90.6,51c0-0.7-0.7-1.2-1.6-1.2c-0.9,0-1.6,0.4-1.6,1.1v0c0,0.6,0.6,1.2,1.6,1.2C90,52.1,90.6,51.6,90.6,51 M90.4,47L90.4,47
		c0-0.6-0.5-1.1-1.3-1.1c-0.8,0-1.3,0.5-1.3,1.1v0c0,0.7,0.5,1.1,1.3,1.1C89.8,48.2,90.4,47.7,90.4,47"/>
	<path class="st1" d="M115.3,49.9c-0.5,0.4-1.1,0.6-1.9,0.6c-2,0-3.3-1.1-3.3-3v0c0-1.9,1.5-3.3,3.6-3.3c1.3,0,2,0.3,2.7,1
		c0.7,0.7,1.1,1.7,1.1,3.5v0c0,3-1.4,5.1-4.1,5.1c-1.4,0-2.3-0.5-3.1-1.1l1.1-1.6c0.7,0.5,1.3,0.8,2,0.8
		C114.9,52,115.3,50.7,115.3,49.9 M115.4,47.4L115.4,47.4c0-0.9-0.6-1.4-1.6-1.4c-1,0-1.6,0.6-1.6,1.4v0c0,0.8,0.6,1.4,1.6,1.4
		C114.8,48.8,115.4,48.2,115.4,47.4"/>
	<polygon class="st1" points="65.9,46.1 61.5,46.1 61.5,44.4 68.3,44.4 68.3,45.9 64.1,53.7 61.8,53.7 	"/>
	<path class="st1" d="M36.1,52.8c-0.7-0.7-1.1-1.7-1.1-3.5v0c0-2.9,1.3-5.1,4.1-5.1c1.3,0,2.1,0.4,2.9,1l-1.1,1.6
		c-0.6-0.5-1.1-0.7-1.9-0.7c-1.4,0-1.8,1.3-1.9,2.2c0.5-0.3,1.1-0.6,1.9-0.6c1.9,0,3.3,1,3.3,3v0c0,1.9-1.5,3.2-3.6,3.2
		C37.6,53.8,36.7,53.5,36.1,52.8 M40.3,50.7L40.3,50.7c0-0.8-0.6-1.4-1.6-1.4c-1,0-1.6,0.6-1.6,1.3v0c0,0.8,0.6,1.4,1.6,1.4
		C39.7,52.1,40.3,51.5,40.3,50.7"/>
	<polygon class="st1" points="8.4,68.7 6.7,69.1 6.3,67.4 9,66.6 10.4,66.6 10.4,76 8.4,76 	"/>
	<path class="st1" d="M12.3,74.4l3.1-2.5c1.2-1,1.6-1.5,1.6-2.2c0-0.8-0.5-1.2-1.3-1.2c-0.7,0-1.2,0.4-1.9,1.3l-1.4-1.2
		c0.9-1.3,1.8-1.9,3.5-1.9c1.9,0,3.2,1.1,3.2,2.9v0c0,1.6-0.8,2.3-2.4,3.6l-1.5,1.2h4.1V76h-6.9V74.4z"/>
	<polygon class="st1" points="84.4,68.7 82.8,69.1 82.3,67.4 85,66.6 86.4,66.6 86.4,76 84.4,76 	"/>
	<path class="st1" d="M88.2,74.7l1.2-1.5c0.7,0.6,1.4,1,2.2,1c1,0,1.6-0.5,1.6-1.3v0c0-0.8-0.7-1.3-1.6-1.3c-0.6,0-1.1,0.2-1.6,0.3
		l-1.2-0.8l0.3-4.6h5.7v1.8h-4l-0.1,1.6c0.4-0.1,0.7-0.2,1.2-0.2c1.8,0,3.3,0.9,3.3,3v0c0,2-1.4,3.2-3.5,3.2
		C90.2,76.1,89.1,75.6,88.2,74.7"/>
	<polygon class="st1" points="108.9,68.7 107.3,69.1 106.9,67.4 109.6,66.6 111,66.6 111,76 108.9,76 	"/>
	<path class="st1" d="M114,75.1c-0.7-0.7-1.1-1.7-1.1-3.5v0c0-2.9,1.3-5.1,4.1-5.1c1.3,0,2.1,0.4,2.9,1l-1.1,1.6
		c-0.6-0.5-1.1-0.7-1.9-0.7c-1.4,0-1.8,1.3-1.9,2.2c0.5-0.3,1.1-0.6,1.9-0.6c1.9,0,3.3,1,3.3,3v0c0,1.9-1.5,3.2-3.6,3.2
		C115.5,76.1,114.7,75.8,114,75.1 M118.2,73L118.2,73c0-0.8-0.6-1.4-1.6-1.4c-1,0-1.6,0.6-1.6,1.3v0c0,0.8,0.6,1.4,1.6,1.4
		C117.6,74.4,118.2,73.8,118.2,73"/>
	<polygon class="st1" points="59.7,68.7 58.1,69.1 57.7,67.4 60.4,66.6 61.8,66.6 61.8,76 59.7,76 	"/>
	<path class="st1" d="M68.3,74h-4.6l-0.3-1.5l5.1-5.9h1.7v5.7h1.3V74h-1.3v2h-2V74z M68.3,72.3v-2.9l-2.5,2.9H68.3z"/>
	<polygon class="st1" points="34.1,68.7 32.5,69.1 32.1,67.4 34.7,66.6 36.1,66.6 36.1,76 34.1,76 	"/>
	<path class="st1" d="M37.9,74.5l1.4-1.3c0.6,0.7,1.3,1.1,2.2,1.1c0.8,0,1.3-0.4,1.3-1.1v0c0-0.8-0.7-1.2-1.8-1.2h-0.9l-0.3-1.3
		l2.2-2.2h-3.7v-1.8h6.3v1.5l-2.4,2.3c1.3,0.2,2.5,0.9,2.5,2.6v0c0,1.8-1.3,3-3.4,3C39.8,76.1,38.7,75.5,37.9,74.5"/>
	<polygon class="st1" points="8.1,91 6.5,91.4 6.1,89.7 8.7,88.9 10.1,88.9 10.1,98.3 8.1,98.3 	"/>
	<path class="st1" d="M17.3,94.5c-0.5,0.4-1.1,0.6-1.9,0.6c-2,0-3.3-1.1-3.3-3v0c0-1.9,1.5-3.3,3.6-3.3c1.3,0,2,0.3,2.7,1
		c0.7,0.7,1.1,1.7,1.1,3.5v0c0,3-1.4,5.1-4.1,5.1c-1.4,0-2.3-0.5-3.1-1.1l1.1-1.6c0.7,0.5,1.3,0.8,2,0.8
		C16.8,96.6,17.2,95.3,17.3,94.5 M17.4,92L17.4,92c0-0.9-0.6-1.4-1.6-1.4c-1,0-1.6,0.6-1.6,1.4v0c0,0.8,0.6,1.4,1.6,1.4
		C16.8,93.4,17.4,92.8,17.4,92"/>
	<path class="st1" d="M5,119l3.1-2.5c1.2-1,1.6-1.5,1.6-2.2c0-0.8-0.5-1.2-1.3-1.2c-0.7,0-1.2,0.4-1.9,1.3l-1.4-1.2
		c0.9-1.3,1.8-1.9,3.5-1.9c1.9,0,3.2,1.1,3.2,2.9v0c0,1.6-0.8,2.3-2.4,3.6l-1.5,1.2h4.1v1.8H5V119z"/>
	<path class="st1" d="M14.5,119.8c-0.7-0.7-1.1-1.7-1.1-3.5v0c0-2.9,1.3-5.1,4.1-5.1c1.3,0,2.1,0.4,2.9,1l-1.1,1.6
		c-0.6-0.5-1.1-0.7-1.9-0.7c-1.4,0-1.8,1.3-1.9,2.2c0.5-0.3,1.1-0.6,1.9-0.6c1.9,0,3.3,1,3.3,3v0c0,1.9-1.5,3.2-3.6,3.2
		C16,120.8,15.2,120.4,14.5,119.8 M18.7,117.6L18.7,117.6c0-0.8-0.6-1.4-1.6-1.4c-1,0-1.6,0.6-1.6,1.3v0c0,0.8,0.6,1.4,1.6,1.4
		C18.1,119,18.7,118.4,18.7,117.6"/>
	<path class="st1" d="M81.9,96.7l3.1-2.5c1.2-1,1.6-1.5,1.6-2.2c0-0.8-0.5-1.2-1.3-1.2c-0.7,0-1.2,0.4-1.9,1.3L82,90.8
		c0.9-1.3,1.8-1.9,3.5-1.9c1.9,0,3.2,1.1,3.2,2.9v0c0,1.6-0.8,2.3-2.4,3.6l-1.5,1.2h4.1v1.8h-6.9V96.7z"/>
	<path class="st1" d="M90.2,96.7l3.1-2.5c1.2-1,1.6-1.5,1.6-2.2c0-0.8-0.5-1.2-1.3-1.2c-0.7,0-1.2,0.4-1.9,1.3l-1.4-1.2
		c0.9-1.3,1.8-1.9,3.5-1.9c1.9,0,3.2,1.1,3.2,2.9v0c0,1.6-0.8,2.3-2.4,3.6L93,96.5h4.1v1.8h-6.9V96.7z"/>
	<path class="st1" d="M59,96.7l3.1-2.5c1.2-1,1.6-1.5,1.6-2.2c0-0.8-0.5-1.2-1.3-1.2c-0.7,0-1.2,0.4-1.9,1.3l-1.4-1.2
		c0.9-1.3,1.8-1.9,3.5-1.9c1.9,0,3.2,1.1,3.2,2.9v0c0,1.6-0.8,2.3-2.4,3.6l-1.5,1.2h4.1v1.8H59V96.7z"/>
	<polygon class="st1" points="69,91 67.4,91.4 67,89.7 69.6,88.9 71,88.9 71,98.3 69,98.3 	"/>
	<path class="st1" d="M106.1,96.7l3.1-2.5c1.2-1,1.6-1.5,1.6-2.2c0-0.8-0.5-1.2-1.3-1.2c-0.7,0-1.2,0.4-1.9,1.3l-1.4-1.2
		c0.9-1.3,1.8-1.9,3.5-1.9c1.9,0,3.2,1.1,3.2,2.9v0c0,1.6-0.8,2.3-2.4,3.6l-1.5,1.2h4.1v1.8h-6.9V96.7z"/>
	<path class="st1" d="M114.3,96.9l1.4-1.3c0.6,0.7,1.3,1.1,2.2,1.1c0.8,0,1.3-0.4,1.3-1.1v0c0-0.8-0.7-1.2-1.8-1.2h-0.9l-0.3-1.3
		l2.2-2.2h-3.7V89h6.3v1.5l-2.4,2.3c1.3,0.2,2.5,0.9,2.5,2.6v0c0,1.8-1.3,3-3.4,3C116.3,98.5,115.1,97.8,114.3,96.9"/>
	<path class="st1" d="M30.3,96.7l3.1-2.5c1.2-1,1.6-1.5,1.6-2.2c0-0.8-0.5-1.2-1.3-1.2c-0.7,0-1.2,0.4-1.9,1.3l-1.4-1.2
		c0.9-1.3,1.8-1.9,3.5-1.9c1.9,0,3.2,1.1,3.2,2.9v0c0,1.6-0.8,2.3-2.4,3.6l-1.5,1.2h4.1v1.8h-6.9V96.7z"/>
	<path class="st1" d="M38.7,93.7L38.7,93.7c0-2.7,1.7-4.8,4.2-4.8c2.5,0,4.1,2.1,4.1,4.8v0c0,2.7-1.7,4.8-4.2,4.8
		C40.3,98.5,38.7,96.4,38.7,93.7 M44.9,93.7L44.9,93.7c0-1.7-0.8-3-2-3c-1.2,0-2,1.2-2,2.9v0c0,1.7,0.8,3,2,3S44.9,95.4,44.9,93.7"
		/>
	<path class="st1" d="M31.1,119l3.1-2.5c1.2-1,1.6-1.5,1.6-2.2c0-0.8-0.5-1.2-1.3-1.2c-0.7,0-1.2,0.4-1.9,1.3l-1.4-1.2
		c0.9-1.3,1.8-1.9,3.5-1.9c1.9,0,3.2,1.1,3.2,2.9v0c0,1.6-0.8,2.3-2.4,3.6l-1.5,1.2H38v1.8h-6.9V119z"/>
	<polygon class="st1" points="44,113.1 39.6,113.1 39.6,111.3 46.3,111.3 46.3,112.8 42.1,120.6 39.8,120.6 	"/>
	<path class="st1" d="M57.7,119l3.1-2.5c1.2-1,1.6-1.5,1.6-2.2c0-0.8-0.5-1.2-1.3-1.2c-0.7,0-1.2,0.4-1.9,1.3l-1.4-1.2
		c0.9-1.3,1.8-1.9,3.5-1.9c1.9,0,3.2,1.1,3.2,2.9v0c0,1.6-0.8,2.3-2.4,3.6l-1.5,1.2h4.1v1.8h-6.9V119z"/>
	<path class="st1" d="M65.9,118.1L65.9,118.1c0-1.2,0.5-1.8,1.5-2.3c-0.7-0.4-1.2-1-1.2-2v0c0-1.4,1.3-2.6,3.3-2.6
		c2,0,3.3,1.1,3.3,2.6v0c0,1-0.5,1.6-1.2,2c0.9,0.5,1.5,1.1,1.5,2.2v0c0,1.7-1.5,2.7-3.6,2.7C67.5,120.7,65.9,119.7,65.9,118.1
		 M71.2,117.9L71.2,117.9c0-0.7-0.7-1.2-1.6-1.2c-0.9,0-1.6,0.4-1.6,1.1v0c0,0.6,0.6,1.2,1.6,1.2C70.6,119.1,71.2,118.6,71.2,117.9
		 M70.9,114L70.9,114c0-0.6-0.5-1.1-1.3-1.1c-0.8,0-1.3,0.5-1.3,1.1v0c0,0.7,0.5,1.1,1.3,1.1C70.4,115.1,70.9,114.6,70.9,114"/>
	<path class="st1" d="M81.7,119l3.1-2.5c1.2-1,1.6-1.5,1.6-2.2c0-0.8-0.5-1.2-1.3-1.2c-0.7,0-1.2,0.4-1.9,1.3l-1.4-1.2
		c0.9-1.3,1.8-1.9,3.5-1.9c1.9,0,3.2,1.1,3.2,2.9v0c0,1.6-0.8,2.3-2.4,3.6l-1.5,1.2h4.1v1.8h-6.9V119z"/>
	<path class="st1" d="M95.3,116.8c-0.5,0.4-1.1,0.6-1.9,0.6c-2,0-3.3-1.1-3.3-3v0c0-1.9,1.5-3.3,3.6-3.3c1.3,0,2,0.3,2.7,1
		c0.7,0.7,1.1,1.7,1.1,3.5v0c0,3-1.4,5.1-4.1,5.1c-1.4,0-2.3-0.5-3.1-1.1l1.1-1.6c0.7,0.5,1.3,0.8,2,0.8
		C94.8,118.9,95.2,117.6,95.3,116.8 M95.3,114.3L95.3,114.3c0-0.9-0.6-1.4-1.6-1.4c-1,0-1.6,0.6-1.6,1.4v0c0,0.8,0.6,1.4,1.6,1.4
		C94.8,115.7,95.3,115.1,95.3,114.3"/>
	<path class="st1" d="M105.3,119.2l1.4-1.3c0.6,0.7,1.3,1.1,2.2,1.1c0.8,0,1.3-0.4,1.3-1.1v0c0-0.8-0.7-1.2-1.8-1.2h-0.9l-0.3-1.3
		l2.2-2.2h-3.7v-1.8h6.3v1.5l-2.4,2.3c1.3,0.2,2.5,0.9,2.5,2.6v0c0,1.8-1.3,3-3.4,3C107.3,120.8,106.1,120.1,105.3,119.2"/>
	<path class="st1" d="M113.8,116L113.8,116c0-2.7,1.7-4.8,4.2-4.8c2.5,0,4.1,2.1,4.1,4.8v0c0,2.7-1.7,4.8-4.2,4.8
		S113.8,118.7,113.8,116 M120,116L120,116c0-1.7-0.8-3-2-3s-2,1.2-2,2.9v0c0,1.7,0.8,3,2,3S120,117.7,120,116"/>
</g>
</svg>
