<svg id="レイヤー_6" data-name="レイヤー 6" xmlns="http://www.w3.org/2000/svg" viewBox="0 0 240.14 142"><defs><style>.cls-1,.cls-2{fill:#b5b5b6;}.cls-2,.cls-3,.cls-4{stroke:#231815;stroke-miterlimit:10;}.cls-2,.cls-3{stroke-width:0.6px;}.cls-3,.cls-4{fill:none;}.cls-4{stroke-width:1.51px;}.cls-5{fill:#231815;}</style></defs><title>アートボード 1</title><polygon class="cls-1" points="191.55 20.59 218.5 20.11 210.49 30.56 185.49 28.8 191.55 20.59"/><path class="cls-1" d="M186.06,10.1s38.13-.87,40.33-.78,7.28.66,9.6,3.11a5.18,5.18,0,0,1,.58,6.28c-.58,1.16-8.66,12.44-8.66,12.44l-.36.5-17.06-1.37,8-10.17-26.94.28Z"/><path class="cls-1" d="M50.75,36.2c-3.66,3.3-6.83,6.35-9.58,9.12l15.95,1.34a67.51,67.51,0,0,1,15.12-11L84.71,18.53S64.22,24,50.75,36.2Z"/><path class="cls-2" d="M150.86,42.81l-3.41,4.67h0l-30.63-1.84L130.15,27l30.68,2.13-3.72,5.11,4,.25,4.9-6.84c1.05-1.44-.28-2.2-2.5-2.35l-43.63-2.79c-11.88-.29-17.2,1-23.42,2.76a100.91,100.91,0,0,0-20.64,8.38,129.52,129.52,0,0,0-19.31,13L148.55,52l6.37-8.88Z"/><line class="cls-3" x1="186.06" y1="10.1" x2="191.56" y2="20.39"/><line class="cls-3" x1="72.33" y1="35.58" x2="84.71" y2="18.53"/><line class="cls-3" x1="185.49" y1="28.8" x2="227.25" y2="31.4"/><path class="cls-4" d="M210.07,55.69,40.16,45.31c22.78-23,54.63-32.44,83.8-33.74l99.82-2.36c9.84-.33,17.57,3.45,11.17,12.25Z"/><polyline class="cls-3" points="210.49 30.28 218.5 20.11 191.56 20.59 191.55 20.59 175.6 42.2"/><path class="cls-5" d="M136.62,36.85a.82.82,0,0,0,.82-.81.82.82,0,1,0-1.64,0A.82.82,0,0,0,136.62,36.85Z"/><path class="cls-5" d="M133.24,34V44.83h11V34Zm3.58,7.51.27,2.57h-.94l.27-2.57Zm4.21,0,.27,2.57h-.94l.27-2.57Zm2.47,2.57h-1.27l-.08-2.57h.46V37.37h-3.56v4.18h.47l-.08,2.57H138l-.08-2.57h.47V37.37h-3.56v4.18h.47l-.08,2.57H134V34.75h9.54Z"/><polygon class="cls-5" points="136.33 33.71 137.52 33.71 137.52 32.52 138.66 32.52 136.92 29.58 135.19 32.52 136.33 32.52 136.33 33.71"/><polygon class="cls-5" points="140.53 33.85 142.26 30.91 141.13 30.91 141.13 29.72 139.93 29.72 139.93 30.91 138.8 30.91 140.53 33.85"/><circle class="cls-5" cx="140.83" cy="36.04" r="0.82"/><circle class="cls-5" cx="206.86" cy="36.75" r="1.11"/><path class="cls-5" d="M207.26,42.34l.4-3.67h-2.55l-2.46,2.16.17.67A3.76,3.76,0,1,0,208,45v0h-.85v0A2.92,2.92,0,1,1,203,42.33l.34,1.35.7-.12,0-2.19.83-.51-.44,3.6h3.92l.26,3.4H210l0-5.21Z"/><path class="cls-5" d="M194.22,37.86a1.11,1.11,0,1,0-1.11-1.11A1.11,1.11,0,0,0,194.22,37.86Z"/><polygon class="cls-5" points="197.44 47.19 195.55 38.66 192.9 38.66 191.01 47.19 192.32 47.19 192.07 48.76 193.31 48.76 193.7 47.19 194.74 47.19 195.13 48.76 196.38 48.76 196.13 47.19 197.44 47.19"/><circle class="cls-5" cx="187.03" cy="36.75" r="1.11"/><polygon class="cls-5" points="184.48 44.66 185.15 44.66 185.08 48.76 186.39 48.76 186.78 44.66 187.28 44.66 187.67 48.76 188.98 48.76 188.9 44.66 189.58 44.66 189.58 38.66 184.48 38.66 184.48 44.66"/></svg>