<?xml version="1.0" encoding="utf-8"?>
<!-- Generator: Adobe Illustrator 26.2.1, SVG Export Plug-In . SVG Version: 6.00 Build 0)  -->
<svg version="1.1" id="レイヤー_3" xmlns="http://www.w3.org/2000/svg" xmlns:xlink="http://www.w3.org/1999/xlink" x="0px"
	 y="0px" viewBox="0 0 181.4 148.4" style="enable-background:new 0 0 181.4 148.4;" xml:space="preserve">
<style type="text/css">
	.st0{fill:#B4B4B5;}
	.st1{fill:#231815;}
</style>
<g>
	<rect x="27.8" y="108.1" class="st0" width="17.2" height="16.5"/>
	<rect x="78.9" y="85.9" class="st0" width="95.5" height="17"/>
	<polygon class="st1" points="109.8,46.7 108.2,47.1 107.7,45.4 110.4,44.6 111.8,44.6 111.8,54 109.8,54 	"/>
	<polygon class="st1" points="115.5,46.7 113.8,47.1 113.4,45.4 116.1,44.6 117.5,44.6 117.5,54 115.5,54 	"/>
	<polygon class="st1" points="133.4,46.7 131.7,47.1 131.3,45.4 134,44.6 135.4,44.6 135.4,54 133.4,54 	"/>
	<path class="st1" d="M137.3,52.4l3.1-2.6c1.2-1,1.6-1.5,1.6-2.3c0-0.8-0.5-1.2-1.3-1.2c-0.7,0-1.2,0.4-1.9,1.3l-1.4-1.2
		c0.9-1.3,1.8-1.9,3.5-1.9c1.9,0,3.2,1.1,3.2,2.9v0c0,1.6-0.8,2.3-2.5,3.6l-1.5,1.2h4.1V54h-6.9V52.4z"/>
	<polygon class="st1" points="160.5,46.7 158.9,47.1 158.4,45.4 161.1,44.6 162.5,44.6 162.5,54 160.5,54 	"/>
	<path class="st1" d="M164.3,52.6l1.4-1.4c0.6,0.7,1.3,1.1,2.3,1.1c0.8,0,1.3-0.4,1.3-1.1v0c0-0.8-0.7-1.2-1.8-1.2h-0.9l-0.3-1.3
		l2.2-2.3h-3.7v-1.8h6.3v1.6l-2.4,2.3c1.3,0.2,2.5,0.9,2.5,2.6v0c0,1.8-1.3,3.1-3.4,3.1C166.3,54.2,165.1,53.5,164.3,52.6"/>
	<polygon class="st1" points="83.3,46.7 81.7,47.1 81.2,45.4 83.9,44.6 85.3,44.6 85.3,54 83.3,54 	"/>
	<path class="st1" d="M87.3,49.4L87.3,49.4c0-2.7,1.7-4.9,4.2-4.9c2.5,0,4.2,2.1,4.2,4.8v0c0,2.7-1.7,4.9-4.2,4.9
		C88.9,54.2,87.3,52.1,87.3,49.4 M93.5,49.4L93.5,49.4c0-1.7-0.8-3-2.1-3c-1.2,0-2,1.2-2,3v0c0,1.7,0.8,3,2.1,3S93.5,51.1,93.5,49.4
		"/>
	<path class="st1" d="M32.8,51.4L32.8,51.4c0-1.2,0.5-1.8,1.5-2.3c-0.7-0.4-1.2-1-1.2-2.1v0c0-1.4,1.3-2.6,3.3-2.6
		c2,0,3.3,1.1,3.3,2.6v0c0,1-0.5,1.6-1.2,2.1c1,0.5,1.5,1.1,1.5,2.2v0c0,1.7-1.5,2.8-3.6,2.8C34.4,54.2,32.8,53.1,32.8,51.4
		 M38.1,51.3L38.1,51.3c0-0.8-0.7-1.2-1.6-1.2c-0.9,0-1.6,0.4-1.6,1.2v0c0,0.6,0.6,1.2,1.6,1.2S38.1,51.9,38.1,51.3 M37.8,47.3
		L37.8,47.3c0-0.6-0.5-1.1-1.3-1.1c-0.8,0-1.3,0.5-1.3,1.1v0c0,0.7,0.5,1.2,1.3,1.2C37.3,48.5,37.8,48,37.8,47.3"/>
	<path class="st1" d="M63.9,50.2c-0.5,0.4-1.1,0.6-1.9,0.6c-2,0-3.4-1.1-3.4-3v0c0-1.9,1.5-3.3,3.6-3.3c1.3,0,2,0.3,2.7,1
		c0.7,0.7,1.1,1.7,1.1,3.5v0c0,3-1.4,5.1-4.1,5.1c-1.4,0-2.3-0.5-3.1-1.1l1.1-1.6c0.7,0.5,1.3,0.8,2,0.8
		C63.5,52.3,63.9,51,63.9,50.2 M64,47.7L64,47.7c0-0.9-0.6-1.5-1.6-1.5c-1,0-1.6,0.6-1.6,1.4v0c0,0.8,0.6,1.4,1.6,1.4
		C63.4,49.1,64,48.5,64,47.7"/>
	<path class="st1" d="M113.8,29.2h-4.6l-0.3-1.5l5.1-6h1.7v5.7h1.3v1.7h-1.3v2h-2V29.2z M113.8,27.5v-2.9l-2.5,2.9H113.8z"/>
	<path class="st1" d="M85,29.6l1.4-1.4c0.6,0.7,1.3,1.1,2.3,1.1c0.8,0,1.3-0.4,1.3-1.1v0c0-0.8-0.7-1.2-1.8-1.2h-0.9L87,25.7
		l2.2-2.3h-3.7v-1.8h6.3v1.6l-2.4,2.3c1.3,0.2,2.5,0.9,2.5,2.6v0c0,1.8-1.3,3.1-3.4,3.1C87,31.2,85.8,30.5,85,29.6"/>
	<path class="st1" d="M58.9,29.4l3.1-2.6c1.2-1,1.6-1.5,1.6-2.3c0-0.8-0.5-1.2-1.3-1.2c-0.7,0-1.2,0.4-1.9,1.3L59,23.4
		c0.9-1.3,1.8-1.9,3.5-1.9c1.9,0,3.2,1.1,3.2,2.9v0c0,1.6-0.8,2.3-2.5,3.6l-1.5,1.2h4.1V31h-6.9V29.4z"/>
	<polygon class="st1" points="36.6,23.7 35,24.1 34.6,22.4 37.3,21.6 38.7,21.6 38.7,31 36.6,31 	"/>
	<polygon class="st1" points="108.4,69.1 106.8,69.5 106.3,67.8 109,67 110.4,67 110.4,76.5 108.4,76.5 	"/>
	<path class="st1" d="M112.3,73.9L112.3,73.9c0-1.2,0.5-1.8,1.5-2.3c-0.7-0.4-1.2-1-1.2-2.1v0c0-1.4,1.3-2.6,3.3-2.6
		c2,0,3.3,1.1,3.3,2.6v0c0,1-0.5,1.6-1.2,2.1c1,0.5,1.5,1.1,1.5,2.2v0c0,1.7-1.5,2.8-3.6,2.8C113.8,76.6,112.3,75.5,112.3,73.9
		 M117.5,73.8L117.5,73.8c0-0.8-0.7-1.2-1.6-1.2c-0.9,0-1.6,0.4-1.6,1.2v0c0,0.6,0.6,1.2,1.6,1.2C116.9,74.9,117.5,74.4,117.5,73.8
		 M117.2,69.8L117.2,69.8c0-0.6-0.5-1.1-1.3-1.1c-0.8,0-1.3,0.5-1.3,1.1v0c0,0.7,0.5,1.2,1.3,1.2C116.7,70.9,117.2,70.5,117.2,69.8"
		/>
	<polygon class="st1" points="133.1,69.1 131.5,69.5 131,67.8 133.7,67 135.1,67 135.1,76.5 133.1,76.5 	"/>
	<path class="st1" d="M142.4,72.6c-0.5,0.4-1.1,0.6-1.9,0.6c-2,0-3.4-1.1-3.4-3v0c0-1.9,1.5-3.3,3.6-3.3c1.3,0,2,0.3,2.7,1
		c0.7,0.7,1.1,1.7,1.1,3.5v0c0,3-1.4,5.1-4.1,5.1c-1.4,0-2.3-0.5-3.1-1.1l1.1-1.6c0.7,0.5,1.3,0.8,2.1,0.8
		C141.9,74.8,142.3,73.4,142.4,72.6 M142.4,70.2L142.4,70.2c0-0.9-0.6-1.5-1.6-1.5c-1,0-1.6,0.6-1.6,1.4v0c0,0.8,0.6,1.4,1.6,1.4
		C141.8,71.6,142.4,71,142.4,70.2"/>
	<path class="st1" d="M156.7,74.8l3.1-2.6c1.2-1,1.6-1.5,1.6-2.3c0-0.8-0.5-1.2-1.3-1.2c-0.7,0-1.2,0.4-1.9,1.3l-1.4-1.2
		c0.9-1.3,1.8-1.9,3.5-1.9c1.9,0,3.2,1.1,3.2,2.9v0c0,1.6-0.8,2.3-2.5,3.6l-1.5,1.2h4.1v1.8h-6.9V74.8z"/>
	<path class="st1" d="M165.1,71.8L165.1,71.8c0-2.7,1.7-4.9,4.2-4.9c2.5,0,4.2,2.1,4.2,4.8v0c0,2.7-1.7,4.9-4.2,4.9
		S165.1,74.5,165.1,71.8 M171.3,71.8L171.3,71.8c0-1.7-0.8-3-2.1-3c-1.2,0-2,1.2-2,3v0c0,1.7,0.8,3,2.1,3
		C170.5,74.8,171.3,73.5,171.3,71.8"/>
	<path class="st1" d="M105.3,97.3l3.1-2.6c1.2-1,1.6-1.5,1.6-2.3c0-0.8-0.5-1.2-1.3-1.2c-0.7,0-1.2,0.4-1.9,1.3l-1.4-1.2
		c0.9-1.3,1.8-1.9,3.5-1.9c1.9,0,3.2,1.1,3.2,2.9v0c0,1.6-0.8,2.3-2.5,3.6l-1.5,1.2h4.1v1.8h-6.9V97.3z"/>
	<path class="st1" d="M113.6,97.7l1.2-1.5c0.7,0.6,1.4,1,2.2,1c1,0,1.6-0.5,1.6-1.3v0c0-0.8-0.7-1.3-1.7-1.3c-0.6,0-1.1,0.2-1.6,0.3
		l-1.2-0.8l0.3-4.6h5.8v1.8h-4l-0.1,1.6c0.4-0.1,0.7-0.2,1.2-0.2c1.8,0,3.3,0.9,3.3,3v0c0,2-1.4,3.2-3.6,3.2
		C115.6,99.1,114.5,98.6,113.6,97.7"/>
	<polygon class="st1" points="84,69.1 82.4,69.5 82,67.8 84.7,67 86.1,67 86.1,76.5 84,76.5 	"/>
	<polygon class="st1" points="92.6,68.9 88.2,68.9 88.2,67.1 95,67.1 95,68.7 90.8,76.5 88.4,76.5 	"/>
	<path class="st1" d="M80.5,97.3l3.1-2.6c1.2-1,1.6-1.5,1.6-2.3c0-0.8-0.5-1.2-1.3-1.2c-0.7,0-1.2,0.4-1.9,1.3l-1.4-1.2
		c0.9-1.3,1.8-1.9,3.5-1.9c1.9,0,3.2,1.1,3.2,2.9v0c0,1.6-0.8,2.3-2.5,3.6l-1.5,1.2h4.1v1.8h-6.9V97.3z"/>
	<path class="st1" d="M93.5,96.9h-4.6l-0.3-1.5l5.1-6h1.7v5.7h1.3v1.7h-1.3v2h-2V96.9z M93.5,95.2v-2.9L91,95.2H93.5z"/>
	<path class="st1" d="M130,97.3l3.1-2.6c1.2-1,1.6-1.5,1.6-2.3c0-0.8-0.5-1.2-1.3-1.2c-0.7,0-1.2,0.4-1.9,1.3l-1.4-1.2
		c0.9-1.3,1.8-1.9,3.5-1.9c1.9,0,3.2,1.1,3.2,2.9v0c0,1.6-0.8,2.3-2.5,3.6l-1.5,1.2h4.1v1.8H130V97.3z"/>
	<path class="st1" d="M139.6,98.1c-0.7-0.7-1.1-1.7-1.1-3.6v0c0-2.9,1.3-5.1,4.1-5.1c1.3,0,2.1,0.4,2.9,1l-1.1,1.6
		c-0.6-0.5-1.1-0.8-1.9-0.8c-1.4,0-1.8,1.4-1.9,2.2c0.5-0.3,1.1-0.6,1.9-0.6c1.9,0,3.3,1,3.3,3v0c0,1.9-1.5,3.2-3.6,3.2
		C141,99.1,140.2,98.8,139.6,98.1 M143.8,96L143.8,96c0-0.8-0.6-1.4-1.6-1.4c-1,0-1.6,0.6-1.6,1.4v0c0,0.8,0.6,1.4,1.6,1.4
		S143.8,96.8,143.8,96"/>
	<polygon class="st1" points="31.8,69.1 30.2,69.5 29.7,67.8 32.4,67 33.8,67 33.8,76.5 31.8,76.5 	"/>
	<path class="st1" d="M35.7,75.2l1.2-1.5c0.7,0.6,1.4,1,2.2,1c1,0,1.6-0.5,1.6-1.3v0c0-0.8-0.7-1.3-1.7-1.3c-0.6,0-1.1,0.2-1.6,0.3
		l-1.2-0.8l0.3-4.6h5.8v1.8h-4l-0.1,1.6c0.4-0.1,0.7-0.2,1.2-0.2c1.8,0,3.3,0.9,3.3,3v0c0,2-1.4,3.2-3.6,3.2
		C37.7,76.6,36.6,76.1,35.7,75.2"/>
	<polygon class="st1" points="57.5,69.1 55.9,69.5 55.4,67.8 58.1,67 59.5,67 59.5,76.5 57.5,76.5 	"/>
	<path class="st1" d="M62.6,75.6c-0.7-0.7-1.1-1.7-1.1-3.6v0c0-2.9,1.3-5.1,4.1-5.1c1.3,0,2.1,0.4,2.9,1l-1.1,1.6
		c-0.6-0.5-1.1-0.8-1.9-0.8c-1.4,0-1.8,1.4-1.9,2.2c0.5-0.3,1.1-0.6,1.9-0.6c1.9,0,3.3,1,3.3,3v0c0,1.9-1.5,3.2-3.6,3.2
		C64.1,76.6,63.3,76.3,62.6,75.6 M66.8,73.5L66.8,73.5c0-0.8-0.6-1.4-1.6-1.4c-1,0-1.6,0.6-1.6,1.4v0c0,0.8,0.6,1.4,1.6,1.4
		C66.3,74.9,66.8,74.3,66.8,73.5"/>
	<path class="st1" d="M28.8,97.3l3.1-2.6c1.2-1,1.6-1.5,1.6-2.3c0-0.8-0.5-1.2-1.3-1.2c-0.7,0-1.2,0.4-1.9,1.3l-1.4-1.2
		c0.9-1.3,1.8-1.9,3.5-1.9c1.9,0,3.2,1.1,3.2,2.9v0c0,1.6-0.8,2.3-2.5,3.6l-1.5,1.2h4.1v1.8h-6.9V97.3z"/>
	<path class="st1" d="M37.1,97.3l3.1-2.6c1.2-1,1.6-1.5,1.6-2.3c0-0.8-0.5-1.2-1.3-1.2c-0.7,0-1.2,0.4-1.9,1.3l-1.4-1.2
		c0.9-1.3,1.8-1.9,3.5-1.9c1.9,0,3.2,1.1,3.2,2.9v0c0,1.6-0.8,2.3-2.5,3.6L40,97.2h4.1v1.8h-6.9V97.3z"/>
	<path class="st1" d="M54.7,97.3l3.1-2.6c1.2-1,1.6-1.5,1.6-2.3c0-0.8-0.5-1.2-1.3-1.2c-0.7,0-1.2,0.4-1.9,1.3l-1.4-1.2
		c0.9-1.3,1.8-1.9,3.5-1.9c1.9,0,3.2,1.1,3.2,2.9v0c0,1.6-0.8,2.3-2.5,3.6l-1.5,1.2h4.1v1.8h-6.9V97.3z"/>
	<path class="st1" d="M62.9,97.5l1.4-1.4c0.6,0.7,1.3,1.1,2.3,1.1c0.8,0,1.3-0.4,1.3-1.1v0c0-0.8-0.7-1.2-1.8-1.2h-0.9l-0.3-1.3
		l2.2-2.3h-3.7v-1.8h6.3v1.6l-2.4,2.3c1.3,0.2,2.5,0.9,2.5,2.6v0c0,1.8-1.3,3.1-3.4,3.1C64.9,99.1,63.7,98.4,62.9,97.5"/>
	<path class="st1" d="M157.4,97.3l3.1-2.6c1.2-1,1.6-1.5,1.6-2.3c0-0.8-0.5-1.2-1.3-1.2c-0.7,0-1.2,0.4-1.9,1.3l-1.4-1.2
		c0.9-1.3,1.8-1.9,3.5-1.9c1.9,0,3.2,1.1,3.2,2.9v0c0,1.6-0.8,2.3-2.5,3.6l-1.5,1.2h4.1v1.8h-6.9V97.3z"/>
	<polygon class="st1" points="170.5,91.4 166,91.4 166,89.6 172.8,89.6 172.8,91.1 168.6,98.9 166.3,98.9 	"/>
	<path class="st1" d="M28.5,119.8l3.1-2.6c1.2-1,1.6-1.5,1.6-2.3c0-0.8-0.5-1.2-1.3-1.2c-0.7,0-1.2,0.4-1.9,1.3l-1.4-1.2
		c0.9-1.3,1.8-1.9,3.5-1.9c1.9,0,3.2,1.1,3.2,2.9v0c0,1.6-0.8,2.3-2.5,3.6l-1.5,1.2h4.1v1.8h-6.9V119.8z"/>
	<path class="st1" d="M42.2,117.6c-0.5,0.4-1.1,0.6-1.9,0.6c-2,0-3.4-1.1-3.4-3v0c0-1.9,1.5-3.3,3.6-3.3c1.3,0,2,0.3,2.7,1
		c0.7,0.7,1.1,1.7,1.1,3.5v0c0,3-1.4,5.1-4.1,5.1c-1.4,0-2.3-0.5-3.1-1.1l1.1-1.6c0.7,0.5,1.3,0.8,2,0.8
		C41.7,119.7,42.1,118.4,42.2,117.6 M42.3,115.1L42.3,115.1c0-0.9-0.6-1.5-1.6-1.5c-1,0-1.6,0.6-1.6,1.4v0c0,0.8,0.6,1.4,1.6,1.4
		C41.7,116.5,42.3,115.9,42.3,115.1"/>
	<path class="st1" d="M53.8,119.9l1.4-1.4c0.6,0.7,1.3,1.1,2.3,1.1c0.8,0,1.3-0.4,1.3-1.1v0c0-0.8-0.7-1.2-1.8-1.2h-0.9l-0.3-1.3
		l2.2-2.3h-3.7V112h6.3v1.6l-2.4,2.3c1.3,0.2,2.5,0.9,2.5,2.6v0c0,1.8-1.3,3.1-3.4,3.1C55.8,121.6,54.6,120.9,53.8,119.9"/>
	<path class="st1" d="M62.4,116.7L62.4,116.7c0-2.7,1.7-4.9,4.2-4.9c2.5,0,4.2,2.1,4.2,4.8v0c0,2.7-1.7,4.9-4.2,4.9
		C64,121.6,62.4,119.5,62.4,116.7 M68.6,116.7L68.6,116.7c0-1.7-0.8-3-2.1-3c-1.2,0-2,1.2-2,3v0c0,1.7,0.8,3,2.1,3
		S68.6,118.4,68.6,116.7"/>
	<polygon class="st1" points="7.3,3.6 9.6,3.6 12,7.6 14.5,3.6 16.7,3.6 16.7,13 14.7,13 14.7,6.9 12,10.9 12,10.9 9.4,6.9 9.4,13 
		7.3,13 	"/>
	<polygon class="st1" points="30.4,5.5 27.5,5.5 27.5,3.6 35.3,3.6 35.3,5.5 32.4,5.5 32.4,13 30.4,13 	"/>
	<path class="st1" d="M36.7,9V3.6h2.1v5.3c0,1.5,0.8,2.3,2,2.3c1.3,0,2-0.8,2-2.3V3.6h2.1v5.3c0,2.8-1.6,4.2-4.1,4.2
		C38.3,13.2,36.7,11.8,36.7,9"/>
	<polygon class="st1" points="55.3,3.6 57.5,3.6 59.4,10 61.5,3.6 63.3,3.6 65.4,10 67.3,3.6 69.5,3.6 66.3,13.1 64.5,13.1 
		62.4,6.9 60.3,13.1 58.5,13.1 	"/>
	<polygon class="st1" points="82.5,5.5 79.7,5.5 79.7,3.6 87.4,3.6 87.4,5.5 84.6,5.5 84.6,13 82.5,13 	"/>
	<polygon class="st1" points="89,3.6 91.1,3.6 91.1,7.3 94.9,7.3 94.9,3.6 96.9,3.6 96.9,13 94.9,13 94.9,9.3 91.1,9.3 91.1,13 
		89,13 	"/>
	<polygon class="st1" points="109.8,3.6 116.9,3.6 116.9,5.5 111.9,5.5 111.9,7.5 116.3,7.5 116.3,9.4 111.9,9.4 111.9,13 109.8,13 
			"/>
	<path class="st1" d="M128.9,11.6l1.2-1.5c0.8,0.7,1.7,1.1,2.8,1.1c0.8,0,1.4-0.3,1.4-0.9v0c0-0.5-0.3-0.8-1.9-1.2
		c-1.9-0.5-3.1-1-3.1-2.9v0c0-1.7,1.4-2.8,3.3-2.8c1.4,0,2.5,0.4,3.5,1.2L135,6.2c-0.8-0.6-1.6-0.9-2.4-0.9s-1.2,0.4-1.2,0.8v0
		c0,0.6,0.4,0.8,2,1.2c1.9,0.5,3,1.2,3,2.8v0c0,1.9-1.4,2.9-3.4,2.9C131.4,13.2,130,12.7,128.9,11.6"/>
	<path class="st1" d="M141.3,3.6h1.9l4,9.4h-2.2l-0.9-2.1h-4l-0.9,2.1h-2.1L141.3,3.6z M143.5,9.1l-1.2-3l-1.2,3H143.5z"/>
	<path class="st1" d="M156.2,11.6l1.2-1.5c0.8,0.7,1.7,1.1,2.8,1.1c0.8,0,1.4-0.3,1.4-0.9v0c0-0.5-0.3-0.8-1.9-1.2
		c-1.9-0.5-3.1-1-3.1-2.9v0c0-1.7,1.4-2.8,3.3-2.8c1.4,0,2.5,0.4,3.5,1.2l-1.1,1.6c-0.8-0.6-1.6-0.9-2.4-0.9c-0.8,0-1.2,0.4-1.2,0.8
		v0c0,0.6,0.4,0.8,2,1.2c1.9,0.5,3,1.2,3,2.8v0c0,1.9-1.4,2.9-3.4,2.9C158.8,13.2,157.4,12.7,156.2,11.6"/>
	<path class="st1" d="M165.3,9V3.6h2.1v5.3c0,1.5,0.8,2.3,2,2.3c1.3,0,2-0.8,2-2.3V3.6h2.1v5.3c0,2.8-1.6,4.2-4.1,4.2
		C166.9,13.2,165.3,11.8,165.3,9"/>
	<path class="st1" d="M162.5,30.3c-0.7-0.7-1.1-1.7-1.1-3.6v0c0-2.9,1.3-5.1,4.1-5.1c1.3,0,2.1,0.4,2.9,1l-1.1,1.6
		c-0.6-0.5-1.1-0.8-1.9-0.8c-1.4,0-1.8,1.4-1.9,2.2c0.5-0.3,1.1-0.6,1.9-0.6c1.9,0,3.3,1,3.3,3v0c0,1.9-1.5,3.2-3.6,3.2
		C164,31.3,163.2,31,162.5,30.3 M166.7,28.2L166.7,28.2c0-0.8-0.6-1.4-1.6-1.4c-1,0-1.6,0.6-1.6,1.4v0c0,0.8,0.6,1.4,1.6,1.4
		C166.2,29.6,166.7,29,166.7,28.2"/>
	<polygon class="st1" points="13.2,46.4 8.8,46.4 8.8,44.6 15.6,44.6 15.6,46.2 11.3,54 9,54 	"/>
	<path class="st1" d="M134.3,29.9l1.2-1.5c0.7,0.6,1.4,1,2.2,1c1,0,1.6-0.5,1.6-1.3v0c0-0.8-0.7-1.3-1.7-1.3c-0.6,0-1.1,0.2-1.6,0.3
		l-1.2-0.8l0.3-4.6h5.8v1.8h-4l-0.1,1.6c0.4-0.1,0.7-0.2,1.2-0.2c1.8,0,3.3,0.9,3.3,3v0c0,2-1.4,3.2-3.6,3.2
		C136.3,31.3,135.2,30.8,134.3,29.9"/>
	<polygon class="st1" points="7,69.1 5.3,69.5 4.9,67.8 7.6,67 9,67 9,76.5 7,76.5 	"/>
	<path class="st1" d="M15.6,74.5H11L10.7,73l5.1-6h1.7v5.7h1.3v1.7h-1.3v2h-2V74.5z M15.6,72.8v-2.9l-2.5,2.9H15.6z"/>
	<path class="st1" d="M5.7,97.3l3.1-2.6c1.2-1,1.6-1.5,1.6-2.3c0-0.8-0.5-1.2-1.3-1.2c-0.7,0-1.2,0.4-1.9,1.3l-1.4-1.2
		c0.9-1.3,1.8-1.9,3.5-1.9c1.9,0,3.2,1.1,3.2,2.9v0c0,1.6-0.8,2.3-2.5,3.6l-1.5,1.2h4.1v1.8H5.7V97.3z"/>
	<polygon class="st1" points="15.8,91.6 14.1,92 13.7,90.3 16.4,89.5 17.8,89.5 17.8,98.9 15.8,98.9 	"/>
	<path class="st1" d="M4.3,119.8l3.1-2.6c1.2-1,1.6-1.5,1.6-2.3c0-0.8-0.5-1.2-1.3-1.2c-0.7,0-1.2,0.4-1.9,1.3l-1.4-1.2
		c0.9-1.3,1.8-1.9,3.5-1.9c1.9,0,3.2,1.1,3.2,2.9v0c0,1.6-0.8,2.3-2.5,3.6l-1.5,1.2h4.1v1.8H4.3V119.8z"/>
	<path class="st1" d="M12.6,118.8L12.6,118.8c0-1.2,0.5-1.8,1.5-2.3c-0.7-0.4-1.2-1-1.2-2.1v0c0-1.4,1.3-2.6,3.3-2.6
		s3.3,1.1,3.3,2.6v0c0,1-0.5,1.6-1.2,2.1c1,0.5,1.5,1.1,1.5,2.2v0c0,1.7-1.5,2.8-3.6,2.8S12.6,120.5,12.6,118.8 M17.8,118.7
		L17.8,118.7c0-0.8-0.7-1.2-1.6-1.2c-0.9,0-1.6,0.4-1.6,1.2v0c0,0.6,0.6,1.2,1.6,1.2C17.2,119.8,17.8,119.3,17.8,118.7 M17.6,114.7
		L17.6,114.7c0-0.6-0.5-1.1-1.3-1.1c-0.8,0-1.3,0.5-1.3,1.1v0c0,0.7,0.5,1.2,1.3,1.2C17,115.9,17.6,115.4,17.6,114.7"/>
</g>
</svg>
