<?xml version="1.0" encoding="utf-8"?>
<!-- Generator: Adobe Illustrator 26.2.1, SVG Export Plug-In . SVG Version: 6.00 Build 0)  -->
<svg version="1.1" id="レイヤー_3" xmlns="http://www.w3.org/2000/svg" xmlns:xlink="http://www.w3.org/1999/xlink" x="0px"
	 y="0px" viewBox="0 0 181.4 148.4" style="enable-background:new 0 0 181.4 148.4;" xml:space="preserve">
<style type="text/css">
	.st0{fill:#B4B4B5;}
	.st1{fill:#231815;}
</style>
<g>
	<rect x="4.3" y="84.7" class="st0" width="19" height="16.7"/>
	<polygon class="st0" points="98.8,101.4 98.8,122.7 79.5,122.7 79.5,18.6 174.4,18.6 174.4,101.4 173.3,101.4 	"/>
	<polygon class="st1" points="133.8,46 132.2,46.4 131.8,44.7 134.4,43.9 135.8,43.9 135.8,53.2 133.8,53.2 	"/>
	<path class="st1" d="M137.7,51.6l3.1-2.5c1.1-0.9,1.6-1.5,1.6-2.2c0-0.8-0.5-1.2-1.2-1.2c-0.7,0-1.2,0.4-1.9,1.2l-1.4-1.1
		c0.9-1.2,1.8-1.9,3.4-1.9c1.9,0,3.2,1.1,3.2,2.9v0c0,1.5-0.8,2.3-2.4,3.6l-1.5,1.2h4v1.8h-6.8V51.6z"/>
	<polygon class="st1" points="133.5,68.1 131.9,68.5 131.5,66.8 134.1,66 135.5,66 135.5,75.3 133.5,75.3 	"/>
	<path class="st1" d="M142.6,71.6c-0.5,0.4-1.1,0.6-1.9,0.6c-2,0-3.3-1.1-3.3-3v0c0-1.9,1.4-3.2,3.5-3.2c1.2,0,2,0.3,2.7,1
		c0.7,0.7,1.1,1.7,1.1,3.5v0c0,3-1.4,5-4,5c-1.3,0-2.3-0.4-3-1.1l1.1-1.5c0.7,0.5,1.2,0.8,2,0.8C142.2,73.7,142.6,72.4,142.6,71.6
		 M142.7,69.1L142.7,69.1c0-0.8-0.6-1.4-1.6-1.4c-1,0-1.6,0.6-1.6,1.4v0c0,0.8,0.6,1.4,1.6,1.4C142.1,70.5,142.7,69.9,142.7,69.1"/>
	<path class="st1" d="M82.7,118.1l1.4-1.3c0.6,0.7,1.3,1.1,2.2,1.1c0.8,0,1.3-0.4,1.3-1.1v0c0-0.8-0.7-1.2-1.8-1.2h-0.8l-0.3-1.3
		l2.2-2.2h-3.6v-1.7h6.2v1.5l-2.3,2.2c1.3,0.2,2.5,0.9,2.5,2.6v0c0,1.7-1.3,3-3.3,3C84.6,119.7,83.5,119.1,82.7,118.1"/>
	<polygon class="st1" points="92.7,112.3 91.1,112.7 90.7,111.1 93.3,110.3 94.7,110.3 94.7,119.6 92.7,119.6 	"/>
	<path class="st1" d="M55.2,118.1l1.4-1.3c0.6,0.7,1.3,1.1,2.2,1.1c0.8,0,1.3-0.4,1.3-1.1v0c0-0.8-0.7-1.2-1.8-1.2h-0.8l-0.3-1.3
		l2.2-2.2h-3.6v-1.7H62v1.5l-2.3,2.2c1.3,0.2,2.5,0.9,2.5,2.6v0c0,1.7-1.3,3-3.3,3C57.1,119.7,56,119.1,55.2,118.1"/>
	<path class="st1" d="M63.6,115L63.6,115c0-2.7,1.7-4.8,4.1-4.8c2.4,0,4.1,2.1,4.1,4.8v0c0,2.7-1.6,4.8-4.1,4.8
		C65.2,119.7,63.6,117.7,63.6,115 M69.7,115L69.7,115c0-1.7-0.8-3-2-3c-1.2,0-2,1.2-2,2.9v0c0,1.7,0.8,2.9,2,2.9
		C68.9,117.9,69.7,116.7,69.7,115"/>
	<path class="st1" d="M106,95.9l3.1-2.5c1.1-0.9,1.6-1.5,1.6-2.2c0-0.8-0.5-1.2-1.2-1.2c-0.7,0-1.2,0.4-1.9,1.2l-1.4-1.1
		c0.9-1.2,1.8-1.9,3.4-1.9c1.9,0,3.2,1.1,3.2,2.9v0c0,1.5-0.8,2.3-2.4,3.6l-1.5,1.2h4v1.8H106V95.9z"/>
	<path class="st1" d="M114.1,96.2l1.2-1.5c0.7,0.6,1.4,1,2.2,1c0.9,0,1.5-0.5,1.5-1.3v0c0-0.8-0.7-1.3-1.6-1.3
		c-0.6,0-1.1,0.2-1.5,0.3l-1.2-0.8l0.3-4.6h5.7V90h-3.9l-0.1,1.6c0.4-0.1,0.7-0.2,1.2-0.2c1.8,0,3.2,0.9,3.2,3v0
		c0,2-1.4,3.2-3.5,3.2C116.1,97.6,115,97.1,114.1,96.2"/>
	<path class="st1" d="M161.8,29.9c-0.7-0.7-1.1-1.7-1.1-3.5v0c0-2.8,1.3-5,4.1-5c1.3,0,2.1,0.4,2.9,1l-1.1,1.6
		c-0.6-0.5-1.1-0.7-1.9-0.7c-1.4,0-1.8,1.3-1.9,2.1c0.5-0.3,1.1-0.6,1.9-0.6c1.8,0,3.2,1,3.2,2.9v0c0,1.9-1.5,3.2-3.5,3.2
		C163.3,30.9,162.5,30.6,161.8,29.9 M166,27.8L166,27.8c0-0.8-0.6-1.4-1.6-1.4c-1,0-1.6,0.6-1.6,1.3v0c0,0.8,0.6,1.4,1.6,1.4
		C165.4,29.2,166,28.6,166,27.8"/>
	<path class="st1" d="M134.7,29.5l1.2-1.5c0.7,0.6,1.4,1,2.2,1c1,0,1.5-0.5,1.5-1.3v0c0-0.8-0.7-1.3-1.6-1.3c-0.6,0-1.1,0.2-1.5,0.3
		l-1.2-0.8l0.3-4.6h5.7v1.8h-3.9l-0.1,1.6c0.4-0.1,0.7-0.2,1.2-0.2c1.8,0,3.2,0.9,3.2,3v0c0,2-1.4,3.2-3.5,3.2
		C136.7,30.9,135.6,30.4,134.7,29.5"/>
	<path class="st1" d="M114.3,28.8h-4.5l-0.3-1.4l5.1-5.9h1.7v5.7h1.2v1.6h-1.2v2h-1.9V28.8z M114.3,27.1v-2.9l-2.5,2.9H114.3z"/>
	<path class="st1" d="M85.9,29.3l1.4-1.3c0.6,0.7,1.3,1.1,2.2,1.1c0.8,0,1.3-0.4,1.3-1.1v0c0-0.8-0.7-1.2-1.8-1.2h-0.8l-0.3-1.3
		l2.2-2.2h-3.6v-1.7h6.2V23l-2.3,2.2c1.3,0.2,2.5,0.9,2.5,2.6v0c0,1.7-1.3,3-3.3,3C87.8,30.9,86.7,30.2,85.9,29.3"/>
	<path class="st1" d="M60.6,29.1l3.1-2.5c1.1-0.9,1.6-1.5,1.6-2.2c0-0.8-0.5-1.2-1.2-1.2c-0.7,0-1.2,0.4-1.9,1.2l-1.4-1.1
		c0.9-1.2,1.8-1.9,3.4-1.9c1.9,0,3.2,1.1,3.2,2.9v0c0,1.5-0.8,2.3-2.4,3.6L63.4,29h4v1.8h-6.8V29.1z"/>
	<polygon class="st1" points="39.6,23.5 38,23.9 37.5,22.2 40.2,21.4 41.6,21.4 41.6,30.7 39.6,30.7 	"/>
	<polygon class="st1" points="160.2,46 158.6,46.4 158.2,44.7 160.8,43.9 162.2,43.9 162.2,53.2 160.2,53.2 	"/>
	<path class="st1" d="M163.9,51.8l1.4-1.3c0.6,0.7,1.3,1.1,2.2,1.1c0.8,0,1.3-0.4,1.3-1.1v0c0-0.8-0.7-1.2-1.8-1.2h-0.8l-0.3-1.3
		l2.2-2.2h-3.6V44h6.2v1.5l-2.3,2.2c1.3,0.2,2.5,0.9,2.5,2.6v0c0,1.7-1.3,3-3.3,3C165.9,53.4,164.7,52.7,163.9,51.8"/>
	<path class="st1" d="M156.1,73.7l3.1-2.5c1.1-0.9,1.6-1.5,1.6-2.2c0-0.8-0.5-1.2-1.2-1.2c-0.7,0-1.2,0.4-1.9,1.2l-1.4-1.1
		c0.9-1.2,1.8-1.9,3.4-1.9c1.9,0,3.2,1.1,3.2,2.9v0c0,1.5-0.8,2.3-2.4,3.6l-1.5,1.2h4v1.8h-6.8V73.7z"/>
	<path class="st1" d="M164.4,70.8L164.4,70.8c0-2.7,1.7-4.8,4.1-4.8c2.4,0,4.1,2.1,4.1,4.8v0c0,2.7-1.6,4.8-4.1,4.8
		C166,75.5,164.4,73.4,164.4,70.8 M170.5,70.8L170.5,70.8c0-1.7-0.8-3-2-3c-1.2,0-2,1.2-2,2.9v0c0,1.7,0.8,2.9,2,2.9
		C169.8,73.7,170.5,72.4,170.5,70.8"/>
	<path class="st1" d="M130.3,95.9l3.1-2.5c1.1-0.9,1.6-1.5,1.6-2.2c0-0.8-0.5-1.2-1.2-1.2c-0.7,0-1.2,0.4-1.9,1.2l-1.4-1.1
		c0.9-1.2,1.8-1.9,3.4-1.9c1.9,0,3.2,1.1,3.2,2.9v0c0,1.5-0.8,2.3-2.4,3.6l-1.5,1.2h4v1.8h-6.8V95.9z"/>
	<path class="st1" d="M139.7,96.6c-0.7-0.7-1.1-1.7-1.1-3.5v0c0-2.8,1.3-5,4.1-5c1.3,0,2.1,0.4,2.9,1l-1.1,1.6
		c-0.6-0.5-1.1-0.7-1.9-0.7c-1.4,0-1.8,1.3-1.9,2.1c0.5-0.3,1.1-0.6,1.9-0.6c1.8,0,3.2,1,3.2,2.9v0c0,1.9-1.5,3.2-3.5,3.2
		C141.2,97.6,140.4,97.3,139.7,96.6 M143.9,94.5L143.9,94.5c0-0.8-0.6-1.4-1.6-1.4c-1,0-1.6,0.6-1.6,1.3v0c0,0.8,0.6,1.4,1.6,1.4
		C143.3,95.9,143.9,95.3,143.9,94.5"/>
	<path class="st1" d="M156.8,95.9l3.1-2.5c1.1-0.9,1.6-1.5,1.6-2.2c0-0.8-0.5-1.2-1.2-1.2c-0.7,0-1.2,0.4-1.9,1.2l-1.4-1.1
		c0.9-1.2,1.8-1.9,3.4-1.9c1.9,0,3.2,1.1,3.2,2.9v0c0,1.5-0.8,2.3-2.4,3.6l-1.5,1.2h4v1.8h-6.8V95.9z"/>
	<polygon class="st1" points="169.6,90 165.3,90 165.3,88.2 171.9,88.2 171.9,89.8 167.8,97.5 165.5,97.5 	"/>
	<path class="st1" d="M36,50.7L36,50.7c0-1.1,0.5-1.8,1.5-2.3c-0.7-0.4-1.2-1-1.2-2v0c0-1.4,1.3-2.5,3.2-2.5s3.2,1.1,3.2,2.5v0
		c0,1-0.5,1.6-1.2,2c0.9,0.5,1.5,1.1,1.5,2.2v0c0,1.7-1.5,2.7-3.6,2.7C37.5,53.4,36,52.3,36,50.7 M41.2,50.5L41.2,50.5
		c0-0.7-0.7-1.2-1.6-1.2c-0.9,0-1.6,0.4-1.6,1.1v0c0,0.6,0.6,1.1,1.6,1.1C40.6,51.7,41.2,51.2,41.2,50.5 M40.9,46.6L40.9,46.6
		c0-0.6-0.5-1.1-1.3-1.1c-0.8,0-1.3,0.5-1.3,1.1v0c0,0.6,0.5,1.1,1.3,1.1C40.4,47.8,40.9,47.3,40.9,46.6"/>
	<path class="st1" d="M65.2,49.4c-0.5,0.4-1.1,0.6-1.9,0.6c-2,0-3.3-1.1-3.3-3v0c0-1.9,1.4-3.2,3.5-3.2c1.2,0,2,0.3,2.7,1
		c0.7,0.7,1.1,1.7,1.1,3.5v0c0,3-1.4,5-4,5c-1.3,0-2.3-0.4-3-1.1l1.1-1.5c0.7,0.5,1.2,0.8,2,0.8C64.7,51.5,65.1,50.2,65.2,49.4
		 M65.2,47L65.2,47c0-0.8-0.6-1.4-1.6-1.4c-1,0-1.6,0.6-1.6,1.4v0c0,0.8,0.6,1.4,1.6,1.4C64.6,48.4,65.2,47.8,65.2,47"/>
	<polygon class="st1" points="84,46 82.3,46.4 81.9,44.7 84.6,43.9 86,43.9 86,53.2 84,53.2 	"/>
	<path class="st1" d="M87.9,48.6L87.9,48.6c0-2.7,1.7-4.8,4.1-4.8c2.4,0,4.1,2.1,4.1,4.8v0c0,2.7-1.6,4.8-4.1,4.8
		C89.5,53.4,87.9,51.3,87.9,48.6 M94,48.6L94,48.6c0-1.7-0.8-3-2-3c-1.2,0-2,1.2-2,2.9v0c0,1.7,0.8,2.9,2,2.9
		C93.2,51.6,94,50.3,94,48.6"/>
	<polygon class="st1" points="35.2,68.1 33.6,68.5 33.2,66.8 35.8,66 37.2,66 37.2,75.3 35.2,75.3 	"/>
	<path class="st1" d="M39,74.1l1.2-1.5c0.7,0.6,1.4,1,2.2,1c1,0,1.5-0.5,1.5-1.3v0c0-0.8-0.7-1.3-1.6-1.3c-0.6,0-1.1,0.2-1.5,0.3
		l-1.2-0.8l0.3-4.6h5.7v1.8h-3.9l-0.1,1.6c0.4-0.1,0.7-0.2,1.2-0.2c1.8,0,3.2,0.9,3.2,3v0c0,2-1.4,3.2-3.5,3.2
		C41,75.5,39.9,75,39,74.1"/>
	<polygon class="st1" points="59,68.1 57.4,68.5 57,66.8 59.7,66 61,66 61,75.3 59,75.3 	"/>
	<path class="st1" d="M64.1,74.5C63.4,73.8,63,72.9,63,71v0c0-2.8,1.3-5,4.1-5c1.3,0,2.1,0.4,2.9,1l-1.1,1.6
		c-0.6-0.5-1.1-0.7-1.9-0.7c-1.4,0-1.8,1.3-1.9,2.1c0.5-0.3,1.1-0.6,1.9-0.6c1.8,0,3.2,1,3.2,2.9v0c0,1.9-1.5,3.2-3.5,3.2
		C65.5,75.5,64.7,75.2,64.1,74.5 M68.2,72.4L68.2,72.4c0-0.8-0.6-1.4-1.6-1.4c-1,0-1.6,0.6-1.6,1.3v0c0,0.8,0.6,1.4,1.6,1.4
		C67.7,73.8,68.2,73.2,68.2,72.4"/>
	<polygon class="st1" points="84.6,68.1 83,68.5 82.6,66.8 85.3,66 86.6,66 86.6,75.3 84.6,75.3 	"/>
	<polygon class="st1" points="93.1,67.9 88.8,67.9 88.8,66.1 95.4,66.1 95.4,67.6 91.3,75.3 89,75.3 	"/>
	<path class="st1" d="M32,95.9l3.1-2.5c1.1-0.9,1.6-1.5,1.6-2.2c0-0.8-0.5-1.2-1.2-1.2c-0.7,0-1.2,0.4-1.9,1.2L32.2,90
		c0.9-1.2,1.8-1.9,3.4-1.9c1.9,0,3.2,1.1,3.2,2.9v0c0,1.5-0.8,2.3-2.4,3.6l-1.5,1.2h4v1.8H32V95.9z"/>
	<path class="st1" d="M40.3,95.9l3.1-2.5c1.1-0.9,1.6-1.5,1.6-2.2c0-0.8-0.5-1.2-1.2-1.2c-0.7,0-1.2,0.4-1.9,1.2L40.4,90
		c0.9-1.2,1.8-1.9,3.4-1.9c1.9,0,3.2,1.1,3.2,2.9v0c0,1.5-0.8,2.3-2.4,3.6l-1.5,1.2h4v1.8h-6.8V95.9z"/>
	<polygon class="st1" points="14.9,45.7 10.5,45.7 10.5,44 17.2,44 17.2,45.5 13,53.2 10.7,53.2 	"/>
	<polygon class="st1" points="8.7,68.1 7.1,68.5 6.7,66.8 9.3,66 10.7,66 10.7,75.3 8.7,75.3 	"/>
	<path class="st1" d="M17.2,73.4h-4.5l-0.3-1.4l5.1-5.9h1.7v5.7h1.2v1.6h-1.2v2h-1.9V73.4z M17.2,71.7v-2.9l-2.5,2.9H17.2z"/>
	<path class="st1" d="M7.5,95.9l3.1-2.5c1.1-0.9,1.6-1.5,1.6-2.2c0-0.8-0.5-1.2-1.2-1.2c-0.7,0-1.2,0.4-1.9,1.2L7.6,90
		c0.9-1.2,1.8-1.9,3.4-1.9c1.9,0,3.2,1.1,3.2,2.9v0c0,1.5-0.8,2.3-2.4,3.6l-1.5,1.2h4v1.8H7.5V95.9z"/>
	<polygon class="st1" points="17.4,90.2 15.8,90.6 15.4,89 18,88.2 19.4,88.2 19.4,97.5 17.4,97.5 	"/>
	<path class="st1" d="M31.8,118l3.1-2.5c1.1-0.9,1.6-1.5,1.6-2.2c0-0.8-0.5-1.2-1.2-1.2c-0.7,0-1.2,0.4-1.9,1.2l-1.4-1.1
		c0.9-1.2,1.8-1.9,3.4-1.9c1.9,0,3.2,1.1,3.2,2.9v0c0,1.5-0.8,2.3-2.4,3.6l-1.5,1.2h4v1.8h-6.8V118z"/>
	<path class="st1" d="M45.2,115.8c-0.5,0.4-1.1,0.6-1.9,0.6c-2,0-3.3-1.1-3.3-3v0c0-1.9,1.4-3.2,3.5-3.2c1.2,0,2,0.3,2.7,1
		c0.7,0.7,1.1,1.7,1.1,3.5v0c0,3-1.4,5-4,5c-1.3,0-2.3-0.4-3-1.1l1.1-1.5c0.7,0.5,1.2,0.8,2,0.8C44.8,117.9,45.2,116.6,45.2,115.8
		 M45.3,113.4L45.3,113.4c0-0.8-0.6-1.4-1.6-1.4c-1,0-1.6,0.6-1.6,1.4v0c0,0.8,0.6,1.4,1.6,1.4S45.3,114.2,45.3,113.4"/>
	<path class="st1" d="M6.1,118l3.1-2.5c1.1-0.9,1.6-1.5,1.6-2.2c0-0.8-0.5-1.2-1.2-1.2c-0.7,0-1.2,0.4-1.9,1.2l-1.4-1.1
		c0.9-1.2,1.8-1.9,3.4-1.9c1.9,0,3.2,1.1,3.2,2.9v0c0,1.5-0.8,2.3-2.4,3.6l-1.5,1.2h4v1.8H6.1V118z"/>
	<path class="st1" d="M14.3,117L14.3,117c0-1.1,0.5-1.8,1.5-2.3c-0.7-0.4-1.2-1-1.2-2v0c0-1.4,1.3-2.5,3.2-2.5s3.2,1.1,3.2,2.5v0
		c0,1-0.5,1.6-1.2,2c0.9,0.5,1.5,1.1,1.5,2.2v0c0,1.7-1.5,2.7-3.6,2.7C15.8,119.7,14.3,118.7,14.3,117 M19.4,116.9L19.4,116.9
		c0-0.7-0.7-1.2-1.6-1.2c-0.9,0-1.6,0.4-1.6,1.1v0c0,0.6,0.6,1.1,1.6,1.1C18.8,118,19.4,117.5,19.4,116.9 M19.1,113L19.1,113
		c0-0.6-0.5-1.1-1.3-1.1c-0.8,0-1.3,0.5-1.3,1.1v0c0,0.6,0.5,1.1,1.3,1.1C18.6,114.1,19.1,113.6,19.1,113"/>
	<path class="st1" d="M56.1,95.9l3.1-2.5c1.1-0.9,1.6-1.5,1.6-2.2c0-0.8-0.5-1.2-1.2-1.2c-0.7,0-1.2,0.4-1.9,1.2L56.2,90
		c0.9-1.2,1.8-1.9,3.4-1.9c1.9,0,3.2,1.1,3.2,2.9v0c0,1.5-0.8,2.3-2.4,3.6l-1.5,1.2h4v1.8h-6.8V95.9z"/>
	<path class="st1" d="M64.2,96l1.4-1.3c0.6,0.7,1.3,1.1,2.2,1.1c0.8,0,1.3-0.4,1.3-1.1v0c0-0.8-0.7-1.2-1.8-1.2h-0.8l-0.3-1.3
		l2.2-2.2h-3.6v-1.7H71v1.5L68.6,92c1.3,0.2,2.5,0.9,2.5,2.6v0c0,1.7-1.3,3-3.3,3C66.1,97.6,65,97,64.2,96"/>
	<polygon class="st1" points="110.8,46 109.2,46.4 108.8,44.7 111.4,43.9 112.8,43.9 112.8,53.2 110.8,53.2 	"/>
	<polygon class="st1" points="116.4,46 114.7,46.4 114.3,44.7 117,43.9 118.4,43.9 118.4,53.2 116.4,53.2 	"/>
	<polygon class="st1" points="109.1,68.1 107.5,68.5 107.1,66.8 109.7,66 111.1,66 111.1,75.3 109.1,75.3 	"/>
	<path class="st1" d="M112.9,72.8L112.9,72.8c0-1.1,0.5-1.8,1.5-2.3c-0.7-0.4-1.2-1-1.2-2v0c0-1.4,1.3-2.5,3.2-2.5s3.2,1.1,3.2,2.5
		v0c0,1-0.5,1.6-1.2,2c0.9,0.5,1.5,1.1,1.5,2.2v0c0,1.7-1.5,2.7-3.6,2.7C114.4,75.5,112.9,74.4,112.9,72.8 M118.1,72.7L118.1,72.7
		c0-0.7-0.7-1.2-1.6-1.2c-0.9,0-1.6,0.4-1.6,1.1v0c0,0.6,0.6,1.1,1.6,1.1C117.5,73.8,118.1,73.3,118.1,72.7 M117.8,68.8L117.8,68.8
		c0-0.6-0.5-1.1-1.3-1.1c-0.8,0-1.3,0.5-1.3,1.1v0c0,0.6,0.5,1.1,1.3,1.1C117.3,69.9,117.8,69.4,117.8,68.8"/>
	<path class="st1" d="M81,95.9l3.1-2.5c1.1-0.9,1.6-1.5,1.6-2.2c0-0.8-0.5-1.2-1.2-1.2c-0.7,0-1.2,0.4-1.9,1.2L81.1,90
		c0.9-1.2,1.8-1.9,3.4-1.9c1.9,0,3.2,1.1,3.2,2.9v0c0,1.5-0.8,2.3-2.4,3.6l-1.5,1.2h4v1.8H81V95.9z"/>
	<path class="st1" d="M93.8,95.5h-4.5L89,94l5.1-5.9h1.7v5.7H97v1.6h-1.2v2h-1.9V95.5z M93.8,93.8v-2.9l-2.5,2.9H93.8z"/>
	<polygon class="st1" points="9.1,3.6 11.3,3.6 13.7,7.5 16.1,3.6 18.3,3.6 18.3,12.9 16.3,12.9 16.3,6.8 13.7,10.8 13.7,10.8 
		11.1,6.9 11.1,12.9 9.1,12.9 	"/>
	<polygon class="st1" points="31.8,5.5 29,5.5 29,3.6 36.6,3.6 36.6,5.5 33.8,5.5 33.8,12.9 31.8,12.9 	"/>
	<path class="st1" d="M38,8.9V3.6h2v5.2c0,1.5,0.8,2.3,2,2.3c1.2,0,2-0.8,2-2.2V3.6h2v5.2c0,2.8-1.6,4.2-4.1,4.2S38,11.6,38,8.9"/>
	<polygon class="st1" points="56.3,3.6 58.4,3.6 60.3,9.9 62.4,3.6 64.2,3.6 66.2,9.9 68.1,3.6 70.3,3.6 67.1,12.9 65.3,12.9 
		63.3,6.9 61.2,12.9 59.4,12.9 	"/>
	<polygon class="st1" points="83.1,5.5 80.3,5.5 80.3,3.6 87.9,3.6 87.9,5.5 85.1,5.5 85.1,12.9 83.1,12.9 	"/>
	<polygon class="st1" points="89.5,3.6 91.5,3.6 91.5,7.3 95.3,7.3 95.3,3.6 97.3,3.6 97.3,12.9 95.3,12.9 95.3,9.2 91.5,9.2 
		91.5,12.9 89.5,12.9 	"/>
	<polygon class="st1" points="109.9,3.6 117,3.6 117,5.5 112,5.5 112,7.4 116.4,7.4 116.4,9.3 112,9.3 112,12.9 109.9,12.9 	"/>
	<path class="st1" d="M128.7,11.5l1.2-1.4c0.8,0.7,1.7,1.1,2.8,1.1c0.8,0,1.3-0.3,1.3-0.9v0c0-0.5-0.3-0.8-1.9-1.2
		c-1.9-0.5-3.1-1-3.1-2.8v0c0-1.7,1.3-2.8,3.2-2.8c1.3,0,2.5,0.4,3.4,1.2l-1.1,1.5c-0.8-0.6-1.6-0.9-2.4-0.9c-0.8,0-1.2,0.4-1.2,0.8
		v0c0,0.6,0.4,0.8,2,1.2c1.9,0.5,2.9,1.2,2.9,2.8v0c0,1.8-1.4,2.9-3.4,2.9C131.3,13,129.8,12.5,128.7,11.5"/>
	<path class="st1" d="M141,3.6h1.9l4,9.3h-2.1l-0.8-2.1h-3.9l-0.8,2.1H137L141,3.6z M143.1,9l-1.2-3l-1.2,3H143.1z"/>
	<path class="st1" d="M155.7,11.5l1.2-1.4c0.8,0.7,1.7,1.1,2.8,1.1c0.8,0,1.3-0.3,1.3-0.9v0c0-0.5-0.3-0.8-1.9-1.2
		c-1.9-0.5-3.1-1-3.1-2.8v0c0-1.7,1.3-2.8,3.2-2.8c1.3,0,2.5,0.4,3.4,1.2l-1.1,1.5c-0.8-0.6-1.6-0.9-2.4-0.9c-0.8,0-1.2,0.4-1.2,0.8
		v0c0,0.6,0.4,0.8,2,1.2c1.9,0.5,2.9,1.2,2.9,2.8v0c0,1.8-1.4,2.9-3.4,2.9C158.2,13,156.8,12.5,155.7,11.5"/>
	<path class="st1" d="M164.6,8.9V3.6h2v5.2c0,1.5,0.8,2.3,2,2.3c1.2,0,2-0.8,2-2.2V3.6h2v5.2c0,2.8-1.6,4.2-4.1,4.2
		S164.6,11.6,164.6,8.9"/>
</g>
</svg>
