<svg id="レイヤー_4" data-name="レイヤー 4" xmlns="http://www.w3.org/2000/svg" viewBox="0 0 240.14 142"><defs><style>.cls-1{fill:#b5b5b6;}.cls-2,.cls-3,.cls-5,.cls-6{fill:none;stroke-miterlimit:10;}.cls-2,.cls-3{stroke:#231815;}.cls-2{stroke-width:0.6px;}.cls-3{stroke-width:1.51px;}.cls-4{fill:#231815;}.cls-5{stroke:#fff;stroke-width:0.52px;}.cls-6{stroke:#b5b5b6;stroke-width:1.84px;}</style></defs><title>アートボード 1</title><path class="cls-1" d="M150.88,42.5l-3.41,4.67.22,0-.25,0,0,0-30.63-1.84L130.17,26.7l30.68,2.13-3.72,5.1,4.11.26L170.82,21s-56.62.5-63.92,1.94c-3.48.69-7,2.16-8.41,4.15l-1.22,1.68,3.9.25,1.67-2.29,13.69-2.29,11.25.81-14.73,20L90.3,43.67l7.18-9.57-3.91-.25L85.72,44.62s-2.25,3.3,3.11,3.63l55,3.52A8.31,8.31,0,0,0,151.24,48L155,42.77Z"/><path class="cls-2" d="M236.35,19.25,112.28,22.17s-9.78.34-13.58,4.57a22.76,22.76,0,0,0-1.43,2l3.9.25,1.67-2.29,13.69-2.29,11.25.81-14.73,20L90.3,43.67l7.18-9.57-3.91-.25L85.72,44.62s-2.25,3.3,3.11,3.63l55,3.52A8.31,8.31,0,0,0,151.24,48L155,42.77l-4.12-.27-3.41,4.67-30.63-1.84L130.17,26.7l30.68,2.13-3.72,5.1,4.11.26L170.82,21"/><line class="cls-2" x1="222.84" y1="8.98" x2="217.37" y2="19.77"/><line class="cls-2" x1="218.86" y1="9.27" x2="213.43" y2="19.86"/><line class="cls-2" x1="214.93" y1="9.36" x2="209.5" y2="19.95"/><line class="cls-2" x1="211" y1="9.44" x2="205.56" y2="20.03"/><line class="cls-2" x1="207.06" y1="9.53" x2="201.63" y2="20.12"/><line class="cls-2" x1="203.12" y1="9.62" x2="197.69" y2="20.21"/><line class="cls-2" x1="199.19" y1="9.71" x2="193.75" y2="20.3"/><line class="cls-2" x1="195.25" y1="9.8" x2="189.82" y2="20.39"/><line class="cls-2" x1="191.31" y1="9.88" x2="185.88" y2="20.48"/><line class="cls-2" x1="187.38" y1="9.97" x2="181.94" y2="20.56"/><line class="cls-2" x1="183.44" y1="10.06" x2="178.01" y2="20.65"/><line class="cls-2" x1="179.51" y1="10.15" x2="174.07" y2="20.74"/><line class="cls-2" x1="175.57" y1="10.24" x2="170.14" y2="20.83"/><line class="cls-2" x1="167.7" y1="10.41" x2="162.26" y2="21.01"/><line class="cls-2" x1="136.36" y1="11.35" x2="130.51" y2="21.8"/><line class="cls-2" x1="132.46" y1="11.37" x2="126.62" y2="21.8"/><line class="cls-2" x1="128.56" y1="11.39" x2="122.6" y2="22.03"/><line class="cls-2" x1="124.66" y1="11.4" x2="118.64" y2="22.17"/><line class="cls-2" x1="120.44" y1="11.4" x2="115.07" y2="22.2"/><line class="cls-2" x1="115.26" y1="11.87" x2="111.87" y2="22.2"/><line class="cls-2" x1="110.21" y1="12.61" x2="108.81" y2="22.69"/><line class="cls-2" x1="104.91" y1="13.41" x2="106.15" y2="23.28"/><line class="cls-2" x1="166.2" y1="20.92" x2="171.63" y2="10.33"/><path class="cls-2" d="M73,35.23A75,75,0,0,0,50.18,54l-23,7.45"/><line class="cls-2" x1="43.16" y1="56.27" x2="31.36" y2="55.51"/><line class="cls-2" x1="36.49" y1="58.39" x2="29.27" y2="57.93"/><line class="cls-2" x1="51.65" y1="52.07" x2="35.65" y2="50.05"/><line class="cls-2" x1="53.57" y1="49.88" x2="38.39" y2="47.13"/><line class="cls-2" x1="55.98" y1="47.65" x2="41.22" y2="44.22"/><line class="cls-2" x1="58.4" y1="45.41" x2="44.06" y2="41.57"/><line class="cls-2" x1="60.72" y1="43.31" x2="47.71" y2="38.66"/><line class="cls-2" x1="63.66" y1="41.15" x2="50.76" y2="36.2"/><line class="cls-2" x1="66.86" y1="39.05" x2="54.9" y2="33.66"/><line class="cls-2" x1="69.83" y1="36.9" x2="58.2" y2="31.28"/><line class="cls-2" x1="49.44" y1="54.25" x2="33.38" y2="52.74"/><path class="cls-3" d="M25.73,102.37l99.55,10.83c20.61,2.52,45.68-3.66,57.79-20.32L235,21.47c6.39-8.8-1.33-12.59-11.17-12.26L124,11.58C91.36,13,55.38,24.63,32.5,54.07L10.82,83.9C3.26,94.3,11.15,100.73,25.73,102.37Z"/><path class="cls-4" d="M107.68,81.05v0a2.44,2.44,0,0,1,2.52-2.44,2.72,2.72,0,0,1,1.9.68l-.76.92a1.65,1.65,0,0,0-1.13-.44A1.23,1.23,0,0,0,109,81v0a1.24,1.24,0,0,0,1.27,1.3,1.36,1.36,0,0,0,.75-.19v-.57h-.92v-1h2.15v2.1a3.14,3.14,0,0,1-2,.73A2.41,2.41,0,0,1,107.68,81.05Z"/><path class="cls-4" d="M112.8,82.34v0c0-.75.57-1.13,1.42-1.13a2.66,2.66,0,0,1,.88.14v-.06c0-.39-.24-.6-.73-.6a2.7,2.7,0,0,0-1,.2l-.26-.89a3.54,3.54,0,0,1,1.46-.28,1.86,1.86,0,0,1,1.38.44,1.49,1.49,0,0,1,.39,1.15v2.09h-1.25V83a1.4,1.4,0,0,1-1.07.47A1.11,1.11,0,0,1,112.8,82.34Zm2.31-.28V81.9a1.31,1.31,0,0,0-.5-.1c-.37,0-.59.18-.59.45h0a.4.4,0,0,0,.45.4A.59.59,0,0,0,115.11,82.06Z"/><path class="cls-4" d="M117,78.49h1.27v4.89H117Z"/><path class="cls-4" d="M119,78.49h1.27v4.89H119Z"/><path class="cls-4" d="M120.88,81.58h0a1.82,1.82,0,0,1,1.83-1.9,1.78,1.78,0,0,1,1.82,2,2.53,2.53,0,0,1,0,.27H122.1a.75.75,0,0,0,.78.59,1.07,1.07,0,0,0,.81-.37l.7.59a1.9,1.9,0,0,1-1.57.73A1.82,1.82,0,0,1,120.88,81.58Zm2.47-.31a.65.65,0,0,0-.64-.66c-.34,0-.56.25-.63.66Z"/><path class="cls-4" d="M125.08,79.75h1.27v.73a1.12,1.12,0,0,1,1.15-.79V81h-.11c-.66,0-1,.38-1,1.21v1.14h-1.27Z"/><path class="cls-4" d="M130.42,79.75h1.3l-1.32,3.54c-.32.85-.66,1.18-1.38,1.18a2.19,2.19,0,0,1-1.16-.32l.39-.89a1.28,1.28,0,0,0,.55.2.33.33,0,0,0,.3-.15l-1.42-3.56H129l.72,2.19Z"/><path class="cls-4" d="M111,31.17a1.11,1.11,0,1,0-1.11-1.11A1.11,1.11,0,0,0,111,31.17Z"/><polygon class="cls-4" points="114.18 40.51 112.29 31.98 109.64 31.98 107.75 40.5 109.06 40.5 108.81 42.07 110.06 42.07 110.45 40.5 111.49 40.51 111.88 42.07 113.12 42.07 112.87 40.51 114.18 40.51"/><circle class="cls-4" cx="103.77" cy="30.06" r="1.11"/><polygon class="cls-4" points="101.22 37.98 101.9 37.98 101.82 42.07 103.13 42.07 103.52 37.98 104.02 37.98 104.41 42.07 105.72 42.07 105.65 37.98 106.32 37.98 106.32 31.98 101.22 31.98 101.22 37.98"/><path class="cls-4" d="M136.11,35.84a.82.82,0,0,0,.82-.81.82.82,0,0,0-.82-.82.82.82,0,0,0-.81.82A.81.81,0,0,0,136.11,35.84Z"/><path class="cls-4" d="M132.73,33V43.82h11V33Zm3.58,7.51.27,2.57h-.94l.27-2.57Zm4.22,0,.26,2.57h-.93l.26-2.57ZM143,43.11h-1.27l-.08-2.57h.47V36.36h-3.57v4.18H139l-.08,2.57h-1.42l-.09-2.57h.47V36.36h-3.56v4.18h.47l-.08,2.57h-1.27V33.74H143Z"/><polygon class="cls-4" points="135.82 32.7 137.01 32.7 137.01 31.51 138.15 31.51 136.42 28.57 134.69 31.51 135.82 31.51 135.82 32.7"/><polygon class="cls-4" points="140.02 32.84 141.75 29.91 140.62 29.91 140.62 28.71 139.42 28.71 139.42 29.91 138.29 29.91 140.02 32.84"/><circle class="cls-4" cx="140.32" cy="35.03" r="0.82"/><path class="cls-1" d="M11.94,22.57A9.91,9.91,0,1,1,2,32.48a9.91,9.91,0,0,1,9.91-9.91m0-1.43A11.34,11.34,0,1,0,23.28,32.48,11.34,11.34,0,0,0,11.94,21.14Z"/><rect class="cls-4" x="4.52" y="28.55" width="14.85" height="8.86"/><polygon class="cls-4" points="16.08 29.85 7.8 29.85 8.86 26.69 15.02 26.69 16.08 29.85"/><circle class="cls-5" cx="11.94" cy="32.7" r="3.28"/><line class="cls-6" x1="4.43" y1="25.4" x2="19.68" y2="40.65"/></svg>