<svg id="レイヤー_3" data-name="レイヤー 3" xmlns="http://www.w3.org/2000/svg" viewBox="0 0 240.14 142"><defs><style>.cls-1,.cls-3,.cls-6,.cls-7{fill:none;}.cls-1,.cls-2,.cls-3{stroke:#231815;}.cls-1,.cls-2,.cls-3,.cls-6,.cls-7{stroke-miterlimit:10;}.cls-1,.cls-2{stroke-width:0.6px;}.cls-2,.cls-5{fill:#b5b5b6;}.cls-3{stroke-width:1.51px;}.cls-4{fill:#231815;}.cls-6{stroke:#fff;stroke-width:0.52px;}.cls-7{stroke:#b5b5b6;stroke-width:1.84px;}</style></defs><title>アートボード 1</title><polyline class="cls-1" points="81.14 108.41 78.69 96.45 43.88 92.7"/><polyline class="cls-1" points="15.23 100.37 30.47 90.42 82.04 19.45"/><line class="cls-1" x1="80.26" y1="104.12" x2="76.93" y2="108.25"/><line class="cls-1" x1="79.48" y1="100.3" x2="73.32" y2="107.86"/><line class="cls-1" x1="78.77" y1="96.41" x2="69.7" y2="107.47"/><line class="cls-1" x1="75.15" y1="96.02" x2="66.09" y2="107.08"/><line class="cls-1" x1="71.54" y1="95.63" x2="62.47" y2="106.69"/><line class="cls-1" x1="67.92" y1="95.24" x2="58.86" y2="106.3"/><line class="cls-1" x1="64.3" y1="94.84" x2="55.24" y2="105.9"/><line class="cls-1" x1="60.69" y1="94.45" x2="51.63" y2="105.51"/><line class="cls-1" x1="57.08" y1="94.06" x2="48.01" y2="105.12"/><line class="cls-1" x1="53.46" y1="93.67" x2="44.4" y2="104.73"/><line class="cls-1" x1="49.85" y1="93.28" x2="40.78" y2="104.34"/><line class="cls-1" x1="46.23" y1="92.89" x2="37.17" y2="103.95"/><path class="cls-1" d="M68.85,37.6A74.83,74.83,0,0,0,49.24,55.2L33,77.52c-5.49,7.57-5.39,11.1-2.54,12.9"/><line class="cls-1" x1="29.42" y1="89.68" x2="11.67" y2="97.92"/><line class="cls-1" x1="28.66" y1="88.46" x2="8.96" y2="95.1"/><line class="cls-1" x1="28.35" y1="87.19" x2="7.9" y2="91.71"/><line class="cls-1" x1="28.82" y1="85.56" x2="7.9" y2="88.64"/><line class="cls-1" x1="29.29" y1="83.82" x2="9.51" y2="85.93"/><line class="cls-1" x1="30.12" y1="82.04" x2="12.2" y2="82.78"/><line class="cls-1" x1="30.95" y1="80.32" x2="13.53" y2="80.17"/><line class="cls-1" x1="32.32" y1="78.5" x2="15.44" y2="77.42"/><line class="cls-1" x1="34.07" y1="76.06" x2="17.21" y2="74.98"/><line class="cls-1" x1="35.84" y1="73.63" x2="18.98" y2="72.55"/><line class="cls-1" x1="37.61" y1="71.2" x2="20.75" y2="70.12"/><line class="cls-1" x1="39.38" y1="68.76" x2="22.52" y2="67.68"/><line class="cls-1" x1="41.15" y1="66.33" x2="24.28" y2="65.25"/><line class="cls-1" x1="42.92" y1="63.9" x2="26.05" y2="62.82"/><line class="cls-1" x1="44.68" y1="61.47" x2="27.82" y2="60.39"/><line class="cls-1" x1="46.45" y1="59.03" x2="29.59" y2="57.95"/><line class="cls-1" x1="48.22" y1="56.6" x2="31.36" y2="55.52"/><line class="cls-1" x1="51.79" y1="52.09" x2="35.64" y2="50.05"/><line class="cls-1" x1="53.57" y1="49.88" x2="38.38" y2="47.14"/><line class="cls-1" x1="55.87" y1="47.63" x2="41.21" y2="44.22"/><line class="cls-1" x1="58.39" y1="45.41" x2="44.05" y2="41.58"/><line class="cls-1" x1="60.72" y1="43.31" x2="47.71" y2="38.67"/><line class="cls-1" x1="63.46" y1="41.08" x2="50.76" y2="36.21"/><line class="cls-1" x1="49.81" y1="54.29" x2="33.38" y2="52.75"/><path class="cls-2" d="M150.87,43.2l-3.41,4.67L116.83,46,130.17,27.4l30.68,2.13-3.73,5.1,3.68.24L166,27.74c1.05-1.45-.28-2.21-2.5-2.35,0,0-34.09-2.29-45.46-2.92-5-.27-15.61-.72-19.46,4.59C96.43,30,85.79,44.6,85.79,44.6s-2.25,3.29,3.12,3.62l55,3.53a8.33,8.33,0,0,0,7.42-3.82l3.26-4.49Z"/><path class="cls-3" d="M110.73,111.62l14.54,1.59c20.62,2.51,45.69-3.66,57.8-20.32L235,21.47c6.4-8.8-1.32-12.58-11.16-12.26L124,11.58C91.35,13,55.37,24.64,32.49,54.08L10.82,83.9c-7.56,10.41.32,16.84,14.9,18.48l85,9.24"/><path class="cls-4" d="M107.68,78.43v0A2.43,2.43,0,0,1,110.2,76a2.73,2.73,0,0,1,1.9.67l-.77.93a1.63,1.63,0,0,0-1.13-.44,1.23,1.23,0,0,0-1.2,1.27v0a1.24,1.24,0,0,0,1.28,1.3,1.28,1.28,0,0,0,.75-.19V79h-.92V78h2.15v2.1a3.11,3.11,0,0,1-2,.73A2.4,2.4,0,0,1,107.68,78.43Z"/><path class="cls-4" d="M112.8,79.72h0c0-.76.57-1.14,1.42-1.14a2.64,2.64,0,0,1,.87.14v-.06c0-.38-.23-.6-.72-.6a2.8,2.8,0,0,0-1,.2l-.26-.89a3.81,3.81,0,0,1,1.47-.28,1.9,1.9,0,0,1,1.38.44,1.55,1.55,0,0,1,.39,1.16v2.08h-1.26v-.38a1.39,1.39,0,0,1-1.07.46A1.1,1.1,0,0,1,112.8,79.72Zm2.3-.27v-.17a1.43,1.43,0,0,0-.5-.1c-.37,0-.58.18-.58.45v0a.4.4,0,0,0,.45.39A.58.58,0,0,0,115.1,79.45Z"/><path class="cls-4" d="M117,75.87h1.26v4.89H117Z"/><path class="cls-4" d="M119,75.87h1.27v4.89H119Z"/><path class="cls-4" d="M120.88,79h0a1.81,1.81,0,0,1,1.82-1.89,1.78,1.78,0,0,1,1.83,2,2.35,2.35,0,0,1,0,.26H122.1a.74.74,0,0,0,.78.59,1.08,1.08,0,0,0,.8-.36l.71.58a1.92,1.92,0,0,1-1.57.74A1.83,1.83,0,0,1,120.88,79Zm2.46-.31a.66.66,0,0,0-.64-.66c-.33,0-.56.26-.62.66Z"/><path class="cls-4" d="M125.08,77.14h1.27v.72a1.12,1.12,0,0,1,1.14-.79v1.34h-.1c-.67,0-1,.39-1,1.22v1.13h-1.27Z"/><path class="cls-4" d="M130.41,77.14h1.31l-1.33,3.53c-.31.85-.65,1.18-1.38,1.18a2.3,2.3,0,0,1-1.16-.31l.39-.9a1.19,1.19,0,0,0,.56.2.32.32,0,0,0,.3-.15l-1.42-3.55H129l.72,2.18Z"/><path class="cls-4" d="M136.11,37.25a.82.82,0,0,0,0-1.64.82.82,0,1,0,0,1.64Z"/><path class="cls-4" d="M132.73,34.43v10.8h11V34.43ZM136.31,42l.27,2.56h-.94l.27-2.56Zm4.21,0,.27,2.56h-.94l.27-2.56ZM143,44.51h-1.27L141.63,42h.47V37.76h-3.56V42H139l-.08,2.56H137.5L137.42,42h.47V37.76h-3.56V42h.47l-.09,2.56h-1.27V35.14H143Z"/><polygon class="cls-4" points="135.81 34.1 137.01 34.1 137.01 32.91 138.14 32.91 136.41 29.98 134.68 32.91 135.81 32.91 135.81 34.1"/><polygon class="cls-4" points="140.02 34.24 141.75 31.31 140.62 31.31 140.62 30.11 139.42 30.11 139.42 31.31 138.28 31.31 140.02 34.24"/><circle class="cls-4" cx="140.32" cy="36.43" r="0.82"/><path class="cls-5" d="M11.94,21.48A9.91,9.91,0,1,1,2,31.39a9.92,9.92,0,0,1,9.91-9.91m0-1.43A11.34,11.34,0,1,0,23.28,31.39,11.34,11.34,0,0,0,11.94,20.05Z"/><rect class="cls-4" x="4.51" y="27.46" width="14.85" height="8.86"/><polygon class="cls-4" points="16.08 28.76 7.79 28.76 8.86 25.6 15.02 25.6 16.08 28.76"/><circle class="cls-6" cx="11.94" cy="31.61" r="3.28"/><line class="cls-7" x1="4.43" y1="24.31" x2="19.67" y2="39.56"/></svg>