<?xml version="1.0" encoding="utf-8"?>
<!-- Generator: Adobe Illustrator 26.2.1, SVG Export Plug-In . SVG Version: 6.00 Build 0)  -->
<svg version="1.1" id="レイヤー_3" xmlns="http://www.w3.org/2000/svg" xmlns:xlink="http://www.w3.org/1999/xlink" x="0px"
	 y="0px" viewBox="0 0 181.4 148.4" style="enable-background:new 0 0 181.4 148.4;" xml:space="preserve">
<style type="text/css">
	.st0{fill:#B4B4B5;}
	.st1{fill:#231815;}
</style>
<g>
	<rect x="4.3" y="62.3" class="st0" width="19.1" height="16.7"/>
	<polygon class="st0" points="104.7,18.7 104.7,38.3 79.5,38.3 79.5,122.9 174.4,122.9 174.4,18.7 	"/>
	<polygon class="st1" points="113.1,23.5 111.5,23.9 111.1,22.3 113.7,21.5 115.1,21.5 115.1,30.8 113.1,30.8 	"/>
	<path class="st1" d="M134.6,29.2l3.1-2.5c1.1-1,1.6-1.5,1.6-2.2c0-0.8-0.5-1.2-1.2-1.2c-0.7,0-1.2,0.4-1.9,1.2l-1.4-1.2
		c0.9-1.2,1.8-1.9,3.4-1.9c1.9,0,3.2,1.1,3.2,2.9v0c0,1.5-0.8,2.3-2.4,3.6l-1.5,1.2h4v1.8h-6.8V29.2z"/>
	<path class="st1" d="M14.6,51.3h-4.5l-0.3-1.4l5.1-5.9h1.7v5.7h1.2v1.7h-1.2v2h-1.9V51.3z M14.6,49.7v-2.9l-2.5,2.9H14.6z"/>
	<path class="st1" d="M34.4,52.1l1.2-1.5c0.7,0.6,1.4,1,2.2,1c1,0,1.5-0.5,1.5-1.3v0c0-0.8-0.7-1.3-1.6-1.3c-0.6,0-1.1,0.2-1.5,0.3
		L35,48.6l0.3-4.6H41v1.8h-3.9l-0.1,1.6c0.4-0.1,0.7-0.2,1.2-0.2c1.8,0,3.2,0.9,3.2,3v0c0,2-1.4,3.2-3.5,3.2
		C36.4,53.5,35.3,52.9,34.4,52.1"/>
	<path class="st1" d="M61,52.5c-0.7-0.7-1.1-1.7-1.1-3.5v0c0-2.9,1.3-5,4.1-5c1.3,0,2.1,0.4,2.9,1l-1.1,1.6
		c-0.6-0.5-1.1-0.7-1.9-0.7c-1.4,0-1.8,1.3-1.9,2.1c0.5-0.3,1.1-0.6,1.9-0.6c1.8,0,3.3,1,3.3,2.9v0c0,1.9-1.5,3.2-3.5,3.2
		C62.5,53.5,61.6,53.1,61,52.5 M65.2,50.4L65.2,50.4c0-0.8-0.6-1.4-1.6-1.4c-1,0-1.6,0.6-1.6,1.3v0c0,0.8,0.6,1.4,1.6,1.4
		C64.6,51.7,65.2,51.2,65.2,50.4"/>
	<polygon class="st1" points="10.7,68.2 9.1,68.6 8.7,66.9 11.3,66.2 12.7,66.2 12.7,75.5 10.7,75.5 	"/>
	<polygon class="st1" points="16.3,68.2 14.7,68.6 14.2,66.9 16.9,66.2 18.3,66.2 18.3,75.5 16.3,75.5 	"/>
	<polygon class="st1" points="33.5,68.2 31.9,68.6 31.4,66.9 34.1,66.2 35.5,66.2 35.5,75.5 33.5,75.5 	"/>
	<path class="st1" d="M37.3,73.9l3.1-2.5c1.2-1,1.6-1.5,1.6-2.2c0-0.8-0.5-1.2-1.2-1.2c-0.7,0-1.2,0.4-1.9,1.2L37.5,68
		c0.9-1.2,1.8-1.9,3.4-1.9c1.9,0,3.2,1.1,3.2,2.9v0c0,1.5-0.8,2.3-2.4,3.6l-1.5,1.2h4v1.8h-6.8V73.9z"/>
	<polygon class="st1" points="59,68.2 57.4,68.6 57,66.9 59.6,66.2 61,66.2 61,75.5 59,75.5 	"/>
	<path class="st1" d="M62.7,74l1.4-1.3c0.6,0.7,1.3,1.1,2.2,1.1c0.8,0,1.3-0.4,1.3-1.1v0c0-0.8-0.7-1.2-1.8-1.2H65l-0.3-1.3l2.2-2.2
		h-3.6v-1.7h6.3v1.5L67.2,70c1.3,0.2,2.5,0.9,2.5,2.6v0c0,1.7-1.3,3-3.3,3C64.7,75.6,63.5,75,62.7,74"/>
	<polygon class="st1" points="9.3,90.4 7.7,90.8 7.3,89.1 9.9,88.3 11.3,88.3 11.3,97.6 9.3,97.6 	"/>
	<path class="st1" d="M13.1,95.1L13.1,95.1c0-1.2,0.5-1.8,1.5-2.3c-0.7-0.4-1.2-1-1.2-2v0c0-1.4,1.3-2.5,3.2-2.5
		c2,0,3.3,1.1,3.3,2.5v0c0,1-0.5,1.6-1.2,2c0.9,0.5,1.5,1.1,1.5,2.2v0c0,1.7-1.5,2.7-3.6,2.7C14.7,97.8,13.1,96.7,13.1,95.1
		 M18.3,94.9L18.3,94.9c0-0.7-0.7-1.2-1.6-1.2c-0.9,0-1.6,0.4-1.6,1.1v0c0,0.6,0.6,1.2,1.6,1.2C17.7,96.1,18.3,95.6,18.3,94.9
		 M18,91L18,91c0-0.6-0.5-1.1-1.3-1.1c-0.8,0-1.3,0.5-1.3,1.1v0c0,0.6,0.5,1.1,1.3,1.1C17.5,92.1,18,91.7,18,91"/>
	<polygon class="st1" points="33.2,90.4 31.6,90.8 31.2,89.1 33.8,88.3 35.2,88.3 35.2,97.6 33.2,97.6 	"/>
	<path class="st1" d="M42.4,93.8c-0.5,0.4-1.1,0.6-1.9,0.6c-2,0-3.3-1.1-3.3-3v0c0-1.9,1.4-3.2,3.5-3.2c1.2,0,2,0.3,2.7,1
		c0.7,0.7,1.1,1.7,1.1,3.5v0c0,3-1.4,5-4,5c-1.3,0-2.3-0.4-3-1.1l1.1-1.5c0.7,0.5,1.2,0.8,2,0.8C41.9,95.9,42.3,94.6,42.4,93.8
		 M42.4,91.4L42.4,91.4c0-0.8-0.6-1.4-1.6-1.4c-1,0-1.6,0.6-1.6,1.4v0c0,0.8,0.6,1.4,1.6,1.4S42.4,92.2,42.4,91.4"/>
	<path class="st1" d="M55.3,96l3.1-2.5c1.2-1,1.6-1.5,1.6-2.2c0-0.8-0.5-1.2-1.2-1.2c-0.7,0-1.2,0.4-1.9,1.2l-1.4-1.2
		c0.9-1.2,1.8-1.9,3.4-1.9c1.9,0,3.2,1.1,3.2,2.9v0c0,1.5-0.8,2.3-2.4,3.6l-1.5,1.2h4v1.8h-6.8V96z"/>
	<path class="st1" d="M63.6,93L63.6,93c0-2.7,1.7-4.8,4.1-4.8c2.4,0,4.1,2.1,4.1,4.8v0c0,2.7-1.6,4.8-4.1,4.8
		C65.2,97.8,63.6,95.7,63.6,93 M69.7,93L69.7,93c0-1.7-0.8-3-2-3c-1.2,0-2,1.2-2,2.9v0c0,1.7,0.8,2.9,2,2.9
		C68.9,95.9,69.7,94.7,69.7,93"/>
	<path class="st1" d="M6.3,118.2l3.1-2.5c1.2-1,1.6-1.5,1.6-2.2c0-0.8-0.5-1.2-1.2-1.2c-0.7,0-1.2,0.4-1.9,1.2l-1.4-1.2
		c0.9-1.2,1.8-1.9,3.4-1.9c1.9,0,3.2,1.1,3.2,2.9v0c0,1.5-0.8,2.3-2.4,3.6L9.1,118h4v1.8H6.3V118.2z"/>
	<path class="st1" d="M14.4,118.5l1.2-1.5c0.7,0.6,1.4,1,2.2,1c1,0,1.5-0.5,1.5-1.3v0c0-0.8-0.7-1.3-1.6-1.3c-0.6,0-1.1,0.2-1.5,0.3
		l-1.2-0.8l0.3-4.6H21v1.8h-3.9l-0.1,1.6c0.4-0.1,0.7-0.2,1.2-0.2c1.8,0,3.2,0.9,3.2,3v0c0,2-1.4,3.2-3.5,3.2
		C16.4,119.9,15.3,119.4,14.4,118.5"/>
	<path class="st1" d="M161.3,29.3l1.4-1.3c0.6,0.7,1.3,1.1,2.2,1.1c0.8,0,1.3-0.4,1.3-1.1v0c0-0.8-0.7-1.2-1.8-1.2h-0.8l-0.3-1.3
		l2.2-2.2h-3.6v-1.7h6.3v1.5l-2.3,2.2c1.3,0.2,2.5,0.9,2.5,2.6v0c0,1.7-1.3,3-3.3,3C163.2,30.9,162.1,30.3,161.3,29.3"/>
	<polygon class="st1" points="159.6,46.1 158,46.5 157.6,44.8 160.2,44 161.6,44 161.6,53.3 159.6,53.3 	"/>
	<path class="st1" d="M163.5,48.7L163.5,48.7c0-2.7,1.7-4.8,4.1-4.8c2.4,0,4.1,2.1,4.1,4.8v0c0,2.7-1.7,4.8-4.1,4.8
		C165.2,53.5,163.5,51.4,163.5,48.7 M169.7,48.7L169.7,48.7c0-1.7-0.8-3-2-3c-1.2,0-2,1.2-2,2.9v0c0,1.7,0.8,2.9,2,2.9
		C168.9,51.6,169.7,50.4,169.7,48.7"/>
	<polygon class="st1" points="160.3,68.2 158.7,68.6 158.3,66.9 161,66.1 162.4,66.1 162.4,75.5 160.3,75.5 	"/>
	<polygon class="st1" points="168.8,68 164.5,68 164.5,66.2 171.1,66.2 171.1,67.7 167,75.5 164.7,75.5 	"/>
	<path class="st1" d="M156.8,96l3.1-2.5c1.1-1,1.6-1.5,1.6-2.2c0-0.8-0.5-1.2-1.2-1.2c-0.7,0-1.2,0.4-1.9,1.2l-1.4-1.2
		c0.9-1.2,1.8-1.9,3.4-1.9c1.9,0,3.2,1.1,3.2,2.9v0c0,1.5-0.8,2.3-2.4,3.6l-1.5,1.2h4v1.8h-6.8V96z"/>
	<path class="st1" d="M169.7,95.6h-4.5l-0.3-1.4l5.1-5.9h1.7V94h1.2v1.7h-1.2v2h-1.9V95.6z M169.7,94v-2.9l-2.5,2.9H169.7z"/>
	<path class="st1" d="M30.2,118.2l3.1-2.5c1.1-1,1.6-1.5,1.6-2.2c0-0.8-0.5-1.2-1.2-1.2c-0.7,0-1.2,0.4-1.9,1.2l-1.4-1.2
		c0.9-1.2,1.8-1.9,3.4-1.9c1.9,0,3.2,1.1,3.2,2.9v0c0,1.5-0.8,2.3-2.4,3.6L33,118h4v1.8h-6.8V118.2z"/>
	<path class="st1" d="M39.6,118.9c-0.7-0.7-1.1-1.7-1.1-3.5v0c0-2.9,1.3-5,4.1-5c1.3,0,2.1,0.4,2.9,1l-1.1,1.6
		c-0.6-0.5-1.1-0.7-1.9-0.7c-1.4,0-1.8,1.3-1.9,2.1c0.5-0.3,1.1-0.6,1.9-0.6c1.8,0,3.3,1,3.3,2.9v0c0,1.9-1.5,3.2-3.5,3.2
		C41,119.9,40.2,119.6,39.6,118.9 M43.7,116.8L43.7,116.8c0-0.8-0.6-1.4-1.6-1.4s-1.6,0.6-1.6,1.3v0c0,0.8,0.6,1.4,1.6,1.4
		C43.2,118.2,43.7,117.6,43.7,116.8"/>
	<path class="st1" d="M55.9,118.2l3.1-2.5c1.1-1,1.6-1.5,1.6-2.2c0-0.8-0.5-1.2-1.2-1.2c-0.7,0-1.2,0.4-1.9,1.2l-1.4-1.2
		c0.9-1.2,1.8-1.9,3.4-1.9c1.9,0,3.2,1.1,3.2,2.9v0c0,1.5-0.8,2.3-2.4,3.6l-1.5,1.2h4v1.8h-6.8V118.2z"/>
	<polygon class="st1" points="68.8,112.3 64.4,112.3 64.4,110.5 71.1,110.5 71.1,112.1 66.9,119.8 64.6,119.8 	"/>
	<path class="st1" d="M81.7,118.2l3.1-2.5c1.1-1,1.6-1.5,1.6-2.2c0-0.8-0.5-1.2-1.2-1.2c-0.7,0-1.2,0.4-1.9,1.2l-1.4-1.2
		c0.9-1.2,1.8-1.9,3.4-1.9c1.9,0,3.2,1.1,3.2,2.9v0c0,1.5-0.8,2.3-2.4,3.6l-1.5,1.2h4v1.8h-6.8V118.2z"/>
	<path class="st1" d="M89.9,117.2L89.9,117.2c0-1.2,0.5-1.8,1.5-2.3c-0.7-0.4-1.2-1-1.2-2v0c0-1.4,1.3-2.5,3.3-2.5
		c2,0,3.3,1.1,3.3,2.5v0c0,1-0.5,1.6-1.2,2c0.9,0.5,1.5,1.1,1.5,2.2v0c0,1.7-1.5,2.7-3.6,2.7C91.4,119.9,89.9,118.8,89.9,117.2
		 M95.1,117.1L95.1,117.1c0-0.7-0.7-1.2-1.6-1.2c-0.9,0-1.6,0.4-1.6,1.1v0c0,0.6,0.6,1.2,1.6,1.2C94.5,118.2,95.1,117.7,95.1,117.1
		 M94.8,113.2L94.8,113.2c0-0.6-0.5-1.1-1.3-1.1c-0.8,0-1.3,0.5-1.3,1.1v0c0,0.6,0.5,1.1,1.3,1.1C94.3,114.3,94.8,113.8,94.8,113.2"
		/>
	<path class="st1" d="M105.7,118.2l3.1-2.5c1.2-1,1.6-1.5,1.6-2.2c0-0.8-0.5-1.2-1.2-1.2c-0.7,0-1.2,0.4-1.9,1.2l-1.4-1.2
		c0.9-1.2,1.8-1.9,3.4-1.9c1.9,0,3.2,1.1,3.2,2.9v0c0,1.5-0.8,2.3-2.4,3.6l-1.5,1.2h4v1.8h-6.8V118.2z"/>
	<path class="st1" d="M119.2,116c-0.5,0.4-1.1,0.6-1.9,0.6c-2,0-3.3-1.1-3.3-3v0c0-1.9,1.4-3.2,3.5-3.2c1.2,0,2,0.3,2.7,1
		c0.7,0.7,1.1,1.7,1.1,3.5v0c0,3-1.4,5-4,5c-1.3,0-2.3-0.4-3-1.1l1.1-1.5c0.7,0.5,1.2,0.8,2,0.8C118.7,118.1,119.1,116.8,119.2,116
		 M119.2,113.5L119.2,113.5c0-0.8-0.6-1.4-1.6-1.4c-1,0-1.6,0.6-1.6,1.4v0c0,0.8,0.6,1.4,1.6,1.4
		C118.6,114.9,119.2,114.3,119.2,113.5"/>
	<path class="st1" d="M129.6,118.3l1.4-1.3c0.6,0.7,1.3,1.1,2.2,1.1c0.8,0,1.3-0.4,1.3-1.1v0c0-0.8-0.7-1.2-1.8-1.2h-0.8l-0.3-1.3
		l2.2-2.2h-3.6v-1.7h6.3v1.5l-2.3,2.2c1.3,0.2,2.5,0.9,2.5,2.6v0c0,1.7-1.3,3-3.3,3C131.5,119.9,130.4,119.3,129.6,118.3"/>
	<path class="st1" d="M138,115.2L138,115.2c0-2.7,1.7-4.8,4.1-4.8c2.4,0,4.1,2.1,4.1,4.8v0c0,2.7-1.6,4.8-4.1,4.8
		C139.6,119.9,138,117.9,138,115.2 M144.1,115.2L144.1,115.2c0-1.7-0.8-3-2-3c-1.2,0-2,1.2-2,2.9v0c0,1.7,0.8,2.9,2,2.9
		C143.4,118.1,144.1,116.8,144.1,115.2"/>
	<path class="st1" d="M158.4,118.3l1.4-1.3c0.6,0.7,1.3,1.1,2.2,1.1c0.8,0,1.3-0.4,1.3-1.1v0c0-0.8-0.7-1.2-1.8-1.2h-0.8l-0.3-1.3
		l2.2-2.2h-3.6v-1.7h6.3v1.5l-2.3,2.2c1.3,0.2,2.5,0.9,2.5,2.6v0c0,1.7-1.3,3-3.3,3C160.3,119.9,159.2,119.3,158.4,118.3"/>
	<polygon class="st1" points="168.5,112.5 166.9,112.9 166.4,111.2 169.1,110.5 170.5,110.5 170.5,119.8 168.5,119.8 	"/>
	<polygon class="st1" points="90.6,45.8 86.3,45.8 86.3,44.1 92.9,44.1 92.9,45.6 88.8,53.3 86.5,53.3 	"/>
	<path class="st1" d="M110,50.8L110,50.8c0-1.2,0.5-1.8,1.5-2.3c-0.7-0.4-1.2-1-1.2-2v0c0-1.4,1.3-2.5,3.3-2.5c2,0,3.3,1.1,3.3,2.5
		v0c0,1-0.5,1.6-1.2,2c0.9,0.5,1.5,1.1,1.5,2.2v0c0,1.7-1.5,2.7-3.6,2.7C111.5,53.4,110,52.4,110,50.8 M115.1,50.6L115.1,50.6
		c0-0.7-0.7-1.2-1.6-1.2s-1.6,0.4-1.6,1.1v0c0,0.6,0.6,1.2,1.6,1.2C114.5,51.8,115.1,51.3,115.1,50.6 M114.9,46.7L114.9,46.7
		c0-0.6-0.5-1.1-1.3-1.1s-1.3,0.5-1.3,1.1v0c0,0.6,0.5,1.1,1.3,1.1C114.3,47.8,114.9,47.4,114.9,46.7"/>
	<path class="st1" d="M139.7,49.5c-0.5,0.4-1.1,0.6-1.9,0.6c-2,0-3.3-1.1-3.3-3v0c0-1.9,1.4-3.2,3.5-3.2c1.2,0,2,0.3,2.7,1
		c0.7,0.7,1.1,1.7,1.1,3.5v0c0,3-1.4,5-4,5c-1.3,0-2.3-0.4-3-1.1l1.1-1.5c0.7,0.5,1.2,0.8,2,0.8C139.2,51.6,139.6,50.3,139.7,49.5
		 M139.7,47.1L139.7,47.1c0-0.8-0.6-1.4-1.6-1.4c-1,0-1.6,0.6-1.6,1.4v0c0,0.8,0.6,1.4,1.6,1.4C139.1,48.5,139.7,47.9,139.7,47.1"/>
	<polygon class="st1" points="84.5,68.2 82.8,68.6 82.4,66.9 85.1,66.2 86.5,66.2 86.5,75.5 84.5,75.5 	"/>
	<path class="st1" d="M92.9,73.5h-4.5L88.1,72l5.1-5.9h1.7v5.7h1.2v1.7h-1.2v2h-1.9V73.5z M92.9,71.8v-2.9l-2.5,2.9H92.9z"/>
	<polygon class="st1" points="108.9,68.2 107.3,68.6 106.9,66.9 109.6,66.2 111,66.2 111,75.5 108.9,75.5 	"/>
	<path class="st1" d="M112.7,74.2l1.2-1.5c0.7,0.6,1.4,1,2.2,1c1,0,1.5-0.5,1.5-1.3v0c0-0.8-0.7-1.3-1.6-1.3c-0.6,0-1.1,0.2-1.5,0.3
		l-1.2-0.8l0.3-4.6h5.7V68h-3.9l-0.1,1.6c0.4-0.1,0.7-0.2,1.2-0.2c1.8,0,3.2,0.9,3.2,3v0c0,2-1.4,3.2-3.5,3.2
		C114.7,75.6,113.6,75.1,112.7,74.2"/>
	<polygon class="st1" points="133.3,68.2 131.7,68.6 131.3,66.9 133.9,66.1 135.3,66.1 135.3,75.5 133.3,75.5 	"/>
	<path class="st1" d="M138.3,74.6c-0.7-0.7-1.1-1.7-1.1-3.5v0c0-2.9,1.3-5,4.1-5c1.3,0,2.1,0.4,2.9,1l-1.1,1.6
		c-0.6-0.5-1.1-0.7-1.9-0.7c-1.4,0-1.8,1.3-1.9,2.1c0.5-0.3,1.1-0.6,1.9-0.6c1.8,0,3.3,1,3.3,2.9v0c0,1.9-1.5,3.2-3.5,3.2
		C139.8,75.6,139,75.3,138.3,74.6 M142.5,72.5L142.5,72.5c0-0.8-0.6-1.4-1.6-1.4c-1,0-1.6,0.6-1.6,1.3v0c0,0.8,0.6,1.4,1.6,1.4
		C141.9,73.9,142.5,73.3,142.5,72.5"/>
	<path class="st1" d="M83.2,96l3.1-2.5c1.2-1,1.6-1.5,1.6-2.2c0-0.8-0.5-1.2-1.2-1.2c-0.7,0-1.2,0.4-1.9,1.2l-1.4-1.2
		c0.9-1.2,1.8-1.9,3.4-1.9c1.9,0,3.2,1.1,3.2,2.9v0c0,1.5-0.8,2.3-2.4,3.6L86,95.9h4v1.8h-6.8V96z"/>
	<polygon class="st1" points="93.1,90.4 91.5,90.8 91.1,89.1 93.8,88.3 95.1,88.3 95.1,97.6 93.1,97.6 	"/>
	<path class="st1" d="M106,96l3.1-2.5c1.2-1,1.6-1.5,1.6-2.2c0-0.8-0.5-1.2-1.2-1.2c-0.7,0-1.2,0.4-1.9,1.2l-1.4-1.2
		c0.9-1.2,1.8-1.9,3.4-1.9c1.9,0,3.2,1.1,3.2,2.9v0c0,1.5-0.8,2.3-2.4,3.6l-1.5,1.2h4v1.8H106V96z"/>
	<path class="st1" d="M114.2,96l3.1-2.5c1.2-1,1.6-1.5,1.6-2.2c0-0.8-0.5-1.2-1.2-1.2c-0.7,0-1.2,0.4-1.9,1.2l-1.4-1.2
		c0.9-1.2,1.8-1.9,3.4-1.9c1.9,0,3.2,1.1,3.2,2.9v0c0,1.5-0.8,2.3-2.4,3.6l-1.5,1.2h4v1.8h-6.8V96z"/>
	<path class="st1" d="M130.5,96l3.1-2.5c1.2-1,1.6-1.5,1.6-2.2c0-0.8-0.5-1.2-1.2-1.2c-0.7,0-1.2,0.4-1.9,1.2l-1.4-1.2
		c0.9-1.2,1.8-1.9,3.4-1.9c1.9,0,3.2,1.1,3.2,2.9v0c0,1.5-0.8,2.3-2.4,3.6l-1.5,1.2h4v1.8h-6.8V96z"/>
	<path class="st1" d="M138.6,96.2l1.4-1.3c0.6,0.7,1.3,1.1,2.2,1.1c0.8,0,1.3-0.4,1.3-1.1v0c0-0.8-0.7-1.2-1.8-1.2h-0.8l-0.3-1.3
		l2.2-2.2h-3.6v-1.7h6.3v1.5l-2.3,2.2c1.3,0.2,2.5,0.9,2.5,2.6v0c0,1.7-1.3,3-3.3,3C140.6,97.8,139.4,97.1,138.6,96.2"/>
	<polygon class="st1" points="9.3,3.6 11.5,3.6 13.9,7.5 16.4,3.6 18.5,3.6 18.5,12.9 16.5,12.9 16.5,6.8 13.9,10.8 13.9,10.8 
		11.3,6.9 11.3,12.9 9.3,12.9 	"/>
	<polygon class="st1" points="32,5.5 29.2,5.5 29.2,3.6 36.9,3.6 36.9,5.5 34,5.5 34,12.9 32,12.9 	"/>
	<path class="st1" d="M38.3,8.9V3.6h2v5.2c0,1.5,0.8,2.3,2,2.3c1.2,0,2-0.8,2-2.2V3.6h2v5.2c0,2.8-1.6,4.2-4.1,4.2
		S38.3,11.6,38.3,8.9"/>
	<polygon class="st1" points="56.5,3.6 58.7,3.6 60.6,9.9 62.7,3.6 64.5,3.6 66.5,9.9 68.4,3.6 70.6,3.6 67.4,12.9 65.6,12.9 
		63.6,6.9 61.5,12.9 59.7,12.9 	"/>
	<polygon class="st1" points="83.4,5.5 80.6,5.5 80.6,3.6 88.3,3.6 88.3,5.5 85.5,5.5 85.5,12.9 83.4,12.9 	"/>
	<polygon class="st1" points="89.8,3.6 91.9,3.6 91.9,7.3 95.6,7.3 95.6,3.6 97.7,3.6 97.7,12.9 95.6,12.9 95.6,9.2 91.9,9.2 
		91.9,12.9 89.8,12.9 	"/>
	<polygon class="st1" points="110.3,3.6 117.4,3.6 117.4,5.5 112.4,5.5 112.4,7.5 116.8,7.5 116.8,9.3 112.4,9.3 112.4,12.9 
		110.3,12.9 	"/>
	<path class="st1" d="M129.1,11.5l1.2-1.4c0.8,0.7,1.7,1.1,2.8,1.1c0.8,0,1.3-0.3,1.3-0.9v0c0-0.5-0.3-0.8-1.9-1.2
		c-1.9-0.5-3.1-1-3.1-2.8v0c0-1.7,1.3-2.8,3.2-2.8c1.3,0,2.5,0.4,3.4,1.2l-1.1,1.5c-0.8-0.6-1.6-0.9-2.4-0.9c-0.8,0-1.2,0.4-1.2,0.8
		v0c0,0.6,0.4,0.8,2,1.2c1.9,0.5,2.9,1.2,2.9,2.8v0c0,1.8-1.4,2.9-3.4,2.9C131.7,13,130.3,12.5,129.1,11.5"/>
	<path class="st1" d="M141.4,3.6h1.9l4,9.3h-2.1l-0.8-2.1h-3.9l-0.8,2.1h-2.1L141.4,3.6z M143.5,9l-1.2-3l-1.2,3H143.5z"/>
	<path class="st1" d="M156.1,11.5l1.2-1.4c0.8,0.7,1.7,1.1,2.8,1.1c0.8,0,1.3-0.3,1.3-0.9v0c0-0.5-0.3-0.8-1.9-1.2
		c-1.9-0.5-3.1-1-3.1-2.8v0c0-1.7,1.3-2.8,3.2-2.8c1.3,0,2.5,0.4,3.4,1.2l-1.1,1.5c-0.8-0.6-1.6-0.9-2.4-0.9c-0.8,0-1.2,0.4-1.2,0.8
		v0c0,0.6,0.4,0.8,2,1.2c1.9,0.5,2.9,1.2,2.9,2.8v0c0,1.8-1.4,2.9-3.4,2.9C158.6,13,157.2,12.5,156.1,11.5"/>
	<path class="st1" d="M165.1,8.9V3.6h2v5.2c0,1.5,0.8,2.3,2,2.3c1.2,0,2-0.8,2-2.2V3.6h2v5.2c0,2.8-1.6,4.2-4.1,4.2
		C166.6,13,165.1,11.6,165.1,8.9"/>
</g>
</svg>
