<svg id="レイヤー_2" data-name="レイヤー 2" xmlns="http://www.w3.org/2000/svg" viewBox="0 0 240.14 142"><defs><style>.cls-1,.cls-4,.cls-6{fill:none;}.cls-1,.cls-2,.cls-4{stroke:#231815;}.cls-1,.cls-2,.cls-4,.cls-6{stroke-miterlimit:10;}.cls-1,.cls-2{stroke-width:0.6px;}.cls-2,.cls-5{fill:#b5b5b6;}.cls-3{fill:#231815;}.cls-4{stroke-width:1.51px;}.cls-6{stroke:#fff;stroke-width:0.52px;}</style></defs><title>アートボード 1</title><line class="cls-1" x1="191.86" y1="9.53" x2="187.62" y2="17.48"/><line class="cls-1" x1="187.95" y1="9.58" x2="185.35" y2="14.44"/><line class="cls-1" x1="105.12" y1="48.95" x2="79.92" y2="84.32"/><path class="cls-2" d="M170,10.91l-7.16,14.35-38.73-2.52L79.84,84.31l-64.5-6.65L32.49,54.05C55.37,24.62,91.35,13,124,11.56l46-1.09Z"/><line class="cls-3" x1="32.49" y1="54.05" x2="10.82" y2="83.88"/><path class="cls-2" d="M150.87,43.1l-3.44,4.68-30.6-1.85,13.34-18.64,30.67,2.13-3.72,5.11,3.68.23L166,27.64c1.05-1.45-.28-2.21-2.5-2.35,0,0-34.09-2.29-45.46-2.91-5-.28-15.61-.73-19.46,4.59L85.79,44.5s-2.25,3.3,3.11,3.63l55,3.52a8.31,8.31,0,0,0,7.42-3.82l3.26-4.49Z"/><line class="cls-1" x1="181.44" y1="94.94" x2="15.18" y2="77.54"/><polyline class="cls-1" points="169.37 46.9 198.06 48.73 166.69 91.9"/><polyline class="cls-1" points="221.44 19.83 189.73 20.57 182.44 10.36"/><line class="cls-1" x1="223.22" y1="9.08" x2="217.33" y2="20.1"/><line class="cls-1" x1="219.3" y1="9.14" x2="213.42" y2="20.15"/><line class="cls-1" x1="215.38" y1="9.19" x2="209.5" y2="20.21"/><line class="cls-1" x1="211.46" y1="9.25" x2="205.58" y2="20.26"/><line class="cls-1" x1="207.54" y1="9.3" x2="201.66" y2="20.32"/><line class="cls-1" x1="203.62" y1="9.36" x2="197.74" y2="20.37"/><line class="cls-1" x1="199.7" y1="9.42" x2="193.82" y2="20.43"/><line class="cls-1" x1="195.78" y1="9.47" x2="189.9" y2="20.49"/><line class="cls-1" x1="160.24" y1="97.36" x2="171.3" y2="104.38"/><line class="cls-1" x1="162.4" y1="96.12" x2="175.12" y2="101.04"/><line class="cls-1" x1="164.09" y1="94.48" x2="178.61" y2="98"/><line class="cls-1" x1="157.82" y1="98.63" x2="166.26" y2="106.98"/><line class="cls-1" x1="155.06" y1="99.96" x2="161.13" y2="109.31"/><line class="cls-1" x1="152.3" y1="100.75" x2="155.76" y2="110.98"/><line class="cls-1" x1="149.42" y1="101.71" x2="149.95" y2="112.69"/><line class="cls-1" x1="146.25" y1="102.25" x2="145.01" y2="113.56"/><line class="cls-1" x1="143.6" y1="102.55" x2="139.71" y2="113.72"/><line class="cls-1" x1="140.75" y1="102.8" x2="134.35" y2="113.72"/><line class="cls-1" x1="138.58" y1="102.66" x2="129.54" y2="113.7"/><line class="cls-1" x1="134.97" y1="102.27" x2="125.93" y2="113.31"/><line class="cls-1" x1="131.35" y1="101.88" x2="122.31" y2="112.92"/><line class="cls-1" x1="127.74" y1="101.49" x2="118.7" y2="112.53"/><line class="cls-1" x1="124.12" y1="101.1" x2="115.08" y2="112.14"/><line class="cls-1" x1="120.51" y1="100.71" x2="111.47" y2="111.75"/><line class="cls-1" x1="102.73" y1="98.69" x2="93.56" y2="109.73"/><line class="cls-1" x1="99.11" y1="98.29" x2="89.95" y2="109.34"/><line class="cls-1" x1="95.5" y1="97.9" x2="86.34" y2="108.95"/><line class="cls-1" x1="91.89" y1="97.51" x2="82.79" y2="108.48"/><line class="cls-1" x1="88.27" y1="97.11" x2="79.11" y2="108.16"/><line class="cls-1" x1="84.66" y1="96.72" x2="75.5" y2="107.77"/><line class="cls-1" x1="81.05" y1="96.33" x2="71.88" y2="107.37"/><line class="cls-1" x1="77.43" y1="95.93" x2="68.27" y2="106.98"/><line class="cls-1" x1="73.82" y1="95.54" x2="64.66" y2="106.59"/><line class="cls-1" x1="70.21" y1="95.15" x2="61.04" y2="106.2"/><line class="cls-1" x1="66.59" y1="94.76" x2="57.43" y2="105.8"/><path class="cls-1" d="M166.94,91.56c-6.92,9.52-23.12,11.9-29.27,10.93L63,94.36l-9.17,11"/><path class="cls-4" d="M25.72,102.35l99.55,10.83c20.61,2.52,45.69-3.66,57.8-20.32L235,21.45c6.4-8.8-1.33-12.59-11.17-12.26L124,11.56C91.35,13,55.37,24.62,32.49,54.05L10.82,83.88C3.26,94.28,11.14,100.71,25.72,102.35Z"/><path class="cls-3" d="M126.21,71.13h0a2.44,2.44,0,0,1,2.52-2.44,2.7,2.7,0,0,1,1.9.68l-.76.92a1.63,1.63,0,0,0-1.13-.44,1.22,1.22,0,0,0-1.2,1.28h0a1.24,1.24,0,0,0,1.27,1.31,1.26,1.26,0,0,0,.75-.2v-.56h-.91v-1h2.15v2.11a3.17,3.17,0,0,1-2,.73A2.41,2.41,0,0,1,126.21,71.13Z"/><path class="cls-3" d="M131.34,72.43v0c0-.75.57-1.14,1.42-1.14a2.64,2.64,0,0,1,.87.14v-.06c0-.38-.24-.59-.73-.59a2.74,2.74,0,0,0-1,.2l-.26-.89a3.59,3.59,0,0,1,1.47-.28,1.82,1.82,0,0,1,1.37.44,1.49,1.49,0,0,1,.39,1.15v2.08h-1.25v-.38a1.37,1.37,0,0,1-1.07.46A1.09,1.09,0,0,1,131.34,72.43Zm2.3-.28V72a1.44,1.44,0,0,0-.5-.09c-.37,0-.58.17-.58.45h0a.4.4,0,0,0,.45.4A.59.59,0,0,0,133.64,72.15Z"/><path class="cls-3" d="M135.56,68.57h1.26v4.89h-1.26Z"/><path class="cls-3" d="M137.57,68.57h1.27v4.89h-1.27Z"/><path class="cls-3" d="M139.41,71.67h0a1.82,1.82,0,0,1,1.83-1.9,1.78,1.78,0,0,1,1.82,2V72h-2.43a.75.75,0,0,0,.79.6,1.07,1.07,0,0,0,.8-.37l.7.58a1.86,1.86,0,0,1-1.56.74A1.83,1.83,0,0,1,139.41,71.67Zm2.47-.32a.65.65,0,0,0-.64-.65c-.33,0-.56.25-.63.65Z"/><path class="cls-3" d="M143.61,69.84h1.28v.73a1.09,1.09,0,0,1,1.14-.79v1.34h-.11c-.66,0-1,.38-1,1.21v1.13h-1.28Z"/><path class="cls-3" d="M149,69.84h1.31l-1.33,3.54c-.31.85-.66,1.17-1.38,1.17a2.3,2.3,0,0,1-1.16-.31l.39-.89a1.27,1.27,0,0,0,.56.19.35.35,0,0,0,.3-.14l-1.42-3.56h1.32l.73,2.18Z"/><path class="cls-3" d="M136.11,36.59a.82.82,0,0,0,0-1.63.82.82,0,1,0,0,1.63Z"/><path class="cls-3" d="M132.73,33.77v10.8h11V33.77Zm3.58,7.52.26,2.57h-.93l.27-2.57Zm4.21,0,.27,2.57h-.94l.27-2.57ZM143,43.86h-1.27l-.08-2.57h.47V37.1h-3.56v4.19H139l-.09,2.57H137.5l-.08-2.57h.47V37.1h-3.57v4.19h.47l-.08,2.57h-1.27V34.49H143Z"/><polygon class="cls-3" points="135.81 33.45 137.01 33.45 137.01 32.25 138.14 32.25 136.41 29.32 134.68 32.25 135.81 32.25 135.81 33.45"/><polygon class="cls-3" points="140.01 33.58 141.75 30.65 140.61 30.65 140.61 29.46 139.42 29.46 139.42 30.65 138.28 30.65 140.01 33.58"/><circle class="cls-3" cx="140.32" cy="35.78" r="0.82"/><path class="cls-5" d="M11.94,22.57A9.91,9.91,0,1,1,2,32.48a9.92,9.92,0,0,1,9.91-9.91m0-1.43A11.34,11.34,0,1,0,23.27,32.48,11.34,11.34,0,0,0,11.94,21.14Z"/><rect class="cls-3" x="4.51" y="28.55" width="14.85" height="8.86"/><polygon class="cls-3" points="16.08 29.85 7.79 29.85 8.85 26.69 15.02 26.69 16.08 29.85"/><circle class="cls-6" cx="11.94" cy="32.7" r="3.28"/></svg>