<svg id="レイヤー_1" data-name="レイヤー 1" xmlns="http://www.w3.org/2000/svg" viewBox="0 0 240.14 142"><defs><style>.cls-1,.cls-6{fill:#b5b5b6;}.cls-1,.cls-2,.cls-3,.cls-5{stroke:#231815;}.cls-1,.cls-2,.cls-3,.cls-5,.cls-7{stroke-miterlimit:10;}.cls-1,.cls-2{stroke-width:0.6px;}.cls-2,.cls-3,.cls-5,.cls-7{fill:none;}.cls-3{stroke-width:1.51px;}.cls-4{fill:#231815;}.cls-5{stroke-width:0.26px;}.cls-7{stroke:#fff;stroke-width:0.52px;}</style></defs><title>アートボード 1</title><path class="cls-1" d="M150.86,42.89l-3.4,4.67h0l-30.64-1.84,13.34-18.63,30.68,2.13-3.72,5.1,3.84.24,9.95-13.69-.13.18-48.1,1.1c-36.64.8-53,11.65-62,24L38.83,77.8c-6.62,8.86,3.36,11,9.37,11.37l35.6,2.28,21.78-3.92-.33,0,6.12.39A18.25,18.25,0,0,0,127,81.29l27.73-38.15Z"/><line class="cls-2" x1="98.4" y1="105.74" x2="95.34" y2="109.95"/><line class="cls-2" x1="111.37" y1="87.9" x2="104.09" y2="97.92"/><line class="cls-2" x1="35.67" y1="55.41" x2="31.71" y2="55.15"/><line class="cls-2" x1="53.61" y1="56.55" x2="47.67" y2="56.17"/><line class="cls-2" x1="170.91" y1="20.87" x2="178.51" y2="10.42"/><path class="cls-1" d="M41.32,74.3c-4.73,8.48,7.33,9.53,13.24,10l50.69,3.25"/><path class="cls-1" d="M42.35,72.71a15.62,15.62,0,0,0-1,1.59"/><line class="cls-2" x1="173.54" y1="10.66" x2="166.32" y2="21.23"/><line class="cls-2" x1="169.76" y1="10.49" x2="162.54" y2="21.06"/><line class="cls-2" x1="165.99" y1="10.32" x2="158.46" y2="21.33"/><line class="cls-2" x1="130.32" y1="22.12" x2="136.34" y2="11.36"/><line class="cls-2" x1="132.45" y1="11.37" x2="126.42" y2="22.14"/><line class="cls-2" x1="128.55" y1="11.39" x2="122.52" y2="22.15"/><line class="cls-2" x1="124.65" y1="11.41" x2="118.63" y2="22.17"/><line class="cls-2" x1="120.76" y1="11.42" x2="114.61" y2="22.41"/><path class="cls-3" d="M160,109.33c9.28-3.41,17.52-8.83,23.05-16.44L235,21.47c6.39-8.8-1.33-12.58-11.17-12.26L124,11.58C91.34,13,55.36,24.64,32.49,54.08L10.81,83.9c-7.56,10.41.32,16.84,14.9,18.48l99.56,10.83A76.53,76.53,0,0,0,160,109.33"/><path class="cls-4" d="M24,122.7h2.4a1.74,1.74,0,0,1,1.28.42,1,1,0,0,1,.31.76v0a1.08,1.08,0,0,1-.73,1,1.14,1.14,0,0,1,.93,1.15h0c0,.8-.65,1.29-1.77,1.29H24Zm2.71,1.45c0-.26-.21-.4-.59-.4h-.85v.82H26c.4,0,.63-.13.63-.41Zm-.45,1.33h-1v.87h1c.4,0,.62-.16.62-.43v0C26.84,125.65,26.64,125.48,26.21,125.48Z"/><path class="cls-4" d="M28.66,123.77h1.28v.73a1.1,1.1,0,0,1,1.14-.79v1.34H31c-.67,0-1,.38-1,1.21v1.13H28.66Z"/><path class="cls-4" d="M31.32,125.6v0a1.93,1.93,0,0,1,2-1.89,1.91,1.91,0,0,1,2,1.88h0a1.93,1.93,0,0,1-2,1.9A1.91,1.91,0,0,1,31.32,125.6Zm2.77,0v0a.79.79,0,0,0-.78-.82.76.76,0,0,0-.75.81h0a.79.79,0,0,0,.77.82A.76.76,0,0,0,34.09,125.6Z"/><path class="cls-4" d="M35.43,123.77h1.24l.48,1.82.56-1.84h1l.56,1.85.49-1.83H41l-1.12,3.65H38.82l-.59-1.89-.61,1.89H36.54Z"/><path class="cls-4" d="M41.09,126.93l.47-.76a2.39,2.39,0,0,0,1.24.41c.22,0,.33-.07.33-.19v0c0-.14-.21-.2-.59-.31-.72-.19-1.29-.43-1.29-1.15v0c0-.77.62-1.2,1.46-1.2a2.82,2.82,0,0,1,1.49.43l-.43.8a2.48,2.48,0,0,0-1.08-.34c-.19,0-.29.07-.29.18h0c0,.14.21.21.59.32.71.2,1.28.45,1.28,1.16h0c0,.8-.59,1.21-1.48,1.21A2.87,2.87,0,0,1,41.09,126.93Z"/><path class="cls-4" d="M44.8,122.5h1.32v.94H44.8Zm0,1.27H46.1v3.62H44.83Z"/><path class="cls-4" d="M46.81,123.77h1.27v.51a1.36,1.36,0,0,1,1.09-.59A1.18,1.18,0,0,1,50.4,125v2.37H49.14v-2c0-.4-.21-.62-.52-.62a.54.54,0,0,0-.54.62v2H46.81Z"/><path class="cls-4" d="M51,128.06l.41-.84a2.56,2.56,0,0,0,1.27.34.82.82,0,0,0,.94-.89v-.14a1.41,1.41,0,0,1-1.11.54,1.59,1.59,0,0,1-1.62-1.68h0a1.58,1.58,0,0,1,1.57-1.69,1.43,1.43,0,0,1,1.14.51v-.43H54.9v2.75a2,2,0,0,1-.47,1.45,2.12,2.12,0,0,1-1.59.51A3.84,3.84,0,0,1,51,128.06Zm2.63-2.67h0a.71.71,0,0,0-.75-.71.7.7,0,0,0-.74.71v0a.69.69,0,0,0,.74.69A.7.7,0,0,0,53.66,125.39Z"/><path class="cls-4" d="M57.17,126.93l.48-.76a2.34,2.34,0,0,0,1.24.41c.22,0,.32-.07.32-.19v0c0-.14-.2-.2-.58-.31-.72-.19-1.29-.43-1.29-1.15v0c0-.77.62-1.2,1.45-1.2a2.85,2.85,0,0,1,1.5.43l-.44.8a2.4,2.4,0,0,0-1.07-.34c-.19,0-.29.07-.29.18h0c0,.14.21.21.58.32.72.2,1.29.45,1.29,1.16h0c0,.8-.6,1.21-1.48,1.21A2.92,2.92,0,0,1,57.17,126.93Z"/><path class="cls-4" d="M60.88,123.77h1.28v.48a1.31,1.31,0,0,1,1.09-.56,1.69,1.69,0,0,1,1.61,1.87v0a1.7,1.7,0,0,1-1.6,1.89,1.35,1.35,0,0,1-1.1-.52v1.51H60.88Zm2.73,1.81h0a.74.74,0,1,0-1.48,0h0a.74.74,0,1,0,1.48,0Z"/><path class="cls-4" d="M65.24,126.35h0c0-.76.56-1.14,1.42-1.14a2.64,2.64,0,0,1,.87.14v-.06c0-.38-.24-.59-.73-.59a2.74,2.74,0,0,0-1,.2l-.26-.89a3.57,3.57,0,0,1,1.46-.29,1.84,1.84,0,0,1,1.38.45,1.48,1.48,0,0,1,.39,1.15v2.08H67.52V127a1.42,1.42,0,0,1-1.07.46A1.1,1.1,0,0,1,65.24,126.35Zm2.3-.27v-.17a1.49,1.49,0,0,0-.5-.09c-.37,0-.59.17-.59.45h0a.4.4,0,0,0,.45.39A.58.58,0,0,0,67.54,126.08Z"/><path class="cls-4" d="M69.28,125.6v0a1.88,1.88,0,0,1,1.94-1.89,1.71,1.71,0,0,1,1.54.81l-.85.64a.83.83,0,0,0-.68-.38.77.77,0,0,0-.72.81h0a.76.76,0,0,0,.73.83.83.83,0,0,0,.69-.38l.85.62a1.79,1.79,0,0,1-1.6.83A1.87,1.87,0,0,1,69.28,125.6Z"/><path class="cls-4" d="M73,125.6v0a1.81,1.81,0,0,1,1.83-1.89,1.78,1.78,0,0,1,1.82,2,2.35,2.35,0,0,1,0,.26H74.21a.75.75,0,0,0,.78.6,1.11,1.11,0,0,0,.81-.37l.7.58a1.9,1.9,0,0,1-1.57.74A1.83,1.83,0,0,1,73,125.6Zm2.46-.32a.64.64,0,0,0-.63-.65c-.34,0-.56.25-.63.65Z"/><path class="cls-4" d="M23.84,134a3,3,0,0,1,1.94-2.86l.53.78A2.36,2.36,0,0,0,25.08,134a2.39,2.39,0,0,0,1.23,2.09l-.53.78A3.07,3.07,0,0,1,23.84,134Z"/><path class="cls-4" d="M26.93,131.21h1.3v3.55H30.5v1.14H26.93Z"/><path class="cls-4" d="M31,131h1.31v.93H31Zm0,1.26h1.27v3.63H31Z"/><path class="cls-4" d="M34.28,135.45v.45H33V131h1.28v1.74a1.32,1.32,0,0,1,1.09-.56A1.7,1.7,0,0,1,37,134.07h0a1.71,1.71,0,0,1-1.6,1.9A1.33,1.33,0,0,1,34.28,135.45Zm1.46-1.36v0a.75.75,0,1,0-1.49,0v0a.75.75,0,1,0,1.49,0Z"/><path class="cls-4" d="M37.53,132.27H38.8V133a1.12,1.12,0,0,1,1.15-.79v1.34h-.11c-.66,0-1,.38-1,1.21v1.14H37.53Z"/><path class="cls-4" d="M40.06,134.86v0c0-.75.57-1.13,1.42-1.13a2.64,2.64,0,0,1,.87.14v-.06c0-.39-.24-.6-.73-.6a2.74,2.74,0,0,0-1,.2l-.26-.89a3.59,3.59,0,0,1,1.47-.28,1.83,1.83,0,0,1,1.37.44,1.49,1.49,0,0,1,.39,1.15v2.09H42.34v-.39a1.38,1.38,0,0,1-1.07.47A1.1,1.1,0,0,1,40.06,134.86Zm2.3-.28v-.16a1.24,1.24,0,0,0-.5-.1c-.37,0-.58.18-.58.45h0a.39.39,0,0,0,.44.4A.59.59,0,0,0,42.36,134.58Z"/><path class="cls-4" d="M44.24,132.27h1.28V133a1.1,1.1,0,0,1,1.14-.79v1.34h-.11c-.66,0-1,.38-1,1.21v1.14H44.24Z"/><path class="cls-4" d="M49.58,132.27h1.31l-1.33,3.54c-.32.85-.66,1.18-1.38,1.18a2.21,2.21,0,0,1-1.16-.32l.39-.89a1.31,1.31,0,0,0,.56.2.36.36,0,0,0,.3-.15l-1.42-3.56h1.32l.73,2.19Z"/><path class="cls-4" d="M51.11,136.06A2.4,2.4,0,0,0,52.35,134a2.37,2.37,0,0,0-1.24-2.08l.53-.78a3.08,3.08,0,0,1,0,5.73Z"/><path class="cls-4" d="M156.16,60.9h2.22a2.06,2.06,0,0,1,1.53.5,1.47,1.47,0,0,1,.41,1.09h0a1.49,1.49,0,0,1-1,1.45l1.12,1.63H159L158,64.16h-.58v1.42h-1.3Zm2.17,2.25c.43,0,.69-.22.69-.56h0c0-.38-.27-.57-.7-.57h-.86v1.14Z"/><path class="cls-4" d="M160.7,63.79h0a2,2,0,0,1,4,0v0a1.93,1.93,0,0,1-2,1.89A1.9,1.9,0,0,1,160.7,63.79Zm2.76,0h0a.79.79,0,0,0-.77-.83.77.77,0,0,0-.76.81v0a.78.78,0,0,0,.77.81A.76.76,0,0,0,163.46,63.79Z"/><path class="cls-4" d="M165.09,63.79h0a2,2,0,0,1,4,0v0a1.93,1.93,0,0,1-2,1.89A1.91,1.91,0,0,1,165.09,63.79Zm2.77,0h0a.8.8,0,0,0-.78-.83.77.77,0,0,0-.76.81v0a.78.78,0,0,0,.77.81A.76.76,0,0,0,167.86,63.79Z"/><path class="cls-4" d="M169.82,63h-.42V62h.42V61.9a1.1,1.1,0,0,1,1.26-1.25,2.7,2.7,0,0,1,.82.1v.9a1.4,1.4,0,0,0-.47-.08c-.24,0-.37.11-.37.34V62h.84v1h-.81v2.6h-1.27Z"/><path class="cls-4" d="M172.52,64.46V63h-.43V62h.43V61h1.27V62h.84v1h-.84v1.23c0,.26.11.36.35.36a1,1,0,0,0,.48-.12v1a1.79,1.79,0,0,1-.88.22A1.06,1.06,0,0,1,172.52,64.46Z"/><path class="cls-4" d="M174.94,63.79h0a2,2,0,0,1,4,0v0a2,2,0,0,1-4,0Zm2.77,0h0a.8.8,0,0,0-.78-.83.77.77,0,0,0-.76.81v0a.78.78,0,0,0,.77.81A.76.76,0,0,0,177.71,63.79Z"/><path class="cls-4" d="M179.47,62h1.28v.48a1.31,1.31,0,0,1,1.09-.56,1.7,1.7,0,0,1,1.61,1.88h0a1.7,1.7,0,0,1-1.6,1.89,1.33,1.33,0,0,1-1.1-.52v1.52h-1.28Zm2.74,1.82v0a.75.75,0,1,0-1.49,0v0a.75.75,0,1,0,1.49,0Z"/><path class="cls-4" d="M156,71.76v0a2.43,2.43,0,0,1,2.52-2.43,2.73,2.73,0,0,1,1.9.67l-.76.93a1.68,1.68,0,0,0-1.14-.45,1.23,1.23,0,0,0-1.19,1.28v0a1.24,1.24,0,0,0,1.27,1.3,1.28,1.28,0,0,0,.75-.19V72.3h-.92v-1h2.15v2.1a3.09,3.09,0,0,1-2,.73A2.4,2.4,0,0,1,156,71.76Z"/><path class="cls-4" d="M161.13,73.05h0c0-.76.57-1.14,1.42-1.14a2.55,2.55,0,0,1,.87.14V72c0-.38-.23-.6-.72-.6a2.7,2.7,0,0,0-1,.2l-.27-.89a3.63,3.63,0,0,1,1.47-.28,1.9,1.9,0,0,1,1.38.44,1.51,1.51,0,0,1,.39,1.16v2.08h-1.25v-.38a1.43,1.43,0,0,1-1.08.46A1.1,1.1,0,0,1,161.13,73.05Zm2.31-.27v-.17a1.32,1.32,0,0,0-.51-.1c-.36,0-.58.18-.58.45v0a.4.4,0,0,0,.45.39A.58.58,0,0,0,163.44,72.78Z"/><path class="cls-4" d="M165.35,69.2h1.27v4.89h-1.27Z"/><path class="cls-4" d="M167.37,69.2h1.26v4.89h-1.26Z"/><path class="cls-4" d="M169.21,72.29h0a1.82,1.82,0,0,1,1.83-1.9,1.79,1.79,0,0,1,1.82,2,2.35,2.35,0,0,1,0,.26h-2.42a.75.75,0,0,0,.78.59,1.11,1.11,0,0,0,.81-.36l.7.58a1.9,1.9,0,0,1-1.57.73A1.82,1.82,0,0,1,169.21,72.29Zm2.46-.31a.65.65,0,0,0-.63-.66c-.34,0-.56.26-.63.66Z"/><path class="cls-4" d="M173.41,70.46h1.27v.73a1.12,1.12,0,0,1,1.15-.79v1.34h-.11c-.66,0-1,.39-1,1.22v1.13h-1.27Z"/><path class="cls-4" d="M178.75,70.46h1.3L178.73,74c-.32.85-.66,1.18-1.38,1.18a2.19,2.19,0,0,1-1.16-.32l.39-.89a1.12,1.12,0,0,0,.55.2.31.31,0,0,0,.3-.15L176,70.46h1.33l.72,2.19Z"/><line class="cls-5" x1="24.36" y1="97.85" x2="24.36" y2="118.37"/><path class="cls-4" d="M136.1,36.59a.82.82,0,1,0-.82-.82A.82.82,0,0,0,136.1,36.59Z"/><path class="cls-4" d="M132.72,33.77v10.8h11V33.77Zm3.58,7.52.27,2.56h-.94l.27-2.56Zm4.21,0,.27,2.56h-.94l.27-2.56ZM143,43.85h-1.27l-.09-2.56h.47V37.1h-3.56v4.19H139l-.08,2.56h-1.43l-.08-2.56h.47V37.1h-3.56v4.19h.47l-.08,2.56h-1.27V34.48H143Z"/><polygon class="cls-4" points="135.81 33.44 137 33.44 137 32.25 138.13 32.25 136.4 29.32 134.67 32.25 135.81 32.25 135.81 33.44"/><polygon class="cls-4" points="140.01 33.58 141.74 30.65 140.61 30.65 140.61 29.45 139.41 29.45 139.41 30.65 138.28 30.65 140.01 33.58"/><circle class="cls-4" cx="140.31" cy="35.77" r="0.82"/><polygon class="cls-4" points="17.42 94.39 24.04 96.17 24.04 86.5 17.42 84.72 17.42 94.39"/><polygon class="cls-4" points="24.69 86.5 24.69 96.17 31.31 94.39 31.31 84.72 24.69 86.5"/><path class="cls-6" d="M11.93,22.44A9.91,9.91,0,1,1,2,32.35a9.93,9.93,0,0,1,9.91-9.91m0-1.43A11.34,11.34,0,1,0,23.27,32.35,11.34,11.34,0,0,0,11.93,21Z"/><rect class="cls-4" x="4.51" y="28.42" width="14.85" height="8.86"/><polygon class="cls-4" points="16.07 29.72 7.79 29.72 8.85 26.57 15.01 26.57 16.07 29.72"/><circle class="cls-7" cx="11.93" cy="32.57" r="3.28"/></svg>