<?xml version="1.0" encoding="utf-8"?>
<!-- Generator: Adobe Illustrator 26.2.1, SVG Export Plug-In . SVG Version: 6.00 Build 0)  -->
<svg version="1.1" id="レイヤー_3" xmlns="http://www.w3.org/2000/svg" xmlns:xlink="http://www.w3.org/1999/xlink" x="0px"
	 y="0px" viewBox="0 0 181.4 148.4" style="enable-background:new 0 0 181.4 148.4;" xml:space="preserve">
<style type="text/css">
	.st0{fill:#B4B4B5;}
	.st1{fill:#231815;}
</style>
<g>
	<polygon class="st0" points="157.4,18.8 157.4,41 80,41 80,123.9 174.4,123.9 174.4,18.8 	"/>
	<polygon class="st1" points="165,23.7 163.4,24.1 163,22.4 165.6,21.6 167,21.6 167,31 165,31 	"/>
	<path class="st1" d="M162.2,51.2L162.2,51.2c0-1.2,0.5-1.8,1.5-2.3c-0.7-0.4-1.2-1-1.2-2v0c0-1.4,1.3-2.6,3.3-2.6
		c2,0,3.3,1.1,3.3,2.6v0c0,1-0.5,1.6-1.2,2c0.9,0.5,1.5,1.1,1.5,2.2v0c0,1.7-1.5,2.7-3.6,2.7C163.7,53.9,162.2,52.8,162.2,51.2
		 M167.4,51L167.4,51c0-0.7-0.7-1.2-1.6-1.2c-0.9,0-1.6,0.4-1.6,1.1v0c0,0.6,0.6,1.2,1.6,1.2C166.8,52.2,167.4,51.7,167.4,51
		 M167.1,47.1L167.1,47.1c0-0.6-0.5-1.1-1.3-1.1c-0.8,0-1.3,0.5-1.3,1.1v0c0,0.7,0.5,1.1,1.3,1.1C166.6,48.2,167.1,47.7,167.1,47.1"
		/>
	<polygon class="st1" points="161.2,68.8 159.6,69.1 159.2,67.5 161.9,66.7 163.3,66.7 163.3,76.1 161.2,76.1 	"/>
	<path class="st1" d="M165.1,74.8l1.2-1.5c0.7,0.6,1.4,1,2.2,1c1,0,1.6-0.5,1.6-1.3v0c0-0.8-0.7-1.3-1.7-1.3c-0.6,0-1.1,0.2-1.6,0.3
		l-1.2-0.8l0.3-4.6h5.7v1.8h-4l-0.1,1.6c0.4-0.1,0.7-0.2,1.2-0.2c1.8,0,3.3,0.9,3.3,3v0c0,2-1.4,3.2-3.5,3.2
		C167.1,76.2,166,75.7,165.1,74.8"/>
	<path class="st1" d="M157.9,96.8l3.1-2.5c1.2-1,1.6-1.5,1.6-2.2c0-0.8-0.5-1.2-1.3-1.2c-0.7,0-1.2,0.4-1.9,1.3l-1.4-1.2
		c0.9-1.3,1.8-1.9,3.5-1.9c1.9,0,3.2,1.1,3.2,2.9v0c0,1.6-0.8,2.3-2.5,3.6l-1.5,1.2h4.1v1.8h-6.9V96.8z"/>
	<path class="st1" d="M166.2,96.8l3.1-2.5c1.2-1,1.6-1.5,1.6-2.2c0-0.8-0.5-1.2-1.3-1.2c-0.7,0-1.2,0.4-1.9,1.3l-1.4-1.2
		c0.9-1.3,1.8-1.9,3.5-1.9c1.9,0,3.2,1.1,3.2,2.9v0c0,1.6-0.8,2.3-2.5,3.6l-1.5,1.2h4.1v1.8h-6.9V96.8z"/>
	<path class="st1" d="M5.6,119.1l3.1-2.5c1.2-1,1.6-1.5,1.6-2.2c0-0.8-0.5-1.2-1.3-1.2c-0.7,0-1.2,0.4-1.9,1.3l-1.4-1.2
		c0.9-1.3,1.8-1.9,3.5-1.9c1.9,0,3.2,1.1,3.2,2.9v0c0,1.6-0.8,2.3-2.5,3.6L8.5,119h4.1v1.8H5.6V119.1z"/>
	<path class="st1" d="M13.8,119.3l1.4-1.3c0.6,0.7,1.3,1.1,2.3,1.1c0.8,0,1.3-0.4,1.3-1.1v0c0-0.8-0.7-1.2-1.8-1.2h-0.9l-0.3-1.3
		l2.2-2.2h-3.7v-1.8h6.3v1.5l-2.4,2.3c1.3,0.2,2.5,0.9,2.5,2.6v0c0,1.8-1.3,3.1-3.4,3.1C15.7,120.9,14.6,120.2,13.8,119.3"/>
	<path class="st1" d="M30,119.1l3.1-2.5c1.2-1,1.6-1.5,1.6-2.2c0-0.8-0.5-1.2-1.3-1.2c-0.7,0-1.2,0.4-1.9,1.3l-1.4-1.2
		c0.9-1.3,1.8-1.9,3.5-1.9c1.9,0,3.2,1.1,3.2,2.9v0c0,1.6-0.8,2.3-2.5,3.6l-1.5,1.2h4.1v1.8H30V119.1z"/>
	<path class="st1" d="M42.9,118.7h-4.6l-0.3-1.5l5.1-5.9h1.7v5.7h1.3v1.7h-1.3v2h-2V118.7z M42.9,117.1v-2.9l-2.5,2.9H42.9z"/>
	<path class="st1" d="M56.4,119.1l3.1-2.5c1.2-1,1.6-1.5,1.6-2.2c0-0.8-0.5-1.2-1.3-1.2c-0.7,0-1.2,0.4-1.9,1.3l-1.4-1.2
		c0.9-1.3,1.8-1.9,3.5-1.9c1.9,0,3.2,1.1,3.2,2.9v0c0,1.6-0.8,2.3-2.5,3.6l-1.5,1.2h4.1v1.8h-6.9V119.1z"/>
	<path class="st1" d="M64.6,119.5l1.2-1.5c0.7,0.6,1.4,1,2.2,1c1,0,1.6-0.5,1.6-1.3v0c0-0.8-0.7-1.3-1.7-1.3c-0.6,0-1.1,0.2-1.6,0.3
		l-1.2-0.8l0.3-4.6h5.7v1.8h-4l-0.1,1.6c0.4-0.1,0.7-0.2,1.2-0.2c1.8,0,3.3,0.9,3.3,3v0c0,2-1.4,3.2-3.5,3.2
		C66.6,120.9,65.5,120.4,64.6,119.5"/>
	<path class="st1" d="M85.8,52.5L87,51c0.7,0.6,1.4,1,2.2,1c1,0,1.6-0.5,1.6-1.3v0c0-0.8-0.7-1.3-1.7-1.3c-0.6,0-1.1,0.2-1.6,0.3
		L86.4,49l0.3-4.6h5.7v1.8h-4l-0.1,1.6c0.4-0.1,0.7-0.2,1.2-0.2c1.8,0,3.3,0.9,3.3,3v0c0,2-1.4,3.2-3.5,3.2
		C87.8,53.9,86.7,53.4,85.8,52.5"/>
	<polygon class="st1" points="139.5,46.2 135.1,46.2 135.1,44.4 141.8,44.4 141.8,45.9 137.6,53.7 135.3,53.7 	"/>
	<path class="st1" d="M64.6,51.7H60l-0.3-1.5l5.1-5.9h1.7V50h1.3v1.7h-1.3v2h-2V51.7z M64.6,50v-2.9L62.1,50H64.6z"/>
	<path class="st1" d="M34.4,52.3l1.4-1.3c0.6,0.7,1.3,1.1,2.3,1.1c0.8,0,1.3-0.4,1.3-1.1v0c0-0.8-0.7-1.2-1.8-1.2h-0.9l-0.3-1.3
		l2.2-2.2H35v-1.8h6.3v1.5l-2.4,2.3c1.3,0.2,2.5,0.9,2.5,2.6v0c0,1.8-1.3,3.1-3.4,3.1C36.4,53.9,35.2,53.2,34.4,52.3"/>
	<path class="st1" d="M9.7,52.1l3.1-2.5c1.2-1,1.6-1.5,1.6-2.2c0-0.8-0.5-1.2-1.3-1.2c-0.7,0-1.2,0.4-1.9,1.3l-1.4-1.2
		c0.9-1.3,1.8-1.9,3.5-1.9c1.9,0,3.2,1.1,3.2,2.9v0c0,1.6-0.8,2.3-2.5,3.6L12.6,52h4.1v1.8H9.7V52.1z"/>
	<path class="st1" d="M14.4,72.6c-0.5,0.4-1.1,0.6-1.9,0.6c-2,0-3.3-1.1-3.3-3v0c0-1.9,1.5-3.3,3.6-3.3c1.3,0,2,0.3,2.7,1
		c0.7,0.7,1.1,1.7,1.1,3.5v0c0,3-1.4,5.1-4.1,5.1c-1.4,0-2.3-0.5-3.1-1.1l1.1-1.6c0.7,0.5,1.3,0.8,2,0.8
		C13.9,74.7,14.3,73.4,14.4,72.6 M14.4,70.2L14.4,70.2c0-0.9-0.6-1.5-1.6-1.5c-1,0-1.6,0.6-1.6,1.4v0c0,0.8,0.6,1.4,1.6,1.4
		C13.8,71.5,14.4,71,14.4,70.2"/>
	<polygon class="st1" points="133.6,69.1 132,69.5 131.6,67.8 134.2,67 135.6,67 135.6,76.4 133.6,76.4 	"/>
	<path class="st1" d="M142.2,74.4h-4.6l-0.3-1.5l5.1-5.9h1.7v5.7h1.3v1.7h-1.3v2h-2V74.4z M142.2,72.8v-2.9l-2.5,2.9H142.2z"/>
	<polygon class="st1" points="7.9,91.5 6.3,91.9 5.9,90.2 8.6,89.4 10,89.4 10,98.8 7.9,98.8 	"/>
	<path class="st1" d="M13,97.9c-0.7-0.7-1.1-1.7-1.1-3.5v0c0-2.9,1.3-5.1,4.1-5.1c1.3,0,2.1,0.4,2.9,1l-1.1,1.6
		c-0.6-0.5-1.1-0.7-1.9-0.7c-1.4,0-1.8,1.3-1.9,2.2c0.5-0.3,1.1-0.6,1.9-0.6c1.9,0,3.3,1,3.3,3v0c0,1.9-1.5,3.2-3.6,3.2
		C14.5,98.9,13.7,98.6,13,97.9 M17.2,95.8L17.2,95.8c0-0.8-0.6-1.4-1.6-1.4c-1,0-1.6,0.6-1.6,1.3v0c0,0.8,0.6,1.4,1.6,1.4
		C16.6,97.2,17.2,96.6,17.2,95.8"/>
	<path class="st1" d="M4.3,141.3l1.4-1.3C6.4,140.6,7,141,8,141c0.8,0,1.3-0.4,1.3-1.1v0c0-0.8-0.7-1.2-1.8-1.2H6.6l-0.3-1.3
		l2.2-2.2H4.8v-1.8h6.3v1.5l-2.4,2.3c1.3,0.2,2.5,0.9,2.5,2.6v0c0,1.8-1.3,3.1-3.4,3.1C6.3,142.9,5.1,142.2,4.3,141.3"/>
	<path class="st1" d="M12.8,138.1L12.8,138.1c0-2.7,1.7-4.9,4.2-4.9c2.5,0,4.1,2.1,4.1,4.8v0c0,2.7-1.7,4.8-4.2,4.8
		C14.4,142.9,12.8,140.8,12.8,138.1 M19,138.1L19,138.1c0-1.7-0.8-3-2.1-3c-1.2,0-2,1.2-2,2.9v0c0,1.7,0.8,3,2.1,3
		C18.2,141,19,139.8,19,138.1"/>
	<path class="st1" d="M132.4,97.2l3.1-2.5c1.2-1,1.6-1.5,1.6-2.2c0-0.8-0.5-1.2-1.3-1.2c-0.7,0-1.2,0.4-1.9,1.3l-1.4-1.2
		c0.9-1.3,1.8-1.9,3.5-1.9c1.9,0,3.2,1.1,3.2,2.9v0c0,1.6-0.8,2.3-2.5,3.6l-1.5,1.2h4.1v1.8h-6.9V97.2z"/>
	<polygon class="st1" points="142.5,91.5 140.8,91.9 140.4,90.2 143.1,89.4 144.5,89.4 144.5,98.8 142.5,98.8 	"/>
	<path class="st1" d="M130.7,119.5l3.1-2.5c1.2-1,1.6-1.5,1.6-2.2c0-0.8-0.5-1.2-1.3-1.2c-0.7,0-1.2,0.4-1.9,1.3l-1.4-1.2
		c0.9-1.3,1.8-1.9,3.5-1.9c1.9,0,3.2,1.1,3.2,2.9v0c0,1.6-0.8,2.3-2.5,3.6l-1.5,1.2h4.1v1.8h-6.9V119.5z"/>
	<path class="st1" d="M139,118.6L139,118.6c0-1.2,0.5-1.8,1.5-2.3c-0.7-0.4-1.2-1-1.2-2v0c0-1.4,1.3-2.6,3.3-2.6s3.3,1.1,3.3,2.6v0
		c0,1-0.5,1.6-1.2,2c0.9,0.5,1.5,1.1,1.5,2.2v0c0,1.7-1.5,2.7-3.6,2.7C140.5,121.3,139,120.2,139,118.6 M144.2,118.4L144.2,118.4
		c0-0.7-0.7-1.2-1.6-1.2c-0.9,0-1.6,0.4-1.6,1.1v0c0,0.6,0.6,1.2,1.6,1.2C143.6,119.6,144.2,119.1,144.2,118.4 M143.9,114.5
		L143.9,114.5c0-0.6-0.5-1.1-1.3-1.1c-0.8,0-1.3,0.5-1.3,1.1v0c0,0.7,0.5,1.1,1.3,1.1C143.4,115.6,143.9,115.1,143.9,114.5"/>
	<path class="st1" d="M157.6,119.5l3.1-2.5c1.2-1,1.6-1.5,1.6-2.2c0-0.8-0.5-1.2-1.3-1.2c-0.7,0-1.2,0.4-1.9,1.3l-1.4-1.2
		c0.9-1.3,1.8-1.9,3.5-1.9c1.9,0,3.2,1.1,3.2,2.9v0c0,1.6-0.8,2.3-2.5,3.6l-1.5,1.2h4.1v1.8h-6.9V119.5z"/>
	<path class="st1" d="M171.2,117.3c-0.5,0.4-1.1,0.6-1.9,0.6c-2,0-3.3-1.1-3.3-3v0c0-1.9,1.5-3.3,3.6-3.3c1.3,0,2,0.3,2.7,1
		c0.7,0.7,1.1,1.7,1.1,3.5v0c0,3-1.4,5.1-4.1,5.1c-1.4,0-2.3-0.5-3.1-1.1l1.1-1.6c0.7,0.5,1.3,0.8,2,0.8
		C170.7,119.4,171.1,118.1,171.2,117.3 M171.2,114.8L171.2,114.8c0-0.9-0.6-1.5-1.6-1.5c-1,0-1.6,0.6-1.6,1.4v0
		c0,0.8,0.6,1.4,1.6,1.4C170.7,116.2,171.2,115.6,171.2,114.8"/>
	<path class="st1" d="M111,52.9c-0.7-0.7-1.1-1.7-1.1-3.5v0c0-2.9,1.3-5.1,4.1-5.1c1.3,0,2.1,0.4,2.9,1l-1.1,1.6
		c-0.6-0.5-1.1-0.7-1.9-0.7c-1.4,0-1.8,1.3-1.9,2.2c0.5-0.3,1.1-0.6,1.9-0.6c1.9,0,3.3,1,3.3,3v0c0,1.9-1.5,3.2-3.6,3.2
		C112.5,53.9,111.7,53.5,111,52.9 M115.2,50.8L115.2,50.8c0-0.8-0.6-1.4-1.6-1.4s-1.6,0.6-1.6,1.3v0c0,0.8,0.6,1.4,1.6,1.4
		C114.6,52.1,115.2,51.6,115.2,50.8"/>
	<polygon class="st1" points="109.2,69.1 107.6,69.5 107.2,67.8 109.9,67 111.3,67 111.3,76.4 109.2,76.4 	"/>
	<path class="st1" d="M113,75l1.4-1.3c0.6,0.7,1.3,1.1,2.3,1.1c0.8,0,1.3-0.4,1.3-1.1v0c0-0.8-0.7-1.2-1.8-1.2h-0.9l-0.3-1.3
		l2.2-2.2h-3.7v-1.8h6.3v1.5l-2.4,2.3c1.3,0.2,2.5,0.9,2.5,2.6v0c0,1.8-1.3,3.1-3.4,3.1C115,76.6,113.8,75.9,113,75"/>
	<path class="st1" d="M105.3,97.2l3.1-2.5c1.2-1,1.6-1.5,1.6-2.2c0-0.8-0.5-1.2-1.3-1.2c-0.7,0-1.2,0.4-1.9,1.3l-1.4-1.2
		c0.9-1.3,1.8-1.9,3.5-1.9c1.9,0,3.2,1.1,3.2,2.9v0c0,1.6-0.8,2.3-2.5,3.6l-1.5,1.2h4.1v1.8h-6.9V97.2z"/>
	<path class="st1" d="M113.6,94.1L113.6,94.1c0-2.7,1.7-4.9,4.2-4.9c2.5,0,4.1,2.1,4.1,4.8v0c0,2.7-1.7,4.8-4.2,4.8
		C115.3,98.9,113.6,96.8,113.6,94.1 M119.8,94.1L119.8,94.1c0-1.7-0.8-3-2.1-3c-1.2,0-2,1.2-2,2.9v0c0,1.7,0.8,3,2.1,3
		C119,97.1,119.8,95.8,119.8,94.1"/>
	<path class="st1" d="M106,119.5l3.1-2.5c1.2-1,1.6-1.5,1.6-2.2c0-0.8-0.5-1.2-1.3-1.2c-0.7,0-1.2,0.4-1.9,1.3l-1.4-1.2
		c0.9-1.3,1.8-1.9,3.5-1.9c1.9,0,3.2,1.1,3.2,2.9v0c0,1.6-0.8,2.3-2.5,3.6l-1.5,1.2h4.1v1.8H106V119.5z"/>
	<polygon class="st1" points="118.9,113.6 114.5,113.6 114.5,111.8 121.2,111.8 121.2,113.3 117,121.1 114.7,121.1 	"/>
	<polygon class="st1" points="32.8,69.1 31.2,69.5 30.8,67.8 33.5,67 34.9,67 34.9,76.4 32.8,76.4 	"/>
	<path class="st1" d="M36.8,71.8L36.8,71.8c0-2.7,1.7-4.9,4.2-4.9c2.5,0,4.1,2.1,4.1,4.8v0c0,2.7-1.7,4.8-4.2,4.8
		C38.4,76.6,36.8,74.5,36.8,71.8 M43,71.8L43,71.8c0-1.7-0.8-3-2.1-3c-1.2,0-2,1.2-2,2.9v0c0,1.7,0.8,3,2.1,3
		C42.2,74.7,43,73.5,43,71.8"/>
	<polygon class="st1" points="61,69.1 59.3,69.5 58.9,67.8 61.6,67 63,67 63,76.4 61,76.4 	"/>
	<polygon class="st1" points="66.6,69.1 65,69.5 64.5,67.8 67.2,67 68.6,67 68.6,76.4 66.6,76.4 	"/>
	<polygon class="st1" points="84.9,69.1 83.3,69.5 82.9,67.8 85.5,67 86.9,67 86.9,76.4 84.9,76.4 	"/>
	<path class="st1" d="M88.8,74.8l3.1-2.5c1.2-1,1.6-1.5,1.6-2.2c0-0.8-0.5-1.2-1.3-1.2c-0.7,0-1.2,0.4-1.9,1.3l-1.4-1.2
		c0.9-1.3,1.8-1.9,3.5-1.9c1.9,0,3.2,1.1,3.2,2.9v0c0,1.6-0.8,2.3-2.5,3.6l-1.5,1.2h4.1v1.8h-6.9V74.8z"/>
	<polygon class="st1" points="33.5,91.5 31.9,91.9 31.5,90.2 34.2,89.4 35.6,89.4 35.6,98.8 33.5,98.8 	"/>
	<polygon class="st1" points="42.1,91.2 37.7,91.2 37.7,89.4 44.4,89.4 44.4,91 40.2,98.8 37.9,98.8 	"/>
	<polygon class="st1" points="59.3,91.5 57.6,91.9 57.2,90.2 59.9,89.4 61.3,89.4 61.3,98.8 59.3,98.8 	"/>
	<path class="st1" d="M63.1,96.2L63.1,96.2c0-1.2,0.5-1.8,1.5-2.3c-0.7-0.4-1.2-1-1.2-2v0c0-1.4,1.3-2.6,3.3-2.6
		c2,0,3.3,1.1,3.3,2.6v0c0,1-0.5,1.6-1.2,2c0.9,0.5,1.5,1.1,1.5,2.2v0c0,1.7-1.5,2.7-3.6,2.7C64.6,98.9,63.1,97.8,63.1,96.2
		 M68.3,96.1L68.3,96.1c0-0.7-0.7-1.2-1.6-1.2c-0.9,0-1.6,0.4-1.6,1.1v0c0,0.6,0.6,1.2,1.6,1.2S68.3,96.7,68.3,96.1 M68,92.1
		L68,92.1c0-0.6-0.5-1.1-1.3-1.1c-0.8,0-1.3,0.5-1.3,1.1v0c0,0.7,0.5,1.1,1.3,1.1C67.5,93.3,68,92.8,68,92.1"/>
	<polygon class="st1" points="84.6,91.5 83,91.9 82.6,90.2 85.3,89.4 86.7,89.4 86.7,98.8 84.6,98.8 	"/>
	<path class="st1" d="M93.9,95c-0.5,0.4-1.1,0.6-1.9,0.6c-2,0-3.3-1.1-3.3-3v0c0-1.9,1.5-3.3,3.6-3.3c1.3,0,2,0.3,2.7,1
		C95.5,91,96,92,96,93.8v0c0,3-1.4,5.1-4.1,5.1c-1.4,0-2.3-0.5-3.1-1.1l1.1-1.6c0.7,0.5,1.3,0.8,2,0.8C93.4,97.1,93.8,95.8,93.9,95
		 M93.9,92.5L93.9,92.5c0-0.9-0.6-1.5-1.6-1.5c-1,0-1.6,0.6-1.6,1.4v0c0,0.8,0.6,1.4,1.6,1.4S93.9,93.3,93.9,92.5"/>
	<path class="st1" d="M81.4,119.5l3.1-2.5c1.2-1,1.6-1.5,1.6-2.2c0-0.8-0.5-1.2-1.3-1.2c-0.7,0-1.2,0.4-1.9,1.3l-1.4-1.2
		c0.9-1.3,1.8-1.9,3.5-1.9c1.9,0,3.2,1.1,3.2,2.9v0c0,1.6-0.8,2.3-2.5,3.6l-1.5,1.2h4.1v1.8h-6.9V119.5z"/>
	<path class="st1" d="M90.9,120.3c-0.7-0.7-1.1-1.7-1.1-3.5v0c0-2.9,1.3-5.1,4.1-5.1c1.3,0,2.1,0.4,2.9,1l-1.1,1.6
		c-0.6-0.5-1.1-0.7-1.9-0.7c-1.4,0-1.8,1.3-1.9,2.2c0.5-0.3,1.1-0.6,1.9-0.6c1.9,0,3.3,1,3.3,3v0c0,1.9-1.5,3.2-3.6,3.2
		C92.4,121.3,91.6,120.9,90.9,120.3 M95.1,118.1L95.1,118.1c0-0.8-0.6-1.4-1.6-1.4s-1.6,0.6-1.6,1.3v0c0,0.8,0.6,1.4,1.6,1.4
		C94.5,119.5,95.1,118.9,95.1,118.1"/>
	<polygon class="st1" points="8.6,3.6 10.8,3.6 13.2,7.6 15.7,3.6 17.9,3.6 17.9,13 15.9,13 15.9,6.9 13.2,10.9 13.2,10.9 10.6,6.9 
		10.6,13 8.6,13 	"/>
	<polygon class="st1" points="31.5,5.5 28.6,5.5 28.6,3.6 36.4,3.6 36.4,5.5 33.5,5.5 33.5,13 31.5,13 	"/>
	<path class="st1" d="M37.8,9V3.6h2.1v5.3c0,1.5,0.8,2.3,2,2.3c1.3,0,2-0.8,2-2.2V3.6h2.1v5.3c0,2.8-1.6,4.2-4.1,4.2
		C39.3,13.1,37.8,11.7,37.8,9"/>
	<polygon class="st1" points="56.2,3.6 58.4,3.6 60.3,9.9 62.4,3.6 64.2,3.6 66.3,9.9 68.2,3.6 70.4,3.6 67.2,13 65.4,13 63.3,6.9 
		61.2,13 59.4,13 	"/>
	<polygon class="st1" points="83.3,5.5 80.5,5.5 80.5,3.6 88.2,3.6 88.2,5.5 85.4,5.5 85.4,13 83.3,13 	"/>
	<polygon class="st1" points="89.8,3.6 91.8,3.6 91.8,7.3 95.6,7.3 95.6,3.6 97.7,3.6 97.7,13 95.6,13 95.6,9.2 91.8,9.2 91.8,13 
		89.8,13 	"/>
	<polygon class="st1" points="110.4,3.6 117.5,3.6 117.5,5.5 112.5,5.5 112.5,7.5 117,7.5 117,9.4 112.5,9.4 112.5,13 110.4,13 	"/>
	<path class="st1" d="M129.4,11.6l1.2-1.5c0.8,0.7,1.7,1.1,2.8,1.1c0.8,0,1.3-0.3,1.3-0.9v0c0-0.5-0.3-0.8-1.9-1.2
		c-1.9-0.5-3.1-1-3.1-2.9v0c0-1.7,1.4-2.8,3.3-2.8c1.4,0,2.5,0.4,3.5,1.2l-1.1,1.5c-0.8-0.6-1.6-0.9-2.4-0.9c-0.8,0-1.2,0.4-1.2,0.8
		v0c0,0.6,0.4,0.8,2,1.2c1.9,0.5,3,1.2,3,2.8v0c0,1.9-1.4,2.9-3.4,2.9C132,13.1,130.5,12.6,129.4,11.6"/>
	<path class="st1" d="M141.8,3.6h1.9l4,9.4h-2.1l-0.9-2.1h-3.9l-0.9,2.1h-2.1L141.8,3.6z M144,9.1l-1.2-3l-1.2,3H144z"/>
	<path class="st1" d="M156.6,11.6l1.2-1.5c0.8,0.7,1.7,1.1,2.8,1.1c0.8,0,1.3-0.3,1.3-0.9v0c0-0.5-0.3-0.8-1.9-1.2
		c-1.9-0.5-3.1-1-3.1-2.9v0c0-1.7,1.4-2.8,3.3-2.8c1.4,0,2.5,0.4,3.5,1.2l-1.1,1.5c-0.8-0.6-1.6-0.9-2.4-0.9c-0.8,0-1.2,0.4-1.2,0.8
		v0c0,0.6,0.4,0.8,2,1.2c1.9,0.5,3,1.2,3,2.8v0c0,1.9-1.4,2.9-3.4,2.9C159.2,13.1,157.7,12.6,156.6,11.6"/>
	<path class="st1" d="M165.6,9V3.6h2.1v5.3c0,1.5,0.8,2.3,2,2.3c1.3,0,2-0.8,2-2.2V3.6h2.1v5.3c0,2.8-1.6,4.2-4.1,4.2
		C167.2,13.1,165.6,11.7,165.6,9"/>
</g>
</svg>
