<svg id="レイヤー_5" data-name="レイヤー 5" xmlns="http://www.w3.org/2000/svg" viewBox="0 0 240.14 142"><defs><style>.cls-1,.cls-3{fill:#b5b5b6;}.cls-2,.cls-4,.cls-8{fill:none;}.cls-2,.cls-3,.cls-4,.cls-6{stroke:#231815;}.cls-2,.cls-3,.cls-4,.cls-6,.cls-8{stroke-miterlimit:10;}.cls-2{stroke-width:1.51px;}.cls-3,.cls-4{stroke-width:0.6px;}.cls-5{fill:#231815;}.cls-6,.cls-7{fill:#fff;}.cls-6{stroke-width:0.76px;}.cls-8{stroke:#fff;stroke-width:0.52px;}</style></defs><title>アートボード 1</title><path class="cls-1" d="M44.44,61.79l4.79-6.59c5.63-7.24,15-15.51,23-19.49L84.72,18.54s-20.49,5.5-34,17.67-20.56,21-23.09,24.51l16.78,1.07"/><path class="cls-2" d="M116,108.58,113.56,112l-87.84-9.59C11.13,100.74,3.25,94.31,10.81,83.9L32.49,54.08C55.36,24.64,91.35,13,124,11.59l99.82-2.37c9.84-.33,17.56,3.45,11.17,12.25L181.05,95.63l-53.14-3.4-2.46,3.39"/><path class="cls-3" d="M141.79,51.54a18.29,18.29,0,0,1-10.67,3l-10.78-.69c-6.35-.4-8.65.61-13.38,3.84a49.89,49.89,0,0,1-10.34,5.42c-15,6-26.1,1.22-28.75-.12l5.27-4a27.48,27.48,0,0,0,10.11,2.44,27.94,27.94,0,0,0,16.56-5.48c3-2.48,1.14-3.42-2.32-3.65l-12.26-.78c-3.92-.25-5.23-1-5.23-1-2.2-1.25-.85-3.65-.85-3.65L89.38,32.8A13.8,13.8,0,0,1,98,27.73L87.17,46.88l55.42,3Z"/><line class="cls-4" x1="81.27" y1="108.44" x2="94.99" y2="89.55"/><line class="cls-4" x1="111.96" y1="90.76" x2="128.06" y2="91.78"/><polyline class="cls-4" points="221.43 19.85 189.72 20.6 182.43 10.39"/><line class="cls-4" x1="223.21" y1="9.11" x2="217.33" y2="20.12"/><line class="cls-4" x1="219.29" y1="9.16" x2="213.41" y2="20.18"/><line class="cls-4" x1="215.37" y1="9.22" x2="209.49" y2="20.23"/><line class="cls-4" x1="211.45" y1="9.28" x2="205.57" y2="20.29"/><line class="cls-4" x1="207.53" y1="9.33" x2="201.65" y2="20.35"/><line class="cls-4" x1="203.61" y1="9.39" x2="197.73" y2="20.4"/><line class="cls-4" x1="199.7" y1="9.44" x2="193.82" y2="20.46"/><line class="cls-4" x1="195.78" y1="9.5" x2="189.89" y2="20.51"/><line class="cls-4" x1="191.86" y1="9.55" x2="187.61" y2="17.5"/><line class="cls-4" x1="187.94" y1="9.61" x2="185.35" y2="14.47"/><path class="cls-4" d="M27.66,60.72l16.78,1.07,4.79-6.59c5.63-7.24,15-15.51,23-19.49L84.72,18.54"/><path class="cls-3" d="M150.86,42.65l-3.4,4.67h0l-30.63-1.84,13.33-18.63L160.84,29l-3.72,5.1,4,.25L166,27.66c1.06-1.44-.28-2.2-2.5-2.35L118,22.4l-2.3,3.16,11.24.81L113.11,45.12,90.36,43.57,102.9,26.64l5-1.09L110,22.66s-9,1-11.41,4.33c-2.12,3-12.77,17.53-12.77,17.53s-2.24,3.3,3.12,3.63l55,3.52a8.3,8.3,0,0,0,7.41-3.81l3.6-5Z"/><line class="cls-4" x1="166.26" y1="27.16" x2="178.56" y2="10.39"/><path class="cls-5" d="M105,99h3.78v1.09h-2.49v.72h2.25v1h-2.25v.74h2.52v1.1H105Z"/><path class="cls-5" d="M109.43,100.06h1.27v.51a1.34,1.34,0,0,1,1.08-.59,1.18,1.18,0,0,1,1.23,1.33v2.37h-1.26v-2c0-.4-.21-.61-.52-.61s-.53.21-.53.61v2h-1.27Z"/><path class="cls-5" d="M113.9,102.56v-1.48h-.43v-1h.43v-.92h1.26v.92H116v1h-.85v1.23c0,.26.12.36.35.36a1,1,0,0,0,.48-.12v1a1.73,1.73,0,0,1-.88.22A1.06,1.06,0,0,1,113.9,102.56Z"/><path class="cls-5" d="M116.56,100.06h1.27v.73A1.1,1.1,0,0,1,119,100v1.34h-.11c-.66,0-1,.38-1,1.21v1.13h-1.27Z"/><path class="cls-5" d="M119.08,102.65v0c0-.75.57-1.14,1.42-1.14a2.31,2.31,0,0,1,.87.15v-.06c0-.39-.23-.6-.72-.6a2.8,2.8,0,0,0-1,.2l-.26-.89a3.63,3.63,0,0,1,1.47-.28,1.86,1.86,0,0,1,1.38.44,1.49,1.49,0,0,1,.39,1.15v2.08h-1.25v-.38a1.4,1.4,0,0,1-1.08.46A1.09,1.09,0,0,1,119.08,102.65Zm2.31-.28v-.17a1.55,1.55,0,0,0-.51-.09c-.36,0-.58.17-.58.45h0a.4.4,0,0,0,.45.4A.59.59,0,0,0,121.39,102.37Z"/><path class="cls-5" d="M123.27,100.06h1.27v.51a1.36,1.36,0,0,1,1.09-.59,1.18,1.18,0,0,1,1.23,1.33v2.37h-1.27v-2c0-.4-.2-.61-.51-.61a.54.54,0,0,0-.54.61v2h-1.27Z"/><path class="cls-5" d="M127.37,101.89h0a1.88,1.88,0,0,1,1.94-1.89,1.74,1.74,0,0,1,1.55.8l-.86.64a.83.83,0,0,0-.68-.38.76.76,0,0,0-.71.81v0a.75.75,0,0,0,.72.82.85.85,0,0,0,.7-.38l.85.62a1.8,1.8,0,0,1-1.61.83A1.87,1.87,0,0,1,127.37,101.89Z"/><path class="cls-5" d="M131.08,101.89h0a1.82,1.82,0,0,1,1.83-1.9,1.78,1.78,0,0,1,1.82,2v.26H132.3a.75.75,0,0,0,.79.6,1.07,1.07,0,0,0,.8-.37l.7.58a1.86,1.86,0,0,1-1.56.74A1.83,1.83,0,0,1,131.08,101.89Zm2.47-.32a.65.65,0,0,0-.64-.65c-.33,0-.56.25-.63.65Z"/><path class="cls-5" d="M74.32,71h2.21a2,2,0,0,1,1.53.5,1.44,1.44,0,0,1,.42,1.09h0a1.49,1.49,0,0,1-1,1.45l1.12,1.63H77.14l-1-1.42h-.57v1.42h-1.3Zm2.16,2.25c.44,0,.7-.22.7-.56h0c0-.38-.28-.56-.71-.56h-.85v1.13Z"/><path class="cls-5" d="M78.85,73.87h0A1.82,1.82,0,0,1,80.68,72a1.78,1.78,0,0,1,1.82,2,2.26,2.26,0,0,1,0,.26H80.07a.75.75,0,0,0,.78.6,1.07,1.07,0,0,0,.81-.37l.7.58a1.88,1.88,0,0,1-1.57.74A1.82,1.82,0,0,1,78.85,73.87Zm2.46-.31a.64.64,0,0,0-.63-.66c-.34,0-.56.25-.63.66Z"/><path class="cls-5" d="M82.91,73.87h0A1.88,1.88,0,0,1,84.85,72a1.72,1.72,0,0,1,1.54.8l-.86.64a.81.81,0,0,0-.67-.38.76.76,0,0,0-.72.81v0a.75.75,0,0,0,.73.82.85.85,0,0,0,.69-.37l.85.61a1.77,1.77,0,0,1-1.61.83A1.87,1.87,0,0,1,82.91,73.87Z"/><path class="cls-5" d="M86.62,73.87h0A1.82,1.82,0,0,1,88.45,72a1.78,1.78,0,0,1,1.82,2,2.26,2.26,0,0,1,0,.26H87.84a.75.75,0,0,0,.78.6,1.07,1.07,0,0,0,.81-.37l.7.58a1.88,1.88,0,0,1-1.57.74A1.82,1.82,0,0,1,86.62,73.87Zm2.46-.31a.64.64,0,0,0-.63-.66c-.34,0-.56.25-.63.66Z"/><path class="cls-5" d="M90.82,72h1.27v.48a1.34,1.34,0,0,1,1.1-.56,1.71,1.71,0,0,1,1.61,1.88h0a1.7,1.7,0,0,1-1.6,1.89,1.36,1.36,0,0,1-1.11-.52v1.52H90.82Zm2.73,1.82v0a.74.74,0,1,0-1.48,0v0a.74.74,0,1,0,1.48,0Z"/><path class="cls-5" d="M95.54,74.54V73.06h-.43V72h.43v-.92h1.27V72h.84v1h-.84v1.23c0,.26.11.36.34.36a1.07,1.07,0,0,0,.49-.12v1a1.8,1.8,0,0,1-.89.22A1.06,1.06,0,0,1,95.54,74.54Z"/><path class="cls-5" d="M98.21,70.78h1.31v.93H98.21Zm0,1.26H99.5v3.62H98.23Z"/><path class="cls-5" d="M100.07,73.87h0a1.94,1.94,0,0,1,2-1.9,1.9,1.9,0,0,1,2,1.88v0a2,2,0,0,1-4,0Zm2.77,0h0a.8.8,0,0,0-.78-.83.76.76,0,0,0-.75.81v0a.78.78,0,0,0,.77.81A.76.76,0,0,0,102.84,73.87Z"/><path class="cls-5" d="M104.61,72h1.27v.51A1.34,1.34,0,0,1,107,72a1.19,1.19,0,0,1,1.24,1.33v2.37h-1.27v-2c0-.4-.21-.61-.51-.61a.54.54,0,0,0-.54.61v2h-1.27Z"/><polygon class="cls-6" points="82.31 38.88 76.97 29.39 76.97 13.05 58.47 13.05 58.47 30.89 74.23 30.89 82.31 38.88"/><path class="cls-5" d="M111.8,30.47a1.11,1.11,0,1,0-1.11-1.11A1.11,1.11,0,0,0,111.8,30.47Z"/><polygon class="cls-5" points="115.02 39.8 113.13 31.28 110.48 31.28 108.59 39.8 109.9 39.8 109.65 41.37 110.89 41.37 111.28 39.8 112.33 39.8 112.72 41.37 113.96 41.37 113.71 39.8 115.02 39.8"/><circle class="cls-5" cx="104.61" cy="29.36" r="1.11"/><polygon class="cls-5" points="102.06 37.28 102.74 37.28 102.66 41.37 103.97 41.37 104.36 37.28 104.86 37.28 105.25 41.37 106.56 41.37 106.48 37.28 107.16 37.28 107.16 31.28 102.06 31.28 102.06 37.28"/><path class="cls-5" d="M136.1,36.58a.82.82,0,1,0-.82-.82A.82.82,0,0,0,136.1,36.58Z"/><path class="cls-5" d="M132.72,33.76v10.8h11V33.76Zm3.58,7.52.27,2.56h-.94l.27-2.56Zm4.21,0,.27,2.56h-.94l.27-2.56ZM143,43.84h-1.27l-.08-2.56h.46V37.09h-3.56v4.19H139l-.08,2.56h-1.43l-.08-2.56h.47V37.09h-3.56v4.19h.47l-.08,2.56h-1.27V34.47H143Z"/><polygon class="cls-5" points="135.81 33.43 137 33.43 137 32.24 138.13 32.24 136.4 29.31 134.67 32.24 135.81 32.24 135.81 33.43"/><polygon class="cls-5" points="140.01 33.57 141.74 30.64 140.61 30.64 140.61 29.44 139.41 29.44 139.41 30.64 138.28 30.64 140.01 33.57"/><circle class="cls-5" cx="140.31" cy="35.76" r="0.82"/><path class="cls-5" d="M70.68,22H69.41v-.7a1.88,1.88,0,0,0-3.76,0V22H64.4l-.61,4.93h7.5Zm-4.31-.7a1.16,1.16,0,0,1,2.32,0V22H66.37Z"/><path class="cls-5" d="M62.06,18V28.8H73V18ZM72.31,28.08H62.77V18.71h9.54Z"/><path class="cls-5" d="M64.43,16h1.13v1.07h.71V16h2.45a1.46,1.46,0,1,0,0-.72h-5v1.79h.72Z"/><path class="cls-5" d="M43,85.45H37.3V79.24a2.87,2.87,0,0,1,5.74,0Zm-4.8-.94h3.85V79.24a1.93,1.93,0,1,0-3.85,0Z"/><rect class="cls-5" x="33.38" y="81.62" width="13.57" height="9.86"/><path class="cls-7" d="M35,87.3l.39-.47a1.28,1.28,0,0,0,.81.31c.19,0,.3-.07.3-.18h0c0-.11-.09-.17-.43-.25-.54-.12-1-.27-1-.79h0c0-.46.37-.8,1-.8a1.58,1.58,0,0,1,1,.33l-.35.5a1.2,1.2,0,0,0-.71-.25c-.16,0-.25.07-.25.16h0c0,.11.09.16.44.24.58.13.94.31.94.79h0c0,.52-.41.82-1,.82A1.78,1.78,0,0,1,35,87.3Z"/><path class="cls-7" d="M37.49,85.15h.69v.94h.9v-.94h.7v2.52h-.7v-1h-.9v1h-.69Z"/><path class="cls-7" d="M40.14,86.42h0A1.33,1.33,0,0,1,41.5,85.1a1.31,1.31,0,0,1,1.36,1.3h0a1.36,1.36,0,0,1-2.72,0Zm2,0h0a.65.65,0,0,0-.64-.68.64.64,0,0,0-.64.67h0a.65.65,0,0,0,.64.68A.64.64,0,0,0,42.14,86.42Z"/><path class="cls-7" d="M43.22,85.15H44.3c.64,0,1.05.33,1.05.88h0c0,.6-.46.91-1.08.91h-.35v.72h-.7Zm1,1.25c.25,0,.4-.13.4-.33h0c0-.22-.15-.33-.4-.33h-.33v.66Z"/><path class="cls-1" d="M11.93,21.68A9.91,9.91,0,1,1,2,31.59a9.92,9.92,0,0,1,9.91-9.91m0-1.43A11.34,11.34,0,1,0,23.27,31.59,11.34,11.34,0,0,0,11.93,20.25Z"/><rect class="cls-5" x="4.51" y="27.66" width="14.85" height="8.86"/><polygon class="cls-5" points="16.07 28.96 7.79 28.96 8.85 25.8 15.01 25.8 16.07 28.96"/><circle class="cls-8" cx="11.93" cy="31.81" r="3.28"/></svg>