<?xml version="1.0" encoding="utf-8"?>
<!-- Generator: Adobe Illustrator 21.1.0, SVG Export Plug-In . SVG Version: 6.00 Build 0)  -->
<svg version="1.1" id="レイヤー_1" xmlns="http://www.w3.org/2000/svg" xmlns:xlink="http://www.w3.org/1999/xlink" x="0px"
	 y="0px" width="567px" height="73px" viewBox="0 0 567 73" style="enable-background:new 0 0 567 73;" xml:space="preserve">
<style type="text/css">
	.st0{fill:#B4B4B4;}
	.st1{fill:#B4B4B5;}
</style>
<g>
	<g>
		<g>
			<path class="st0" d="M379,64.7h10.4v3.1H379v3.8h-4.2v-3.8h-10.3v-3.1h10.3v-1.3H367V53H387v10.4H379V64.7z M371.1,46.7h3.8v1.8
				h4.1v-1.8h3.8v1.8h6.5v2.9h-6.5v0.9H379v-0.9h-4.1v0.9h-3.8v-0.9h-6.5v-2.9h6.5V46.7z M382.9,56.7v-1.1H371v1.1H382.9z M371,59.3
				v1.2h11.9v-1.2H371z"/>
			<path class="st0" d="M405.3,47.1v9.5h-7.4v15h-3.8V47.1H405.3z M401.6,50.6v-1.1h-3.7v1.1H401.6z M397.9,52.7v1.1h3.7v-1.1H397.9
				z M400.2,68.6V57.9h11.8v9.8c0.8,0.1,1.3,0.1,1.5,0.1c0.7,0,0.7-0.3,0.7-1V56.6h-7.5v-9.5H418v21.2c0,2.8-1.3,3.2-4.9,3.5
				l-1.1-3.1H400.2z M408.5,62v-1.2h-4.7V62H408.5z M403.8,64.5v1.2h4.7v-1.2H403.8z M414.2,50.6v-1.1h-3.6v1.1H414.2z M410.5,52.7
				v1.1h3.6v-1.1H410.5z"/>
			<path class="st0" d="M438.3,57.2c-0.2,0.4-0.6,1-0.8,1.4c0.3,0.4,0.7,0.9,0.9,1.1v-4h-3.9v1.4l1-1c0.3,0.3,0.8,0.8,1,1.1
				c0.2-0.3,0.5-0.8,0.7-1.2L438.3,57.2z M434.4,60.1c0.3-0.3,0.9-1,1-1.3c-0.2-0.3-0.6-0.8-1-1.1V60.1z M434.2,63.2l1.2-1.1
				c0.2,0.2,0.7,0.7,1,1.1c0.3-0.5,0.6-1.1,0.7-1.3l1.4,1c-0.3,0.6-0.9,1.5-1,1.6c0.3,0.3,0.9,1.1,1.2,1.5c-0.2,0.2-1.4,1.3-1.4,1.3
				c-0.2-0.4-0.7-1.2-0.8-1.4c-0.4,0.7-0.9,1.2-1.1,1.5c-0.4-0.3-0.9-0.8-1.3-1.2c0.4-0.5,1.1-1.3,1.3-1.7
				C435,63.9,434.2,63.2,434.2,63.2z M438.3,50.2h-1.4c0,0,0.5,0.6,0.7,0.7c-0.4,0.4-1.6,1.2-2.9,2.1h3.6V50.2z M442.9,50.2h-1.3V53
				h3.8c-0.7-0.5-1.8-1.2-3.2-1.9L442.9,50.2z M445.3,57.2c-0.2,0.4-0.7,1.2-0.8,1.4c0.2,0.2,0.7,1,0.9,1.3v-4.1h-3.9v1.4l0.9-0.8
				c0.3,0.3,0.8,0.8,1,1c0.2-0.3,0.4-0.9,0.6-1.2L445.3,57.2z M441.5,60.1c0.3-0.3,0.8-0.9,1-1.3c-0.4-0.5-0.8-0.9-1-1V60.1z
				 M441.5,71h-3.2v-4.3v-1.6v-4.9c-0.3,0.3-0.8,0.7-1.1,1c-0.2-0.4-0.5-0.9-0.7-1.1c-0.3,0.5-0.7,1.1-0.9,1.4
				c-0.2-0.2-0.9-0.7-1.1-0.9v11.1h-3.1V53.6c-0.4-0.4-0.7-0.7-0.8-0.9v3.5h-3.4c0,0.8,0,1.1-0.1,2.3h3.8c0,6-0.5,8.9-0.8,9.9
				c-0.5,2-1.4,3.2-4.3,3.2c-0.5,0-0.7,0-1.8-0.1l-1-3.9c0.8,0.2,1.7,0.4,2.7,0.4c0.5,0,1,0,1.3-1.3c0.3-1.6,0.3-2,0.4-5.1h-4
				c0.4-3,0.6-6.1,0.7-8.7h3v-2.8h-3.2v-2.9h6.8v5.5c0.7-0.4,1.9-1.1,3.9-2.5h-3.1v-3h17.5v3h-2.9c1.2,0.5,3.1,1.7,3.6,2.1
				c-0.2,0.2-0.8,0.9-1,1.1v15.1c0,2.9-1,2.9-4.3,3l-1.6-4c0.5,0.1,1.4,0.3,1.9,0.3c0.9,0,1-0.2,1-1.3v-6.4l-1.2,1.1
				c-0.2-0.5-0.5-0.9-0.6-1.1c-0.2,0.3-0.4,0.8-0.7,1.2l-1.3-0.9V71z M441.3,62.9l1.2-1.1c0.2,0.2,0.6,0.7,1,1.1
				c0.3-0.5,0.6-1,0.7-1.2l1.4,0.8c-0.3,0.6-0.9,1.6-1,1.6c0.4,0.4,0.8,0.9,1.1,1.4c-0.2,0.2-1.4,1.3-1.4,1.3
				c-0.2-0.4-0.6-1.1-0.7-1.2c-0.4,0.7-0.8,1.2-1,1.5c-0.4-0.3-0.9-0.8-1.3-1.2c0.4-0.5,1-1.2,1.3-1.6
				C442.1,63.6,441.3,62.9,441.3,62.9z"/>
			<path class="st0" d="M464.6,51.5v-4.7h4.3v4.7h8.8v3.7h-8.8v3.9h7v3.6h-7v4.7h10V71h-25v-3.6h10.7v-4.7h-6.5v-3.6h6.5v-3.9h-5.6
				c-1.2,2.1-1.7,3.1-2.5,4.1l-3.6-1.9c4.3-5.4,5.3-10.1,5.4-10.4l3.9,1.3c0,0-1.3,3.1-1.4,3.2H464.6z"/>
			<path class="st0" d="M519.3,48.5c-1,1.3-3,3.5-5.3,5.1l-2.9-2.4c2.1-1.1,4-2.7,5.4-4.6L519.3,48.5z M526.1,51.8h3.2v1.8h7.6v3.4
				h-1.6v11.6c0,1-0.4,1.9-1.3,2.5c-0.7,0.5-1.8,0.6-3.1,0.6c-0.4,0-1-0.1-1.3-0.1l-1.2-4c0,0,0.7,0.2,1.8,0.2c1,0,1.3-0.1,1.3-0.9
				v-9.9h-2.8V55h-2.6v16.5h-3.6V55h-3.4v-0.3c-0.3,0.7-0.7,1.2-1.1,1.9V65c0.6-2.4,1.1-4.4,1.2-8l2.9,0.2c0.1,1.1-0.4,7-1.4,9.4
				L518,66v5.5h-3.7V61.4c-0.1,0.1-0.6,0.7-0.8,0.8l-2.6-2.5c2.3-1.6,4.9-5.7,5.9-7.7l2.3,1.3v-1.5h3.4v-4.9h3.6V51.8z M530,47.9
				h6.4v3.5H530V47.9z M529.4,57c0.9,3.6,1.1,6.1,1.1,8.3l-3.1,1c-0.1-2.7-0.4-6-1-8.6L529.4,57z M530,50.4l-2.4,1.1
				c-0.3-1.1-1-2.7-1.5-3.5l2.3-1C528.8,47.9,529.6,49.3,530,50.4z"/>
			<path class="st0" d="M545.8,51.5c-0.7,0.6-1.2,1-2.1,1.7l2.1,0V51.5z M545.8,57.2h3.2v-1h-3.2V57.2z M548.9,59.7h-3.2v1.1h3.2
				V59.7z M549,63.6h-3.2v3c1.2-0.4,1.7-0.6,2.1-0.7c-0.2-0.3-0.3-0.5-0.8-1.4L549,63.6z M549.2,53.2h3.1v10.4h-1.8
				c1.5,2.3,2.1,3.4,3.1,6l-3.3,1.8c-0.3-0.9-0.5-1.4-0.8-2.2c-2.4,0.8-7.8,2.6-7.8,2.6l-1.2-3.6c0.6-0.1,1-0.2,1.9-0.5V54.2
				c-0.1,0.1-0.2,0.1-0.3,0.2l-2.2-2.7c2.8-1.5,5-3.3,6.1-5.4l3.4,0.6l0,0.2c0,0,2,2.2,3.3,3v-1h4.2v-2.3h3.9v2.3h4.8v6.5H564v6.1
				h-6.4V63h7.4v8h-11.2V55.6h-1.2v-5.1l-1.8,2.1c-0.7-0.5-2.6-2.3-3.1-3c-0.3,0.3-0.8,0.8-1.5,1.4l2.8,0.2V53.2z M556.2,53.7h5.7
				v-1.5h-5.7V53.7z M557.7,56.9v1.8h2.8v-1.8H557.7z M561.4,67.7V66h-3.7v1.7H561.4z"/>
			<path class="st0" d="M499.7,64.9h7.5v-3.2h-10.1c0-0.4,0-1,0-1.2h10.5v-3.2h-10.5v-1.1h7v-2.9h-7v-1h9.8v-3.2h-5.2
				c0.3-0.6,1-1.9,1-1.9l-4-1.3c-0.4,1-0.9,2.1-1.6,3.1H492c0.3-0.1,0.4-0.2,1.2-0.5c-0.8-1.2-2.2-2.5-2.5-2.7l-3.7,1.7
				c0.4,0.4,0.6,0.6,1.2,1.5h-5v3.2h9.9v1h-7.4v2.9h7.4v1.1h-10.4v3.2h10.3c0,0.4,0,0.8,0,1.2h-9.9v3.2h8c-2.1,2.2-5.8,3.1-8.6,3.4
				l2.1,3.6c3.2-0.8,8.4-2.9,10.7-6.7c2.1,3.1,6.2,5.6,10.6,6.5l1.9-3.7C504.8,67.8,501.7,66.7,499.7,64.9z"/>
		</g>
		<g>
			<path class="st1" d="M379,64.7h10.4v3.1H379v3.8h-4.2v-3.8h-10.3v-3.1h10.3v-1.3H367V53H387v10.4H379V64.7z M371.1,46.7h3.8v1.8
				h4.1v-1.8h3.8v1.8h6.5v2.9h-6.5v0.9H379v-0.9h-4.1v0.9h-3.8v-0.9h-6.5v-2.9h6.5V46.7z M382.9,56.7v-1.1H371v1.1H382.9z M371,59.3
				v1.2h11.9v-1.2H371z"/>
			<path class="st1" d="M405.3,47.1v9.5h-7.4v15h-3.8V47.1H405.3z M401.6,50.6v-1.1h-3.7v1.1H401.6z M397.9,52.7v1.1h3.7v-1.1H397.9
				z M400.2,68.6V57.9h11.8v9.8c0.8,0.1,1.3,0.1,1.5,0.1c0.7,0,0.7-0.3,0.7-1V56.6h-7.5v-9.5H418v21.2c0,2.8-1.3,3.2-4.9,3.5
				l-1.1-3.1H400.2z M408.5,62v-1.2h-4.7V62H408.5z M403.8,64.5v1.2h4.7v-1.2H403.8z M414.2,50.6v-1.1h-3.6v1.1H414.2z M410.5,52.7
				v1.1h3.6v-1.1H410.5z"/>
			<path class="st1" d="M438.3,57.2c-0.2,0.4-0.6,1-0.8,1.4c0.3,0.4,0.7,0.9,0.9,1.1v-4h-3.9v1.4l1-1c0.3,0.3,0.8,0.8,1,1.1
				c0.2-0.3,0.5-0.8,0.7-1.2L438.3,57.2z M434.4,60.1c0.3-0.3,0.9-1,1-1.3c-0.2-0.3-0.6-0.8-1-1.1V60.1z M434.2,63.2l1.2-1.1
				c0.2,0.2,0.7,0.7,1,1.1c0.3-0.5,0.6-1.1,0.7-1.3l1.4,1c-0.3,0.6-0.9,1.5-1,1.6c0.3,0.3,0.9,1.1,1.2,1.5c-0.2,0.2-1.4,1.3-1.4,1.3
				c-0.2-0.4-0.7-1.2-0.8-1.4c-0.4,0.7-0.9,1.2-1.1,1.5c-0.4-0.3-0.9-0.8-1.3-1.2c0.4-0.5,1.1-1.3,1.3-1.7
				C435,63.9,434.2,63.2,434.2,63.2z M438.3,50.2h-1.4c0,0,0.5,0.6,0.7,0.7c-0.4,0.4-1.6,1.2-2.9,2.1h3.6V50.2z M442.9,50.2h-1.3V53
				h3.8c-0.7-0.5-1.8-1.2-3.2-1.9L442.9,50.2z M445.3,57.2c-0.2,0.4-0.7,1.2-0.8,1.4c0.2,0.2,0.7,1,0.9,1.3v-4.1h-3.9v1.4l0.9-0.8
				c0.3,0.3,0.8,0.8,1,1c0.2-0.3,0.4-0.9,0.6-1.2L445.3,57.2z M441.5,60.1c0.3-0.3,0.8-0.9,1-1.3c-0.4-0.5-0.8-0.9-1-1V60.1z
				 M441.5,71h-3.2v-4.3v-1.6v-4.9c-0.3,0.3-0.8,0.7-1.1,1c-0.2-0.4-0.5-0.9-0.7-1.1c-0.3,0.5-0.7,1.1-0.9,1.4
				c-0.2-0.2-0.9-0.7-1.1-0.9v11.1h-3.1V53.6c-0.4-0.4-0.7-0.7-0.8-0.9v3.5h-3.4c0,0.8,0,1.1-0.1,2.3h3.8c0,6-0.5,8.9-0.8,9.9
				c-0.5,2-1.4,3.2-4.3,3.2c-0.5,0-0.7,0-1.8-0.1l-1-3.9c0.8,0.2,1.7,0.4,2.7,0.4c0.5,0,1,0,1.3-1.3c0.3-1.6,0.3-2,0.4-5.1h-4
				c0.4-3,0.6-6.1,0.7-8.7h3v-2.8h-3.2v-2.9h6.8v5.5c0.7-0.4,1.9-1.1,3.9-2.5h-3.1v-3h17.5v3h-2.9c1.2,0.5,3.1,1.7,3.6,2.1
				c-0.2,0.2-0.8,0.9-1,1.1v15.1c0,2.9-1,2.9-4.3,3l-1.6-4c0.5,0.1,1.4,0.3,1.9,0.3c0.9,0,1-0.2,1-1.3v-6.4l-1.2,1.1
				c-0.2-0.5-0.5-0.9-0.6-1.1c-0.2,0.3-0.4,0.8-0.7,1.2l-1.3-0.9V71z M441.3,62.9l1.2-1.1c0.2,0.2,0.6,0.7,1,1.1
				c0.3-0.5,0.6-1,0.7-1.2l1.4,0.8c-0.3,0.6-0.9,1.6-1,1.6c0.4,0.4,0.8,0.9,1.1,1.4c-0.2,0.2-1.4,1.3-1.4,1.3
				c-0.2-0.4-0.6-1.1-0.7-1.2c-0.4,0.7-0.8,1.2-1,1.5c-0.4-0.3-0.9-0.8-1.3-1.2c0.4-0.5,1-1.2,1.3-1.6
				C442.1,63.6,441.3,62.9,441.3,62.9z"/>
			<path class="st1" d="M464.6,51.5v-4.7h4.3v4.7h8.8v3.7h-8.8v3.9h7v3.6h-7v4.7h10V71h-25v-3.6h10.7v-4.7h-6.5v-3.6h6.5v-3.9h-5.6
				c-1.2,2.1-1.7,3.1-2.5,4.1l-3.6-1.9c4.3-5.4,5.3-10.1,5.4-10.4l3.9,1.3c0,0-1.3,3.1-1.4,3.2H464.6z"/>
			<path class="st1" d="M519.3,48.5c-1,1.3-3,3.5-5.3,5.1l-2.9-2.4c2.1-1.1,4-2.7,5.4-4.6L519.3,48.5z M526.1,51.8h3.2v1.8h7.6v3.4
				h-1.6v11.6c0,1-0.4,1.9-1.3,2.5c-0.7,0.5-1.8,0.6-3.1,0.6c-0.4,0-1-0.1-1.3-0.1l-1.2-4c0,0,0.7,0.2,1.8,0.2c1,0,1.3-0.1,1.3-0.9
				v-9.9h-2.8V55h-2.6v16.5h-3.6V55h-3.4v-0.3c-0.3,0.7-0.7,1.2-1.1,1.9V65c0.6-2.4,1.1-4.4,1.2-8l2.9,0.2c0.1,1.1-0.4,7-1.4,9.4
				L518,66v5.5h-3.7V61.4c-0.1,0.1-0.6,0.7-0.8,0.8l-2.6-2.5c2.3-1.6,4.9-5.7,5.9-7.7l2.3,1.3v-1.5h3.4v-4.9h3.6V51.8z M530,47.9
				h6.4v3.5H530V47.9z M529.4,57c0.9,3.6,1.1,6.1,1.1,8.3l-3.1,1c-0.1-2.7-0.4-6-1-8.6L529.4,57z M530,50.4l-2.4,1.1
				c-0.3-1.1-1-2.7-1.5-3.5l2.3-1C528.8,47.9,529.6,49.3,530,50.4z"/>
			<path class="st1" d="M545.8,51.5c-0.7,0.6-1.2,1-2.1,1.7l2.1,0V51.5z M545.8,57.2h3.2v-1h-3.2V57.2z M548.9,59.7h-3.2v1.1h3.2
				V59.7z M549,63.6h-3.2v3c1.2-0.4,1.7-0.6,2.1-0.7c-0.2-0.3-0.3-0.5-0.8-1.4L549,63.6z M549.2,53.2h3.1v10.4h-1.8
				c1.5,2.3,2.1,3.4,3.1,6l-3.3,1.8c-0.3-0.9-0.5-1.4-0.8-2.2c-2.4,0.8-7.8,2.6-7.8,2.6l-1.2-3.6c0.6-0.1,1-0.2,1.9-0.5V54.2
				c-0.1,0.1-0.2,0.1-0.3,0.2l-2.2-2.7c2.8-1.5,5-3.3,6.1-5.4l3.4,0.6l0,0.2c0,0,2,2.2,3.3,3v-1h4.2v-2.3h3.9v2.3h4.8v6.5H564v6.1
				h-6.4V63h7.4v8h-11.2V55.6h-1.2v-5.1l-1.8,2.1c-0.7-0.5-2.6-2.3-3.1-3c-0.3,0.3-0.8,0.8-1.5,1.4l2.8,0.2V53.2z M556.2,53.7h5.7
				v-1.5h-5.7V53.7z M557.7,56.9v1.8h2.8v-1.8H557.7z M561.4,67.7V66h-3.7v1.7H561.4z"/>
			<path class="st1" d="M499.7,64.9h7.5v-3.2h-10.1c0-0.4,0-1,0-1.2h10.5v-3.2h-10.5v-1.1h7v-2.9h-7v-1h9.8v-3.2h-5.2
				c0.3-0.6,1-1.9,1-1.9l-4-1.3c-0.4,1-0.9,2.1-1.6,3.1H492c0.3-0.1,0.4-0.2,1.2-0.5c-0.8-1.2-2.2-2.5-2.5-2.7l-3.7,1.7
				c0.4,0.4,0.6,0.6,1.2,1.5h-5v3.2h9.9v1h-7.4v2.9h7.4v1.1h-10.4v3.2h10.3c0,0.4,0,0.8,0,1.2h-9.9v3.2h8c-2.1,2.2-5.8,3.1-8.6,3.4
				l2.1,3.6c3.2-0.8,8.4-2.9,10.7-6.7c2.1,3.1,6.2,5.6,10.6,6.5l1.9-3.7C504.8,67.8,501.7,66.7,499.7,64.9z"/>
		</g>
	</g>
	<g>
		<polygon points="23.3,1.6 17,14.6 11.4,1.6 1.8,1.6 12.2,23.6 7.6,32.1 17,32.1 32.9,1.6 		"/>
		<polygon points="74.9,14.6 69.3,1.6 59.6,1.6 70.1,23.6 65.5,32.1 74.9,32.1 90.7,1.6 81.1,1.6 		"/>
		<rect x="128.3" y="1.6" width="8.9" height="30.5"/>
		<path d="M106.8,1.1c-8.9,0-15.9,6.9-15.9,15.8c0,8.9,6.8,15.6,15.8,15.6c8.9,0,15.9-6.9,15.9-15.8C122.6,7.9,115.8,1.1,106.8,1.1z
			 M106.8,24.5c-4.1,0-7.3-3.3-7.3-7.7c0-4.3,3.1-7.6,7.2-7.6c4.1,0,7.3,3.3,7.3,7.7C114,21.2,110.9,24.5,106.8,24.5z"/>
		<path d="M41.9,1.6L28.8,32.1H37l1.7-3.8h13.5l1.7,3.8h8.4l-13-30.6H41.9z M45.4,11.4l4.2,10.1h-8.3L45.4,11.4z"/>
		<path d="M260,1.6l-13.1,30.6h8.3l1.7-3.8h13.5l1.7,3.8h8.4l-13-30.6H260z M263.5,11.4l4.2,10.1h-8.3L263.5,11.4z"/>
		<path d="M332.5,1.6l-13.1,30.6h8.3l1.7-3.8h13.5l1.7,3.8h8.4L340,1.6H332.5z M336,11.4l4.2,10.1h-8.3L336,11.4z"/>
		<path d="M205.9,18.6c0,4.1-1.5,6.2-5,6.2c-3.5,0-5.2-2-5.2-6.2V1.6h-8.9V19c0,8.8,5,13.6,14,13.6c9.2,0,14.2-4.9,14.2-13.8V1.6
			h-9.1V18.6z"/>
		<path d="M422.2,18.6c0,4.1-1.5,6.2-5,6.2c-3.5,0-5.2-2-5.2-6.2V1.6H403V19c0,8.8,5,13.6,14,13.6c9.2,0,14.2-4.9,14.2-13.8V1.6
			h-9.1V18.6z"/>
		<path d="M518,18.6c0,4.1-1.5,6.2-5,6.2c-3.5,0-5.2-2-5.2-6.2V1.6h-8.9V19c0,8.8,5,13.6,14,13.6c9.2,0,14.2-4.9,14.2-13.8V1.6H518
			V18.6z"/>
		<polygon points="475.6,20 490.9,20 490.9,13.2 475.6,13.2 475.6,8.7 491.9,8.7 491.9,1.6 467.9,1.6 467.9,32.1 492.1,32.1 
			492.1,25 475.6,25 		"/>
		<polygon points="182.6,1.6 172.7,1.6 163.5,13.6 163.5,1.6 155.2,1.6 155.2,32.1 163.5,32.1 163.5,18.6 173.8,32.1 184.6,32.1 
			171.4,15.8 		"/>
		<path d="M240.5,15.6c-1.7-1.1-3.7-2-7.2-2.7c-4.1-0.9-4.6-1.8-4.6-3c0-1.1,0.7-2.2,3.1-2.2c3,0,5.7,1.4,8.6,3.8l4-5.8
			c-2.7-2.5-7.9-4.5-11.9-4.5c-7.1,0-11.9,3.2-11.9,9c0,2.5,0.6,4.8,2.7,6.7c1.7,1.5,3.3,2.3,6.7,3.1c3,0.7,4,1,5.1,1.5
			c1.1,0.6,1.4,1.3,1.4,1.9c0,1.5-1.1,2.2-3.6,2.2c-2.4,0-5.1-0.9-9.6-3.8l-3.9,6.3c4.9,3.3,9.9,4.5,13.1,4.5
			c6.9,0,12.2-3.5,12.2-9.8C244.6,20.3,243.8,17.7,240.5,15.6z"/>
		<polygon points="299.8,15.1 290.7,1.6 283.9,1.6 283.9,32.1 292,32.1 292,15.9 299.6,25.2 300.1,25.2 307.4,16 307.4,32.1 
			315.4,32.1 315.4,1.6 308.5,1.6 		"/>
		<path d="M457.1,15.6c-1.7-1.1-3.7-2-7.2-2.7c-4.1-0.9-4.6-1.8-4.6-3c0-1.1,0.7-2.2,3.1-2.2c3,0,5.7,1.4,8.6,3.8l4-5.8
			c-2.7-2.5-7.9-4.5-11.9-4.5c-7.1,0-11.9,3.2-11.9,9c0,2.5,0.6,4.8,2.7,6.7c1.7,1.5,3.3,2.3,6.7,3.1c3.1,0.7,4,1,5.1,1.5
			c1.1,0.6,1.4,1.3,1.4,1.9c0,1.5-1.1,2.2-3.6,2.2c-2.4,0-5.1-0.9-9.6-3.8l-3.9,6.3c4.9,3.3,9.9,4.5,13.1,4.5
			c6.9,0,12.2-3.5,12.2-9.8C461.1,20.3,460.4,17.7,457.1,15.6z"/>
		<polygon points="379.7,15.1 370.6,1.6 363.8,1.6 363.8,32.1 371.9,32.1 371.9,15.9 379.5,25.2 379.9,25.2 387.2,16 387.2,32.1 
			395.3,32.1 395.3,1.6 388.3,1.6 		"/>
		<polygon points="559.3,1.6 550.7,15.1 541.5,1.6 534.8,1.6 534.8,32.1 542.9,32.1 542.9,15.9 550.4,25.2 550.9,25.2 558.2,16 
			558.2,32.1 566.3,32.1 566.3,1.6 		"/>
	</g>
</g>
</svg>
